SplineFontDB: 3.0
FontName: Exo-ExtraLightItalic
FullName: Exo ExtraLight Italic
FamilyName: Exo
Weight: ExtraLight
Copyright: Copyright (c) 2011 Natanael Gama (exo@ndiscovered.com), with Reserved Font Name "Exo"
Version: 1.00
ItalicAngle: 0
UnderlinePosition: -50
UnderlineWidth: 50
Ascent: 800
Descent: 200
sfntRevision: 0x00010000
LayerCount: 2
Layer: 0 0 "Back"  1
Layer: 1 0 "Fore"  0
XUID: [1021 762 1116966003 6380596]
FSType: 8
OS2Version: 0
OS2_WeightWidthSlopeOnly: 0
OS2_UseTypoMetrics: 1
CreationTime: 1317846679
ModificationTime: 1325018887
PfmFamily: 33
TTFWeight: 200
TTFWidth: 5
LineGap: 90
VLineGap: 0
OS2TypoAscent: 0
OS2TypoAOffset: 1
OS2TypoDescent: 0
OS2TypoDOffset: 1
OS2TypoLinegap: 90
OS2WinAscent: 0
OS2WinAOffset: 1
OS2WinDescent: 0
OS2WinDOffset: 1
HheadAscent: 0
HheadAOffset: 1
HheadDescent: 0
HheadDOffset: 1
OS2Vendor: 'PfEd'
Lookup: 4 0 0 "'ordn' Ordinals lookup 21"  {"'ordn' Ordinals lookup 21-1"  } ['ordn' ('DFLT' <'dflt' > 'grek' <'dflt' > 'latn' <'dflt' > ) ]
Lookup: 1 0 0 "'smcp' Lowercase to Small Capitals lookup 16"  {"'smcp' Lowercase to Small Capitals lookup 16-1" ("smcp" ) } ['smcp' ('DFLT' <'dflt' > 'grek' <'dflt' > 'latn' <'FRA ' 'dflt' > ) ]
Lookup: 1 0 0 "'c2sc' Capitals to Small Capitals in Latin lookup 17"  {"'c2sc' Capitals to Small Capitals in Latin lookup 17 subtable" ("smcp" ) } ['c2sc' ('latn' <'dflt' > ) ]
Lookup: 4 0 0 "'dlig' Discretionary Ligatures lookup 14"  {"'dlig' Discretionary Ligatures lookup 14-1"  } ['dlig' ('DFLT' <'dflt' > 'grek' <'dflt' > 'latn' <'dflt' > ) ]
Lookup: 4 0 1 "'liga' Standard Ligatures lookup 15"  {"'liga' Standard Ligatures lookup 15-1"  } ['liga' ('DFLT' <'dflt' > 'grek' <'dflt' > 'latn' <'FRA ' 'dflt' > ) ]
Lookup: 1 0 0 "'frac' Diagonal Fractions lookup 13"  {"'frac' Diagonal Fractions lookup 13-1"  } ['frac' ('DFLT' <'dflt' > 'grek' <'dflt' > 'latn' <'FRA ' 'dflt' > ) ]

StartChar: a
Encoding: 67 97 0
Width: 543
VWidth: 0
Flags: W
HStem: -7 40.34<167.414 345.596> 0 21G<446.893 478.103> 0 21G<446.893 478.103>
VStem: 447.92 27.26<0 47.9>
DStem2: 502.5 467.84 545.18 479 0.144602 0.98949<-394.048 4.94084>
LayerCount: 2
Fore
SplineSet
90 278.66 m 0x90
 128.64 502.92 226.64 531 308.64 541 c 0
 378.64 550 494.18 528 545.18 479 c 9
 475.18 0 l 17
 447.92 0 l 1x50
 444.84 60 l 17
 415.84 41 321.98 -7 244.98 -7 c 3
 130.98 -7 49.34 42.28 90 278.66 c 0x90
126.68 247.7 m 0
 104.02 103.1 140.58 33.34 239.7 33.34 c 3x90
 323.3 33.34 378.54 59.6 446.54 88.6 c 1
 502.5 467.84 l 1
 462.96 485.16 388.66 511.64 310.7 500.34 c 0
 211.38 485.7 157.02 439.36 126.68 247.7 c 0
EndSplineSet
AlternateSubs2: "'salt' Access All Alternates in Latin lookup 4-1" a.salt
Substitution2: "'smcp' Lowercase to Small Capitals lookup 16-1" a.smcp
EndChar

StartChar: z
Encoding: 92 122 1
Width: 451
VWidth: 0
Flags: HW
LayerCount: 2
Fore
SplineSet
45 1 m 25
 50.7 42 l 25
 447.18 490 l 17
 107.96 490 l 1
 114 531 l 25
 510 531 l 25
 503.96 490 l 25
 108.86 42 l 17
 432.38 42 l 17
 433.38 41 426 1 426 1 c 25
 45 1 l 25
EndSplineSet
Substitution2: "'smcp' Lowercase to Small Capitals lookup 16-1" z.smcp
EndChar

StartChar: e
Encoding: 71 101 2
Width: 532
VWidth: 0
Flags: W
HStem: -7 39.98<152.205 414.551> 500 41<238.087 455.615>
LayerCount: 2
Fore
SplineSet
87.68 278 m 0
 115.38 433.74 148.76 541 343.76 541 c 0
 469.76 541 547.78 504 532.78 388 c 0
 504.78 169 159.66 225.2 122.66 240.2 c 1
 102.32 97.06 121.32 34.64 216.08 32.98 c 0
 292.74 30.28 379.82 40.6 457.82 51.6 c 1
 453.12 22 l 17
 369.12 -1 297.34 -7 214.34 -7 c 0
 86.34 -7 53.66 84 87.68 278 c 0
126.7 267.8 m 0
 126.7 267.8 466.8 211.72 491.12 388 c 0
 503.78 476.82 446.58 500 347.68 500 c 0
 162.94 500 152.3 394.44 126.7 267.8 c 0
EndSplineSet
Substitution2: "'smcp' Lowercase to Small Capitals lookup 16-1" e.smcp
EndChar

StartChar: o
Encoding: 81 111 3
Width: 561
VWidth: 0
Flags: W
HStem: -5 41<169.109 391.7> 495 41<235.21 453.507>
LayerCount: 2
Fore
SplineSet
90.32 262.62 m 0
 124.32 479.62 193.3 536 357.4 536 c 3
 528.7 536 568.86 440.38 538.52 253.38 c 0
 506.84 58.36 446.54 -5 276.16 -5 c 3
 101.52 -5 60.32 72.62 90.32 262.62 c 0
131.32 258 m 0
 99.68 60.26 160.96 36 279.8 36 c 3
 399.98 36 466.2 65.18 497.52 258 c 0
 529.82 459.36 471.02 495 351.38 495 c 3
 234.1 495 166.28 473.68 131.32 258 c 0
EndSplineSet
Substitution2: "'smcp' Lowercase to Small Capitals lookup 16-1" o.smcp
EndChar

StartChar: c
Encoding: 69 99 5
Width: 492
VWidth: 0
Flags: HW
LayerCount: 2
Fore
SplineSet
89.66 270.62 m 0
 129.04 509.76 208.38 536.68 307.66 536.68 c 3
 359.66 536.68 448.8 523.66 511.52 510 c 1
 506.82 482.4 l 1
 506.82 482.4 389.94 495.68 300.94 495.68 c 3
 220.82 495.68 164.34 470.52 129.66 262 c 0
 98.7 75.38 149.18 35.32 228.04 35.32 c 3
 320.04 35.32 445.9 52.92 445.9 52.92 c 1
 441.52 23.32 l 17
 356.52 0.32 307.72 -5.02 224.72 -5.34 c 0
 124.7 -5 53.34 48.5 89.66 270.62 c 0
EndSplineSet
Substitution2: "'smcp' Lowercase to Small Capitals lookup 16-1" c.smcp
EndChar

StartChar: d
Encoding: 70 100 6
Width: 531
VWidth: 0
Flags: HW
LayerCount: 2
Fore
SplineSet
89 268.28 m 0
 111.34 406.32 162.94 539 313.94 539 c 3
 358.94 539 444.6 525 504.6 499 c 1
 549.94 785 l 1
 588.94 785 l 1
 464.6 0 l 1
 438 0 l 1
 433.94 59 l 17
 404.28 36.7 299.68 -6 231.68 -6 c 3
 88.38 -6 69.66 146.28 89 268.28 c 0
130 263 m 0
 103.72 101.38 158.1 35 236.98 35 c 3
 315.98 35 381.32 61.64 438.32 86.94 c 1
 499.22 469.36 l 1
 433.22 487.36 386.2 498 309.2 498 c 3
 233.36 498 160.96 456.36 130 263 c 0
EndSplineSet
AlternateSubs2: "'salt' Access All Alternates in Latin lookup 4-1" d.salt
Substitution2: "'smcp' Lowercase to Small Capitals lookup 16-1" d.smcp
EndChar

StartChar: A
Encoding: 35 65 7
Width: 648
VWidth: 0
Flags: W
HStem: 0 21G<45 101.612 579.889 625.2> 0 21G<45 101.612 579.889 625.2> 236.34 41<238.02 528.88> 712 20G<422.691 484.843>
DStem2: 45 0 91.02 0 0.468614 0.883403<21.5656 289.001 335.455 792.12> 480.9 732 450.7 681.46 0.193409 -0.981118<43.7447 455.355 497.14 738.092>
LayerCount: 2
Fore
SplineSet
45 0 m 1xb0
 433.3 732 l 1
 480.9 732 l 1
 625.2 0 l 1
 583.86 0 l 1
 536.94 236.34 l 1
 216.18 236.34 l 1
 91.02 0 l 1
 45 0 l 1xb0
238.02 277.34 m 1
 528.88 277.34 l 1
 450.7 681.46 l 1
 238.02 277.34 l 1
EndSplineSet
Substitution2: "'c2sc' Capitals to Small Capitals in Latin lookup 17 subtable" a.smcp
EndChar

StartChar: p
Encoding: 82 112 8
Width: 537
VWidth: 0
Flags: HW
LayerCount: 2
Fore
SplineSet
17 -270 m 1
 146.04 524.96 l 1
 208.6 533.64 285.4 535.98 381.88 535.98 c 3
 520.48 535.98 548.86 408.94 525.94 258.28 c 0
 503.32 107.76 448.9 -9.32 302.02 -9.32 c 0
 257.02 -9.32 165.34 3 105.34 29 c 1
 57.66 -270 l 1
 17 -270 l 1
111.06 60.3 m 1
 179.16 41.34 231.04 27.94 305.04 32.36 c 0
 404.22 35.42 458.6 102.58 484.94 266.3 c 0
 507.62 407.72 476.84 494.98 376.56 494.98 c 2
 180.98 494.98 l 2
 111.06 60.3 l 1
EndSplineSet
AlternateSubs2: "'salt' Access All Alternates in Latin lookup 4-1" p.salt
Substitution2: "'smcp' Lowercase to Small Capitals lookup 16-1" p.smcp
EndChar

StartChar: b
Encoding: 68 98 9
Width: 548
VWidth: 0
Flags: W
HStem: -6 41<199.787 370.525> 498 41<243.018 442.492>
DStem2: 60 0 114.04 86.94 0.156027 0.987753<88.6935 489.382 511.3 794.733>
LayerCount: 2
Fore
SplineSet
60 0 m 1
 184 785 l 1
 223 785 l 1
 178 499 l 1
 246 525 335.94 539 380.94 539 c 3
 534.32 539 540.92 388.6 519.6 258.38 c 0
 499.92 136.72 448.1 -9.4 296.98 -6 c 1
 228.98 -4.64 131.34 36.7 109 59 c 9
 86.6 0 l 1
 60 0 l 1
114.04 86.94 m 1
 163.72 61.64 222.72 35 301.72 35 c 3
 383.32 35 453.66 105.32 478.6 263 c 0
 505.84 440.12 460.64 498 374.94 498 c 3
 297.94 498 246.62 487.36 174.62 469.36 c 1
 114.04 86.94 l 1
EndSplineSet
AlternateSubs2: "'salt' Access All Alternates in Latin lookup 4-1" b.salt
Substitution2: "'smcp' Lowercase to Small Capitals lookup 16-1" b.smcp
EndChar

StartChar: q
Encoding: 83 113 10
Width: 552
VWidth: 0
Flags: HW
LayerCount: 2
Fore
SplineSet
91.66 273.94 m 0
 118.66 441.94 192.64 537 318.66 537 c 1
 424.66 537 506.56 529.22 553.88 522.58 c 1
 428.56 -270 l 17
 387.56 -270 l 9
 434.56 29 l 1
 366.56 3 279.72 -10 234.72 -10 c 3
 81.72 -10 66.66 115.94 91.66 273.94 c 0
132.66 268 m 0
 110.4 123.66 120.48 31 239.04 31 c 3
 313.04 31 353.94 38.96 439.94 59.96 c 1
 508.84 496 l 2
 312.6 496 l 2
 199.4 496 150.24 379.84 132.66 268 c 0
EndSplineSet
Substitution2: "'smcp' Lowercase to Small Capitals lookup 16-1" q.smcp
EndChar

StartChar: n
Encoding: 80 110 11
Width: 541
VWidth: 0
Flags: HW
LayerCount: 2
Fore
SplineSet
60 0 m 1
 144 531 l 1
 170.92 531 l 1
 175 469 l 1
 240.68 505.98 315.2 540 396.2 540 c 3
 502.2 540 547.2 458 533.2 370 c 2
 474.2 0 l 9
 433.2 0 l 17
 492.2 370 l 2
 504.18 444.58 465.56 499 389.48 499 c 3
 304.2 499 251.64 478.34 170.62 439.36 c 1
 101 0 l 1
 60 0 l 1
EndSplineSet
AlternateSubs2: "'salt' Access All Alternates in Latin lookup 4-1" n.salt
Substitution2: "'smcp' Lowercase to Small Capitals lookup 16-1" n.smcp
EndChar

StartChar: i
Encoding: 75 105 12
Width: 161
VWidth: 0
Flags: W
HStem: 0 21G<60 104.164> 0 21G<60 104.164> 511 20G<140.836 185> 617.42 78.24<159.439 210.125>
VStem: 60 156.02
DStem2: 159.94 679.24 216.02 679.24 0.145568 0.989348<-57.4376 19.7443>
LayerCount: 2
Fore
SplineSet
60 0 m 1xb8
 144 531 l 1
 185 531 l 1
 101 0 l 1
 60 0 l 1xb8
153.26 633.16 m 2
 159.94 679.24 l 2
 161.28 689.62 167.98 695.66 178.7 695.66 c 2
 203.62 695.66 l 2
 214 695.66 217.36 688.62 216.02 679.24 c 2
 209.34 633.16 l 2
 208 622.78 200.3 617.42 190.92 617.42 c 2
 166.66 617.42 l 2
 157.28 617.42 151.92 623.78 153.26 633.16 c 2
EndSplineSet
Substitution2: "'smcp' Lowercase to Small Capitals lookup 16-1" i.smcp
EndChar

StartChar: h
Encoding: 74 104 13
Width: 541
VWidth: 0
Flags: HW
LayerCount: 2
Fore
SplineSet
60 0 m 1
 184 784 l 1
 225 784 l 1
 175 469 l 1
 240.68 505.98 317.18 540 398.18 540 c 3
 504.18 540 547.2 458 533.2 370 c 2
 474.2 0 l 9
 433.2 0 l 17
 492.2 370 l 2
 504.18 447.88 465.9 499 389.48 499 c 3
 304.2 499 251.64 478.34 170.62 439.36 c 1
 101 0 l 1
 60 0 l 1
EndSplineSet
Substitution2: "'smcp' Lowercase to Small Capitals lookup 16-1" h.smcp
EndChar

StartChar: u
Encoding: 87 117 14
Width: 540
VWidth: 0
Flags: W
HStem: -8.34 41<150.921 324.558> 0.66 21G<435.964 467.364> 0.66 21G<435.964 467.364> 511.66 20G<130.829 175 504.046 548.2>
VStem: 437.28 26.92<0.66 44.91>
DStem2: 75.34 161.66 116.34 161.66 0.156585 0.987665<-67.3994 374.621> 437.92 92.3 464.2 0.66 0.156249 0.987718<-11.5815 444.789>
LayerCount: 2
Fore
SplineSet
75.34 161.66 m 2x98
 134 531.66 l 9
 175 531.66 l 17
 116.34 161.66 l 2
 103.68 83.68 142.98 32.66 219.06 32.66 c 3x98
 304.34 32.66 356.9 53.32 437.92 92.3 c 1
 507.2 531.66 l 1
 548.2 531.66 l 1
 464.2 0.66 l 1
 437.28 0.66 l 1x58
 433.2 62.66 l 1
 367.52 25.68 294 -8.34 213 -8.34 c 3
 107 -8.34 61 71.28 75.34 161.66 c 2x98
EndSplineSet
AlternateSubs2: "'salt' Access All Alternates in Latin lookup 4-1" u.salt
Substitution2: "'smcp' Lowercase to Small Capitals lookup 16-1" u.smcp
EndChar

StartChar: r
Encoding: 84 114 15
Width: 404
VWidth: 0
Flags: W
HStem: 0 21G<60 104.158> 0 21G<60 104.158> 495.66 35.34<284.96 464.795>
VStem: 144 24.96<486.75 531>
LayerCount: 2
Fore
SplineSet
60 0 m 1xb0
 144 531 l 1
 169.6 531 l 1
 174 464 l 1
 241 499 309.92 537 397.2 537 c 27
 426.2 537 453.92 535.66 470.2 529 c 1
 463.48 489 l 1
 444.22 493.32 419.48 495.66 390.48 495.66 c 27
 304.54 495.66 251.96 467.4 168.96 430.4 c 1
 101 0 l 1
 60 0 l 1xb0
EndSplineSet
AlternateSubs2: "'salt' Access All Alternates in Latin lookup 4-1" r.salt
Substitution2: "'smcp' Lowercase to Small Capitals lookup 16-1" r.smcp
EndChar

StartChar: m
Encoding: 79 109 16
Width: 913
VWidth: 0
Flags: W
HStem: 0 21G<60 104.159 431.16 475.348 803.7 847.883> 0 21G<60 104.159 431.16 475.348 803.7 847.883> 497.98 41<282.41 452.29 653.486 825.204> 511 20G<140.836 172.222>
VStem: 144 26.28<486.75 531>
DStem2: 431.16 0 472.16 0 0.157148 0.987575<6.44308 442.219> 803.7 0 844.7 0 0.157148 0.987575<6.44308 443.834>
LayerCount: 2
Fore
SplineSet
60 0 m 1xa8
 144 531 l 1
 170.92 531 l 1x98
 175 468.32 l 1
 240.68 505.3 311.8 538.98 393.48 538.98 c 3
 458.76 538.98 505.5 503.96 522.48 455.62 c 1
 580.82 495.98 680.58 538.98 766.36 538.98 c 3
 865.22 538.98 918.04 461.4 903.36 368.64 c 2
 844.7 0 l 1
 803.7 0 l 1
 862.36 368.64 l 2
 874 440.84 834.7 497.98 759.64 497.98 c 3
 675.98 497.98 605.86 472.44 530.22 432.74 c 1
 534.84 416.9 533.46 385.78 530.82 367.96 c 2
 472.16 0 l 1
 431.16 0 l 1
 489.82 368.64 l 2
 501.46 440.84 461.82 497.98 386.76 497.98 c 3
 301.48 497.98 251.3 477.66 170.28 438.68 c 1
 101 0 l 1
 60 0 l 1xa8
EndSplineSet
AlternateSubs2: "'salt' Access All Alternates in Latin lookup 4-1" m.salt
Substitution2: "'smcp' Lowercase to Small Capitals lookup 16-1" m.smcp
EndChar

StartChar: f
Encoding: 72 102 17
Width: 373
VWidth: 0
Flags: W
HStem: 0 21G<104.78 148.99> 0 21G<104.78 148.99> 490 41<231.48 398.34> 490 27.94<96.38 146.816> 745 40.66<286.686 473.56> 745 25.24<398.098 473.56>
DStem2: 104.78 0 145.78 0 0.158413 0.987373<6.49494 496.216 544.366 741.061>
LayerCount: 2
Fore
SplineSet
92 490 m 1x90
 96.38 517.94 l 1x90
 190.48 531 l 1
 202.42 608.58 l 2
 216.86 697.6 231.7 783.02 343.74 785.66 c 1x28
 377.14 786.32 449.38 778.54 477.26 770.24 c 1x04
 473.56 745 l 1
 341.76 745 l 2
 273.42 745 257.12 698.82 243.42 608.58 c 2
 231.48 531 l 1
 405.06 531 l 1
 398.34 490 l 1x28
 224.42 490 l 1
 145.78 0 l 1
 104.78 0 l 1
 183.08 490 l 1
 92 490 l 1x90
EndSplineSet
AlternateSubs2: "'salt' Access All Alternates in Latin lookup 4-1" f.salt
Substitution2: "'smcp' Lowercase to Small Capitals lookup 16-1" f.smcp
EndChar

StartChar: l
Encoding: 78 108 18
Width: 305
VWidth: 0
Flags: W
HStem: 0 27.62<186.047 256.14> 763 20G<179.835 224>
DStem2: 89 189 130 189 0.156304 0.987709<-101.15 601.392>
LayerCount: 2
Fore
SplineSet
89 189 m 2
 183 783 l 1
 224 783 l 1
 130 189 l 2
 108.06 51.72 155.1 46.7 187.5 41 c 2
 187.5 41 255.56 27.62 260.52 27.62 c 1
 256.14 0 l 1
 190.12 0 l 2
 102.38 0 68.34 58.02 89 189 c 2
EndSplineSet
Substitution2: "'smcp' Lowercase to Small Capitals lookup 16-1" l.smcp
EndChar

StartChar: j
Encoding: 76 106 19
Width: 173
VWidth: 0
Flags: HW
LayerCount: 2
Fore
SplineSet
28 -270 m 1
 155 531 l 1
 196 531 l 1
 111 -4 l 2
 98 -90 82.64 -180.64 52.9 -270 c 1
 28 -270 l 1
162.94 633.16 m 2
 170.62 679.24 l 2
 171.96 689.62 178.66 695.66 189.38 695.66 c 2
 214.3 695.66 l 2
 224.68 695.66 228.04 688.62 226.7 679.24 c 2
 219.02 633.16 l 2
 217.68 622.78 210.64 617.42 201.26 617.42 c 2
 177 617.42 l 2
 167.62 617.42 161.6 623.78 162.94 633.16 c 2
EndSplineSet
Substitution2: "'smcp' Lowercase to Small Capitals lookup 16-1" j.smcp
EndChar

StartChar: t
Encoding: 86 116 20
Width: 355
VWidth: 0
Flags: W
HStem: -0.66 27.62<231.834 300.64> 491 41<228.82 390.3> 491 29.6<97.04 152.782>
VStem: 92 305.02
DStem2: 133.16 188.34 174.16 188.34 0.15602 0.987754<-92.6835 306.433 354.376 499.534>
LayerCount: 2
Fore
SplineSet
92 491 m 1xb0
 97.04 520.6 l 1xb0
 187.82 532 l 1
 222.22 680 l 1
 251.82 680 l 1
 228.82 532 l 1
 397.02 532 l 1
 390.3 491 l 1xd0
 222.1 491 l 1
 174.16 188.34 l 2
 152.56 51.06 199.26 46.04 231.66 40.34 c 2
 231.66 40.34 299.72 26.96 304.68 26.96 c 1
 300.64 -0.66 l 1
 235.94 -0.66 l 2
 147.52 -0.66 112.5 57.02 133.16 188.34 c 2
 181.1 491 l 1
 92 491 l 1xb0
EndSplineSet
AlternateSubs2: "'salt' Access All Alternates in Latin lookup 4-1" t.salt
Substitution2: "'smcp' Lowercase to Small Capitals lookup 16-1" t.smcp
EndChar

StartChar: s
Encoding: 85 115 21
Width: 505
VWidth: 0
Flags: W
HStem: -6.7 41<107.904 394.381> 6.36 27.94<68.38 255.592> 243.5 41<144.83 418.292> 497.7 40<181.322 467.242> 497.7 28.62<312.349 498.82>
DStem2: 98.32 365.26 139.32 361.3 0.152088 0.988367<-58.4878 119.057> 424.2 114.7 465.2 107.68 0.1533 0.98818<-63.8623 103.782>
LayerCount: 2
Fore
SplineSet
64 6.36 m 9x60
 68.38 34.3 l 17x60
 322.58 34.3 l 18
 353.6 34.3 410.9 32.92 424.2 114.7 c 2
 432.54 165.4 l 2
 439.86 209.64 419.64 243.5 357.82 243.5 c 10
 221.04 243.5 l 2
 127.04 243.5 82.32 263.28 98.32 365.26 c 10
 105.66 412.96 l 18
 119 496.32 161 537.7 264 537.7 c 3xb0
 316 537.7 452.86 531.32 503.86 526.32 c 9
 498.82 497.7 l 17x28
 257.62 497.7 l 2
 180.42 497.7 154.94 463.32 146.66 409 c 10
 139.32 361.3 l 18
 126.34 281.76 165 284.5 224.02 284.5 c 2
 359.5 284.5 l 2
 439.24 284.5 485.54 236.44 473.54 161.44 c 1
 465.2 107.68 l 2
 448.2 -1.32 375.82 -6.7 314.54 -6.7 c 3xb0
 265.54 -6.7 101 2.36 64 6.36 c 9x60
EndSplineSet
Substitution2: "'smcp' Lowercase to Small Capitals lookup 16-1" s.smcp
EndChar

StartChar: k
Encoding: 77 107 22
Width: 479
VWidth: 0
Flags: W
HStem: 0 21G<60 104.207 393.855 455.36> 0 21G<60 104.207 393.855 455.36> 272.28 31.18<149.02 231.236> 511 20G<445.53 503.2> 762 20G<180.829 225>
VStem: 458.48 44.72<483.142 531>
DStem2: 60 0 101 0 0.156611 0.98766<6.42106 284.626 313.657 791.77> 273.5 290.64 232.82 279.22 0.530439 -0.847723<0 316.814>
LayerCount: 2
Fore
SplineSet
60 0 m 1xbc
 184 782 l 1
 225 782 l 1
 149.02 303.46 l 1
 321.5 311.64 432.58 436.2 458.48 531 c 1
 503.2 531 l 1
 465.6 396.28 354.04 318.66 273.5 290.64 c 1
 455.36 0 l 1
 406.28 0 l 1
 232.82 279.22 l 1
 199.16 271.3 157.2 270.96 144.66 272.28 c 1
 101 0 l 1
 60 0 l 1xbc
EndSplineSet
Substitution2: "'smcp' Lowercase to Small Capitals lookup 16-1" k.smcp
EndChar

StartChar: g
Encoding: 73 103 23
Width: 539
VWidth: 0
Flags: HW
LayerCount: 2
Fore
SplineSet
37 -248 m 1
 41.04 -222.1 l 1
 277.92 -232 l 2
 329.54 -234.64 401.58 -197.04 416.2 -104 c 2
 437.2 29 l 1
 369.2 3 280.08 -9.66 235.08 -9.66 c 3
 79.7 -9.66 66 117 91 275 c 0
 118 443 194.38 537 314.96 537 c 3
 420.96 537 509.86 524.6 555.86 520.6 c 1
 457.2 -104 l 2
 437.2 -228 348.9 -280 271.2 -272 c 2
 37 -248 l 1
132 269.98 m 0
 110.12 129.68 121.4 31 236.72 31 c 3
 310.72 31 356.24 41.6 442.24 62.6 c 1
 511.48 492.7 l 2
 318.26 496 l 2
 205.32 497.98 150.22 383.62 132 269.98 c 0
EndSplineSet
AlternateSubs2: "'salt' Access All Alternates in Latin lookup 4-1" g.salt
Substitution2: "'smcp' Lowercase to Small Capitals lookup 16-1" g.smcp
EndChar

StartChar: v
Encoding: 88 118 24
Width: 526
VWidth: 0
Flags: W
HStem: 0 21G<220.008 286.238> 0 21G<220.008 286.238> 511 20G<94 141.031 509.74 546.55>
DStem2: 136.02 531 94 531 0.23942 -0.970916<0 493.062> 255.86 52.72 275.04 0 0.488528 0.872548<0 541.689>
LayerCount: 2
Fore
SplineSet
94 531 m 25xa0
 136.02 531 l 17
 255.86 52.72 l 1
 478.82 449.02 l 2
 491.16 472.06 507.4 500.6 512.08 531.66 c 9
 542.04 531.66 l 17
 551.06 501.3 530.26 457.46 521.2 439.66 c 1
 275.04 0 l 9
 224.94 0 l 25
 94 531 l 25xa0
EndSplineSet
Substitution2: "'smcp' Lowercase to Small Capitals lookup 16-1" v.smcp
EndChar

StartChar: w
Encoding: 89 119 25
Width: 803
VWidth: 0
Flags: W
HStem: 0 21G<220.008 281.223 501.143 560.116> 0 21G<220.008 281.223 501.143 560.116> 511 20G<94 139.952 791.48 826.93>
DStem2: 135 531 94 531 0.23942 -0.970916<0 491.65> 253.16 53.76 269.98 0 0.49003 0.871705<0 297.73 355.88 538.567> 464.38 343.28 434.8 293.2 0.235979 -0.971758<41.6854 296.969> 533.56 54.48 548.64 0 0.497693 0.867353<0 542.037>
LayerCount: 2
Fore
SplineSet
94 531 m 1xa0
 135 531 l 1
 253.16 53.76 l 1
 474.48 446.02 l 2
 486.82 469.06 504.38 498.26 509.06 529.32 c 9
 537.32 529.32 l 17
 546.34 498.96 524.88 455.12 515.82 437.32 c 1
 464.38 343.28 l 1
 533.56 54.48 l 1
 759.24 447.7 l 2
 771.58 470.74 789.14 500.6 793.82 531.66 c 9
 822.42 531.66 l 17
 831.44 501.3 810.66 457.12 800.92 439.66 c 2
 548.64 0 l 1
 506 0 l 1
 434.8 293.2 l 1
 269.98 0 l 1
 224.94 0 l 1
 94 531 l 1xa0
EndSplineSet
Substitution2: "'smcp' Lowercase to Small Capitals lookup 16-1" w.smcp
EndChar

StartChar: y
Encoding: 91 121 26
Width: 540
VWidth: 0
Flags: W
HStem: -269 27.26<97.34 120.826> 0 42.68<237.951 276.88> 511 20G<94 139.677 523.28 560.77>
DStem2: 136.02 531 94 531 0.178104 -0.984012<0 481.877> 276.88 0 324.28 1 0.439163 0.898407<-186.076 0 47.4962 589.649>
LayerCount: 2
Fore
SplineSet
94 531 m 1
 136.02 531 l 1
 211.9 116 l 2
 227.82 31.36 298.38 42.68 297.72 42.68 c 1
 498.64 453.66 l 2
 510 477.36 520.94 505.24 525.62 536.3 c 1
 556.26 536.3 l 1
 565.28 505.94 551.38 466.02 540 442.94 c 2
 324.28 1 l 2
 297.08 -52.04 197.78 -261.52 97.34 -269 c 1
 97.34 -241.74 l 1
 171.74 -224.38 264.3 -24.14 276.88 0 c 1
 254.52 0.66 187.84 11.32 170.2 110 c 2
 94 531 l 1
EndSplineSet
Substitution2: "'smcp' Lowercase to Small Capitals lookup 16-1" y.smcp
EndChar

StartChar: x
Encoding: 90 120 27
Width: 471
VWidth: 0
Flags: W
HStem: 0 21G<24 96.6977 398.017 459.38> 0 21G<24 96.6977 398.017 459.38> 511 20G<108 169.412 473.386 544.4>
DStem2: 24 0 79.12 0 0.660389 0.750924<36.4006 340.45 401.147 707.129> 158.02 531 108 531 0.493583 -0.869699<0 264.395 323.316 585.867>
LayerCount: 2
Fore
SplineSet
24 0 m 1xa0
 258.34 266.68 l 1
 108 531 l 1
 158.02 531 l 1
 288.88 301.26 l 1
 490.98 531 l 1
 544.4 531 l 1
 310.06 263.62 l 1
 459.38 0 l 1
 409.36 0 l 1
 279.84 228.38 l 1
 79.12 0 l 1
 24 0 l 1xa0
EndSplineSet
AlternateSubs2: "'salt' Access All Alternates in Latin lookup 4-1" x.salt
Substitution2: "'smcp' Lowercase to Small Capitals lookup 16-1" x.smcp
EndChar

StartChar: V
Encoding: 56 86 28
Width: 668
VWidth: 0
Flags: HW
LayerCount: 2
Fore
SplineSet
150 732 m 1
 193.02 732 l 1
 325.52 57.62 l 1
 683.48 732 l 1
 730.2 732 l 1
 341.9 0 l 1
 294.3 0 l 1
 150 732 l 1
EndSplineSet
Substitution2: "'c2sc' Capitals to Small Capitals in Latin lookup 17 subtable" v.smcp
EndChar

StartChar: W
Encoding: 57 87 29
Width: 987
VWidth: 0
Flags: HW
LayerCount: 2
Fore
SplineSet
150 732 m 1
 191.34 732 l 1
 324.84 57.64 l 1
 670.94 732 l 1
 716.66 732 l 1
 573.46 447.66 l 1
 657.54 54.94 l 1
 1004.3 732 l 1
 1049 732 l 1
 673.9 0 l 1
 626.3 0 l 1
 542.2 388.52 l 1
 341.9 0 l 1
 294.3 0 l 1
 150 732 l 1
EndSplineSet
Substitution2: "'c2sc' Capitals to Small Capitals in Latin lookup 17 subtable" w.smcp
EndChar

StartChar: C
Encoding: 37 67 30
Width: 568
VWidth: 0
Flags: W
HStem: -6 41<227.92 507.283> 699 41<311.005 604.167>
LayerCount: 2
Fore
SplineSet
116.32 373.28 m 0
 153.34 604.64 215.02 740 416.66 740 c 0
 468.66 740 570.18 726.96 638.18 713.96 c 1
 633.8 684.66 l 1
 625.66 685.68 505.3 699.68 412.28 699 c 1
 296.56 698.66 202.68 654.16 157.32 366 c 1
 124.04 160.44 165.9 38.06 306 35 c 1
 390.26 33.98 484.98 42.24 533.26 45.64 c 1
 529.22 16.34 l 1
 452.8 -0.0599999 357.76 -6 301.34 -6 c 0
 114.98 -6 84.36 173.58 116.32 373.28 c 0
EndSplineSet
Substitution2: "'c2sc' Capitals to Small Capitals in Latin lookup 17 subtable" c.smcp
EndChar

StartChar: D
Encoding: 38 68 31
Width: 661
VWidth: 0
Flags: W
HStem: 0 42.02<127.72 437.706> 691 41<251.994 537.596>
DStem2: 80 0 127.72 42.02 0.156588 0.987664<48.974 706.008>
LayerCount: 2
Fore
SplineSet
80 0 m 1
 196 731.66 l 2
 196 732 434.74 732 455.14 732 c 0
 680.8 732 682.44 497.54 656.48 357.72 c 0
 620.14 158.58 530.12 0 343.76 0 c 0
 80 0 l 1
127.72 42.02 m 1
 347.84 42.02 l 2
 512.16 42.02 591.48 215.66 616.14 364 c 0
 653.42 589.1 590.26 691 447.76 691 c 2
 230.28 691 l 1
 127.72 42.02 l 1
EndSplineSet
Substitution2: "'c2sc' Capitals to Small Capitals in Latin lookup 17 subtable" d.smcp
EndChar

StartChar: O
Encoding: 49 79 32
Width: 678
VWidth: 0
Flags: W
HStem: -4 41<210.81 466.724> 696 41<306.814 573.617>
LayerCount: 2
Fore
SplineSet
116.98 365.62 m 0
 170.98 708.62 274.32 737 447.34 737 c 3
 620.68 737 715.82 695.3 663.18 356.38 c 0
 612.86 33.38 511.78 -4 334.16 -4 c 3
 160.28 -4 63.98 32.62 116.98 365.62 c 0
157.98 361 m 0
 113.02 76.94 169.66 37 338.8 37 c 3
 499.94 37 577.9 80.98 622.18 361 c 0
 671.82 676.5 591.12 696 443.36 696 c 3
 300.46 696 208.94 685.08 157.98 361 c 0
EndSplineSet
Substitution2: "'c2sc' Capitals to Small Capitals in Latin lookup 17 subtable" o.smcp
EndChar

StartChar: S
Encoding: 53 83 33
Width: 567
VWidth: 0
Flags: HW
LayerCount: 2
Fore
SplineSet
79 10.06 m 9
 83.38 40.36 l 17
 126.38 35.68 230.78 33 323.78 33 c 1
 397.12 33 481.5 49.88 497.8 156 c 2
 508.14 224 l 2
 519.78 299.48 498.98 338.5 407.14 338.5 c 10
 285.96 338.5 l 2
 130.28 338.5 123.96 419.66 135.96 496.64 c 10
 146.62 562.64 l 18
 170.3 711.38 258.68 739.36 369.32 738 c 0
 422.32 737.32 547.12 725.3 597.16 717.3 c 1
 592.78 688.66 l 1
 534.2 691.3 362.6 697 362.6 697 c 1
 267.46 701 205.26 672.5 187.62 560 c 10
 176.96 494 l 18
 160.62 388.98 212.62 379.5 291.36 379.5 c 2
 413.86 379.5 l 18
 543.46 379.5 562.14 302.7 549.14 220.7 c 2
 538.8 152.7 l 2
 516.12 7.3 408.96 -8 315.74 -8 c 3
 257.56 -8 120.6 2.4 79 10.06 c 9
EndSplineSet
Substitution2: "'c2sc' Capitals to Small Capitals in Latin lookup 17 subtable" s.smcp
EndChar

StartChar: G
Encoding: 41 71 34
Width: 629
VWidth: 0
Flags: HW
LayerCount: 2
Fore
SplineSet
122.28 373.6 m 0
 156.66 585.16 208.78 739.66 407.78 739.66 c 0
 458.76 740 580.02 724.98 648.02 711.98 c 1
 643.32 679.38 l 1
 618.96 682.44 479.76 698.32 402.08 698.66 c 1
 272.46 699 202.04 613.9 164.3 366.98 c 1
 129.72 147.88 155.08 34.98 299.8 35.32 c 1
 377.8 35.32 527.46 87.02 527.46 87.02 c 9
 569.38 347 l 25
 370.68 347 l 25
 375.38 373.24 l 17
 417.38 384.24 468.1 389 549.1 389 c 0
 570.1 389 592.76 388 616.76 386 c 9
 555.76 0 l 17
 527.14 0 l 0
 523.74 55.02 l 1
 491.08 34.6 379.68 -5.68 294.44 -5.68 c 1
 94.58 -6.66 90.98 179.18 122.28 373.6 c 0
EndSplineSet
Substitution2: "'c2sc' Capitals to Small Capitals in Latin lookup 17 subtable" g.smcp
EndChar

StartChar: Q
Encoding: 51 81 35
Width: 683
VWidth: 0
Flags: HW
LayerCount: 2
Fore
SplineSet
120.98 365.62 m 0
 174.98 708.62 278.32 737 451.34 737 c 3
 624.68 737 719.82 695.3 667.18 356.38 c 0
 616.86 33.38 515.78 -4 338.16 -4 c 3
 164.28 -4 67.98 32.62 120.98 365.62 c 0
161.98 361 m 0
 117.02 76.94 173.66 37 342.8 37 c 3
 503.94 37 581.9 80.98 626.18 361 c 0
 675.82 676.5 595.12 696 447.36 696 c 3
 304.46 696 212.94 685.08 161.98 361 c 0
315.6 -33 m 9
 342.52 -33 l 17
 372.44 -102.08 445.86 -101.72 508.18 -81.38 c 1
 501.12 -124.42 l 1
 425.12 -151.42 318.9 -129.04 315.6 -33 c 9
EndSplineSet
Substitution2: "'c2sc' Capitals to Small Capitals in Latin lookup 17 subtable" q.smcp
EndChar

StartChar: M
Encoding: 47 77 36
Width: 790
VWidth: 0
Flags: W
HStem: 0 21G<71 117.79 381.212 437.927 700.54 743.334> 0 21G<71 117.79 381.212 437.927 700.54 743.334> 712 20G<251.704 314.996 714.357 783.72>
DStem2: 71 0 112.66 0 0.245999 0.96927<10.2483 694.379> 311.86 732 282.64 662.68 0.154911 -0.987928<63.9567 671.223> 415.84 68.88 428.6 0 0.422652 0.906292<0 678.183> 700.54 0 742.2 0 0.0566302 0.998395<2.35922 667.448>
LayerCount: 2
Fore
SplineSet
71 0 m 1xa0
 256.78 732 l 1
 311.86 732 l 1
 415.84 68.88 l 1
 723.64 732 l 1
 783.72 732 l 1
 742.2 0 l 1
 700.54 0 l 1
 739.34 666.32 l 1
 428.6 0 l 1
 384.28 0 l 1
 282.64 662.68 l 1
 112.66 0 l 1
 71 0 l 1xa0
EndSplineSet
AlternateSubs2: "'salt' Access All Alternates in Latin lookup 4-1" M.salt
Substitution2: "'c2sc' Capitals to Small Capitals in Latin lookup 17 subtable" m.smcp
EndChar

StartChar: I
Encoding: 43 73 37
Width: 203
VWidth: 0
Flags: W
HStem: 0 21G<90 134.169> 0 21G<90 134.169> 712 20G<202.831 247>
VStem: 90 157
DStem2: 90 0 131 0 0.156517 0.987675<6.41719 741.134>
LayerCount: 2
Fore
SplineSet
90 0 m 1xb0
 206 732 l 1
 247 732 l 1
 131 0 l 1
 90 0 l 1xb0
EndSplineSet
Substitution2: "'c2sc' Capitals to Small Capitals in Latin lookup 17 subtable" i.smcp
EndChar

StartChar: J
Encoding: 44 74 38
Width: 332
VWidth: 0
Flags: HW
LayerCount: 2
Fore
SplineSet
38 21 m 1
 46.38 48.6 l 1
 125.96 24.66 238.58 7.9 264.2 165 c 1
 354.2 732 l 1
 395.2 732 l 1
 305.2 165 l 2
 298.2 118 281.9 50.66 230.2 18 c 0
 178.8 -14.68 85 -13 38 21 c 1
EndSplineSet
Substitution2: "'c2sc' Capitals to Small Capitals in Latin lookup 17 subtable" j.smcp
EndChar

StartChar: H
Encoding: 42 72 39
Width: 648
VWidth: 0
Flags: W
HStem: 0 21G<85 129.177 535.4 579.569> 0 21G<85 129.177 535.4 579.569> 333.5 41<185.02 588.38> 712 20G<197.831 242 648.212 692.4>
DStem2: 85 0 126 0 0.156517 0.987675<6.41719 344.099 385.539 741.134> 535.4 0 576.4 0 0.156517 0.987675<6.41719 337.682 379.122 741.134>
LayerCount: 2
Fore
SplineSet
85 0 m 1xb0
 201 732 l 1
 242 732 l 1
 185.02 374.5 l 1
 594.42 374.5 l 1
 651.4 732 l 1
 692.4 732 l 1
 576.4 0 l 1
 535.4 0 l 1
 588.38 333.5 l 1
 178.98 333.5 l 1
 126 0 l 1
 85 0 l 1xb0
EndSplineSet
Substitution2: "'c2sc' Capitals to Small Capitals in Latin lookup 17 subtable" h.smcp
EndChar

StartChar: E
Encoding: 39 69 40
Width: 563
VWidth: 0
Flags: HW
LayerCount: 2
Fore
SplineSet
98 126.3 m 2
 174 605.3 l 2
 190 703.3 252.26 734.68 320.34 732 c 2
 622.46 719.96 l 1
 618.08 691 l 1
 314.28 691 l 2
 257.04 691 224.28 660.68 215 602 c 2
 180.36 384.18 l 1
 528.16 377.48 l 1
 523.44 348.18 l 1
 173.64 341.48 l 1
 139 123 l 2
 126.72 44.26 174.9 38 221.06 38 c 2
 514.86 38 l 1
 510.14 9.38 l 1
 214 -3 l 2
 148 -5.68 81.02 19.76 98 126.3 c 2
EndSplineSet
Substitution2: "'c2sc' Capitals to Small Capitals in Latin lookup 17 subtable" e.smcp
EndChar

StartChar: L
Encoding: 46 76 41
Width: 542
VWidth: 0
Flags: W
HStem: 0 41<152.288 501.88> 712 20G<192.489 236.34>
DStem2: 99 126 140 126 0.157546 0.987512<-54.0822 613.664>
LayerCount: 2
Fore
SplineSet
99 126 m 2
 195.68 732 l 1
 236.34 732 l 1
 140 126 l 2
 127.38 47.26 176.56 41 222.06 41 c 2
 508.26 41 l 1
 501.88 0 l 1
 218.3 0 l 2
 151.96 0 82.02 19.46 99 126 c 2
EndSplineSet
Substitution2: "'c2sc' Capitals to Small Capitals in Latin lookup 17 subtable" l.smcp
EndChar

StartChar: F
Encoding: 40 70 42
Width: 559
VWidth: 0
Flags: HW
LayerCount: 2
Fore
SplineSet
80 0 m 25
 174.34 599.36 l 2
 191.66 707.92 251.28 734.68 321.34 732 c 2
 623.46 719.96 l 1
 619.08 691 l 1
 313.96 691 l 2
 254.08 691 225.28 662 216 602 c 2
 181.7 384.18 l 1
 529.82 377.48 l 1
 524.78 348.18 l 1
 175.3 341.48 l 1
 121 0 l 25
 80 0 l 25
EndSplineSet
Substitution2: "'c2sc' Capitals to Small Capitals in Latin lookup 17 subtable" f.smcp
EndChar

StartChar: K
Encoding: 45 75 43
Width: 542
VWidth: 0
Flags: HW
LayerCount: 2
Fore
SplineSet
80 0 m 1
 196 732 l 1
 237 732 l 1
 182.36 387.5 l 1
 312.92 387.5 l 1
 600.46 732 l 1
 651.54 732 l 1
 348.86 365.96 l 1
 536.2 0 l 1
 487.46 0 l 1
 310.54 346.5 l 1
 176.64 346.5 l 9
 122 0 l 17
 80 0 l 1
EndSplineSet
Substitution2: "'c2sc' Capitals to Small Capitals in Latin lookup 17 subtable" k.smcp
EndChar

StartChar: T
Encoding: 54 84 44
Width: 613
VWidth: 0
Flags: W
HStem: 0 21G<270.12 314.283> 0 21G<270.12 314.283> 691 41<145.72 379.4 420.4 666.8>
DStem2: 270.12 0 311.12 0 0.156206 0.987724<6.40446 699.588>
LayerCount: 2
Fore
SplineSet
139 691 m 1xa0
 145.72 732 l 1
 673.52 732 l 1
 666.8 691 l 1
 420.4 691 l 1
 311.12 0 l 1
 270.12 0 l 1
 379.4 691 l 1
 139 691 l 1xa0
EndSplineSet
Substitution2: "'c2sc' Capitals to Small Capitals in Latin lookup 17 subtable" t.smcp
EndChar

StartChar: P
Encoding: 50 80 45
Width: 587
VWidth: 0
Flags: HW
LayerCount: 2
Fore
SplineSet
75 0 m 1
 191 732 l 1
 477.2 732 l 2
 556.2 732 646.48 701.82 620.52 527.92 c 0
 588.86 316.78 485.18 314.5 411.18 314.5 c 0
 371.18 314.5 173.32 323.88 168.32 326.88 c 1
 116 0 l 1
 75 0 l 1
172.36 355.5 m 2
 417.22 355.5 l 2
 487.04 355.5 556.2 378.42 578.52 528.58 c 1
 600.82 674.76 533.9 690 470.48 690 c 2
 225.28 690 l 1
 172.36 355.5 l 2
EndSplineSet
Substitution2: "'c2sc' Capitals to Small Capitals in Latin lookup 17 subtable" p.smcp
EndChar

StartChar: R
Encoding: 52 82 46
Width: 611
VWidth: 0
Flags: HW
LayerCount: 2
Fore
SplineSet
75 0 m 1
 191 732 l 1
 479.24 732 l 2
 560.28 732 644.1 697.48 619.84 522.56 c 0
 593.58 333.2 499.08 318.54 439.72 315.86 c 1
 547.7 0 l 1
 503 0 l 1
 397.4 313.14 l 1
 362.42 313.8 170.28 322.52 167.64 324.5 c 1
 116 0 l 1
 75 0 l 1
172.7 355.5 m 1
 417.9 355.5 l 2
 488.74 355.5 558.28 381.56 577.84 525.2 c 0
 597.42 671.72 540.36 690 472.52 690 c 2
 225.62 690 l 1
 172.7 355.5 l 1
EndSplineSet
Substitution2: "'c2sc' Capitals to Small Capitals in Latin lookup 17 subtable" r.smcp
EndChar

StartChar: U
Encoding: 55 85 47
Width: 672
VWidth: 0
Flags: HW
LayerCount: 2
Fore
SplineSet
129.64 313.88 m 2
 195.66 732 l 1
 237 732 l 1
 170.98 313.88 l 2
 129.76 51.94 210.14 36 340.7 36 c 3
 467.4 36 559.48 65.26 598.7 313.88 c 2
 664.72 732 l 1
 706.06 732 l 1
 640.04 313.88 l 2
 598.56 52.08 503.12 -5 339.98 -5 c 3
 194.46 -5 83.42 21.6 129.64 313.88 c 2
EndSplineSet
Substitution2: "'c2sc' Capitals to Small Capitals in Latin lookup 17 subtable" u.smcp
EndChar

StartChar: B
Encoding: 36 66 48
Width: 592
VWidth: 0
Flags: HW
LayerCount: 2
Fore
SplineSet
80 0 m 1
 196 732 l 1
 459.2 732 l 2
 606.52 732 635.48 650.72 620.86 551.54 c 0
 606.88 454.18 539.06 392.7 477.44 382.64 c 1
 515.02 374.34 585.52 312.7 568.88 198.36 c 0
 553.56 92.28 497.2 0 343.2 0 c 2
 80 0 l 1
128.06 41.66 m 1
 349.92 41.66 l 2
 418.38 41.66 505.9 65.22 528.2 204.68 c 0
 542.18 290.56 490.12 364.16 400.84 362.84 c 9
 178.98 362.84 l 1
 128.06 41.66 l 1
185.7 403.84 m 1
 407.56 403.84 l 2
 494.44 403.84 561.24 458.02 578.86 550.58 c 0
 599.8 662.76 547.52 691 453.16 691 c 2
 230.96 691 l 1
 185.7 403.84 l 1
EndSplineSet
Substitution2: "'c2sc' Capitals to Small Capitals in Latin lookup 17 subtable" b.smcp
EndChar

StartChar: N
Encoding: 48 78 49
Width: 648
VWidth: 0
Flags: W
HStem: 0 21G<80 124.521 530.017 582.369> 0 21G<80 124.521 530.017 582.369> 712 20G<192.831 246.502 651.016 695.2>
DStem2: 80 0 121.34 0 0.156517 0.987675<6.47041 672.094> 236.98 732 225.9 657.36 0.43064 -0.902524<62.5929 727.331> 549.64 75.3 579.2 0 0.156517 0.987675<0 664.972>
LayerCount: 2
Fore
SplineSet
80 0 m 1xa0
 196 732 l 1
 236.98 732 l 1
 549.64 75.3 l 1
 654.2 732 l 1
 695.2 732 l 1
 579.2 0 l 0
 539.56 0 l 1
 225.9 657.36 l 1
 121.34 0 l 1
 80 0 l 1xa0
EndSplineSet
AlternateSubs2: "'salt' Access All Alternates in Latin lookup 4-1" N.salt
Substitution2: "'c2sc' Capitals to Small Capitals in Latin lookup 17 subtable" n.smcp
EndChar

StartChar: X
Encoding: 58 88 50
Width: 562
VWidth: 0
Flags: W
HStem: 0 21G<38 103.885 468.055 521.98> 0 21G<38 103.885 468.055 521.98> 712 20G<151 204.84 579.324 645.36>
DStem2: 38 0 88.72 0 0.605304 0.795995<30.701 435.23 503.882 919.604> 196 732 151 732 0.406812 -0.913512<0 360.859 430.02 782.997>
LayerCount: 2
Fore
SplineSet
38 0 m 1xa0
 313.34 364.66 l 1
 151 732 l 1
 196 732 l 1
 341.88 401.94 l 1
 594.64 732 l 1
 645.36 732 l 1
 361.02 360.28 l 1
 521.98 0 l 1
 476.98 0 l 1
 333.14 322.34 l 1
 88.72 0 l 1
 38 0 l 1xa0
EndSplineSet
AlternateSubs2: "'salt' Access All Alternates in Latin lookup 4-1" X.salt
Substitution2: "'c2sc' Capitals to Small Capitals in Latin lookup 17 subtable" x.smcp
EndChar

StartChar: Z
Encoding: 60 90 51
Width: 526
VWidth: 0
Flags: HW
LayerCount: 2
Fore
SplineSet
35 0 m 1
 41.72 41 l 1
 563.38 691 l 1
 144.28 691 l 1
 151 732 l 1
 624.2 732 l 1
 617.48 691 l 1
 95.82 41 l 1
 514.92 41 l 1
 508.2 0 l 1
 35 0 l 1
EndSplineSet
Substitution2: "'c2sc' Capitals to Small Capitals in Latin lookup 17 subtable" z.smcp
EndChar

StartChar: Y
Encoding: 59 89 52
Width: 628
VWidth: 0
Flags: HW
LayerCount: 2
Fore
SplineSet
150 732 m 1
 194.34 732 l 1
 340.82 312.06 l 1
 641.14 732 l 1
 690.2 732 l 1
 355.6 260 l 1
 314.6 0 l 1
 273.6 0 l 1
 314.6 260 l 1
 150 732 l 1
EndSplineSet
Substitution2: "'c2sc' Capitals to Small Capitals in Latin lookup 17 subtable" y.smcp
EndChar

StartChar: AE
Encoding: 134 198 59
Width: 904
VWidth: 0
Flags: HW
LayerCount: 2
Fore
SplineSet
30 0 m 1
 473.5 594.76 l 2
 557.94 709.06 602.86 735.3 703.68 732 c 1
 986.36 719.96 l 1
 981.98 690.66 l 1
 696.96 690.66 l 2
 604.08 690.66 608 654.76 598.04 596.08 c 1
 563.72 382.48 l 1
 892.38 375.78 l 1
 887.34 346.48 l 1
 557.32 339.78 l 1
 522.36 122.32 l 2
 509.74 43.58 558.26 37.32 604.42 37.32 c 2
 878.42 37.32 l 1
 873.7 8.7 l 1
 603.3 -3.68 l 2
 537.96 -6.36 464.72 14.46 481.36 121 c 2
 500.66 244.52 l 1
 261.38 244.52 l 1
 78.7 0 l 1
 30 0 l 1
290.56 285.52 m 1
 507.72 285.52 l 1
 566.36 651.22 l 1
 290.56 285.52 l 1
EndSplineSet
EndChar

StartChar: Ccedilla
Encoding: 135 199 60
Width: 568
VWidth: 0
Flags: HW
LayerCount: 2
Fore
SplineSet
116.32 373.28 m 0
 153.34 604.64 215.02 740 416.66 740 c 0
 468.66 740 570.18 726.96 638.18 713.96 c 1
 633.8 684.66 l 1
 625.66 685.68 505.3 699.68 412.28 699 c 0
 296.56 698.66 203.36 654.16 158 366 c 0
 124.72 160.44 165.9 38.06 306 35 c 0
 390.26 33.98 484.98 42.24 533.26 45.64 c 1
 529.22 16.34 l 1
 452.8 -0.0599999 357.76 -6 301.34 -6 c 0
 114.98 -6 84.36 173.58 116.32 373.28 c 0
192.3 -172.34 m 1
 195 -155.14 l 1
 235.48 -146.74 l 2
 282.32 -138.74 306.5 -120.54 318.44 -36.34 c 1
 327.96 -36.68 352.44 -36.34 352.44 -36.34 c 1
 336.44 -137.02 312.08 -172.34 230.1 -172.34 c 2
 192.3 -172.34 l 1
EndSplineSet
Substitution2: "'c2sc' Capitals to Small Capitals in Latin lookup 17 subtable" ccedilla.smcp
EndChar

StartChar: Eth
Encoding: 144 208 61
Width: 679
VWidth: 0
Flags: HW
LayerCount: 2
Fore
SplineSet
70.98 359.2 m 1
 75.36 386.8 l 1
 140.36 386.8 l 1
 195 731.66 l 1
 195 732 433.74 732 454.14 732 c 1
 679.8 732 682.44 497.54 656.48 357.72 c 0
 620.14 158.58 529.12 0 342.76 0 c 2
 79 0 l 1
 135.98 359.2 l 1
 70.98 359.2 l 1
126.72 42.02 m 1
 346.84 42.02 l 2
 511.16 42.02 590.48 215.66 615.14 364 c 0
 652.42 589.1 589.26 691 446.76 691 c 2
 229.28 691 l 1
 181.36 386.8 l 1
 333.56 386.8 l 1
 329.18 359.2 l 1
 176.98 359.2 l 1
 126.72 42.02 l 1
EndSplineSet
Substitution2: "'c2sc' Capitals to Small Capitals in Latin lookup 17 subtable" eth.smcp
EndChar

StartChar: Oslash
Encoding: 152 216 76
Width: 678
VWidth: 0
Flags: HW
LayerCount: 2
Fore
SplineSet
79.56 0 m 1
 131.66 65.46 l 1
 99 117.14 91.64 208.44 115.96 362.98 c 0
 169.96 705.98 270 737 443.02 737 c 0
 523.62 737 589.92 729 629.62 686.08 c 1
 666.22 732 l 1
 698.84 732 l 1
 645.78 665.92 l 1
 679.12 612.24 687.14 515.3 662.16 356.38 c 0
 611.84 33.38 510.76 -4 333.14 -4 c 0
 251.56 -4 188.2 3 148.48 44.96 c 1
 112.18 0 l 1
 79.56 0 l 1
156.96 361 m 0
 136 228.6 137.32 148.72 161.56 101.76 c 1
 602.08 652.82 l 1
 569.1 692.36 513.18 696 442.34 696 c 0
 299.44 696 207.92 685.08 156.96 361 c 0
176.02 79.56 m 1
 207 44.32 262.9 37 339.76 37 c 0
 500.9 37 576.88 80.98 621.16 361 c 0
 643.12 499.78 640.14 582 616.88 629.96 c 1
 176.02 79.56 l 1
EndSplineSet
Substitution2: "'c2sc' Capitals to Small Capitals in Latin lookup 17 subtable" oslash.smcp
EndChar

StartChar: ae
Encoding: 166 230 88
Width: 942
VWidth: 0
Flags: HW
LayerCount: 2
Fore
SplineSet
50.34 277.64 m 0
 90.68 505.64 187.96 531 269.96 541 c 0
 334.6 549 448.58 523.42 506.94 481.8 c 1
 543.28 519.72 597.94 541 685.18 541 c 0
 811.18 541 889.2 504 874.2 388 c 0
 846.2 169 501.08 225.2 464.08 240.2 c 1
 443.74 97.06 464.06 34.64 558.82 32.98 c 0
 635.48 30.28 721.58 40.6 799.58 51.6 c 1
 794.54 22 l 1
 710.54 -1 639.1 -7 556.1 -7 c 0
 488.8 -7 447.8 17.98 429.12 70.26 c 1
 382.54 41.9 294.12 -7 204.98 -7 c 0
 90.64 -7 9.34 45.68 50.34 277.64 c 0
86.68 247.7 m 0
 64.02 103.1 97.52 33.68 199.7 33.34 c 0
 277.92 33 365.96 70.82 421.06 100.16 c 1
 412.76 145.14 416.44 204.42 429.1 278 c 0
 442.1 350.62 457.42 409.6 484.74 455.9 c 1
 436.62 476.52 348.32 511.64 270.7 500.34 c 0
 171.72 485.7 117.02 439.36 86.68 247.7 c 0
468.12 267.8 m 1
 468.12 267.8 808.22 211.72 832.54 388 c 0
 845.2 476.82 787.34 500 688.44 500 c 0
 507 500 493.72 398.4 468.12 267.8 c 1
EndSplineSet
Substitution2: "'smcp' Lowercase to Small Capitals lookup 16-1" ae.smcp
EndChar

StartChar: ccedilla
Encoding: 167 231 89
Width: 495
VWidth: 0
Flags: HW
LayerCount: 2
Fore
SplineSet
91.66 270.62 m 0
 131.04 509.76 210.38 536.68 309.66 536.68 c 3
 361.66 536.68 450.8 523.66 513.52 510 c 1
 508.82 482.4 l 1
 508.82 482.4 391.94 495.68 302.94 495.68 c 3
 222.82 495.68 166.34 470.52 131.66 262 c 0
 100.7 75.38 151.18 35.32 230.04 35.32 c 3
 322.04 35.32 447.9 52.92 447.9 52.92 c 1
 443.52 23.32 l 17
 358.52 0.32 309.72 -5.02 226.72 -5.34 c 0
 126.7 -5 55.34 48.5 91.66 270.62 c 0
124.88 -171.68 m 9
 127.58 -154.48 l 25
 168.72 -146.08 l 17
 215.22 -136.72 239.74 -119.88 251.68 -35.68 c 1
 261.2 -36.02 285.68 -35.68 285.68 -35.68 c 17
 269.68 -136.36 244.66 -171.68 162.68 -171.68 c 2
 124.88 -171.68 l 9
EndSplineSet
Substitution2: "'smcp' Lowercase to Small Capitals lookup 16-1" ccedilla.smcp
EndChar

StartChar: eth
Encoding: 176 240 98
Width: 543
VWidth: 0
Flags: HW
LayerCount: 2
Fore
SplineSet
79.66 265.92 m 0
 108.36 442.04 163.98 531 298.98 531 c 1
 380.2 531 l 2
 439.66 531 481.08 499.98 489.12 482.34 c 1
 485.42 536.26 474.38 614.96 426.88 671.76 c 1
 261 609.8 l 1
 254.58 639.44 l 1
 401.6 694.66 l 1
 361.94 728.22 309.96 747.06 240.62 747.04 c 1
 246 783 l 1
 339.32 782.34 401.98 755.42 446.66 710.8 c 1
 579.58 760.44 l 1
 587.66 730.8 l 1
 468.22 686.88 l 1
 548.56 577.08 538.8 390.3 517.86 258 c 0
 487.22 67.16 415.1 0 297.9 0 c 1
 214.98 0 l 1
 77.98 0 53.36 102.56 79.66 265.92 c 0
120.66 261.96 m 0
 90.36 74.22 138.3 41.64 221.02 42.32 c 1
 303.94 42.32 l 1
 405.46 41.98 454.16 120.42 476.86 261.96 c 0
 496.24 385.56 497.42 490 374.48 490 c 2
 294.28 490 l 1
 213.1 490 151.3 451.72 120.66 261.96 c 0
EndSplineSet
Substitution2: "'smcp' Lowercase to Small Capitals lookup 16-1" eth.smcp
EndChar

StartChar: oslash
Encoding: 184 248 105
Width: 549
VWidth: 0
Flags: HW
LayerCount: 2
Fore
SplineSet
51 0 m 1
 100.42 55.1 l 1
 72.1 97.1 69.74 170 85.06 265.26 c 0
 119.06 482.26 188.04 536 352.14 536 c 0
 418.38 536 464.7 522.36 494.72 494.76 c 1
 527.3 531 l 1
 561.62 531 l 1
 511.9 475.94 l 1
 544.9 429.94 549.26 352.34 533.26 252.72 c 0
 501.58 57.7 443.58 -4.34 273.86 -5 c 0
 200.58 -5 147.94 8.32 117.24 37.28 c 1
 83.62 0 l 1
 51 0 l 1
131 90.04 m 1
 466.82 462.84 l 1
 440.86 489.02 398.64 495 346.44 495 c 0
 229.16 495 161.02 473.02 126.06 258 c 0
 112.76 175.22 114.74 122.66 131 90.04 c 1
145.8 69.2 m 1
 171.78 40.98 216.68 36 273.88 36 c 0
 394.06 36 460.28 62.54 492.26 258 c 0
 507.24 350.82 503.6 408.72 483.66 443.68 c 1
 145.8 69.2 l 1
EndSplineSet
Substitution2: "'smcp' Lowercase to Small Capitals lookup 16-1" oslash.smcp
EndChar

StartChar: thorn
Encoding: 190 254 106
Width: 537
VWidth: 0
Flags: HW
LayerCount: 2
Fore
SplineSet
27 -270 m 1
 194 782 l 1
 235 782 l 1
 185 471 l 17
 214 490 336.2 540 404.2 540 c 3
 534.08 540 556.84 392.62 536.2 261.72 c 0
 516.58 136.64 479.36 -10 317.2 -10 c 3
 272.2 -10 175 3 115 29 c 1
 68 -270 l 1
 27 -270 l 1
120.38 58.64 m 1
 198.38 35.64 247.76 32.02 321.88 31 c 1
 412.54 31 468.9 97.06 494.86 269 c 0
 518.78 426.34 475.28 501.04 396.8 499.34 c 1
 327.5 497.98 246.96 467.06 180.96 443.06 c 1
 120.38 58.64 l 1
EndSplineSet
Substitution2: "'smcp' Lowercase to Small Capitals lookup 16-1" thorn.smcp
EndChar

StartChar: Thorn
Encoding: 158 222 113
Width: 553
VWidth: 0
Flags: HW
LayerCount: 2
Fore
SplineSet
60 0 m 1
 98 243 137 486 175 729 c 1
 216 729 l 1
 194 588 l 1
 404.2 588 l 2
 477.08 588 572.82 551.7 546.86 372.36 c 0
 517.24 166.32 414.98 150.7 336.56 150.7 c 0
 296.56 151.36 170.54 153.66 127.02 164.1 c 1
 101 0 l 1
 60 0 l 1
131.06 191.7 m 2
 341.26 191.7 l 2
 423.7 191.7 481.54 228.16 505.18 377 c 1
 528.8 529.12 451.24 546 397.48 546.66 c 1
 187.28 546.66 l 1
 131.06 191.7 l 2
EndSplineSet
Substitution2: "'c2sc' Capitals to Small Capitals in Latin lookup 17 subtable" thorn.smcp
EndChar

StartChar: uni00B5
Encoding: 117 181 114
Width: 586
VWidth: 0
Flags: HW
LayerCount: 2
Fore
SplineSet
47 -270 m 1
 115 161.66 l 1
 174 531.66 l 1
 215 531.66 l 1
 156 161.66 l 2
 144.02 87.08 182.64 32.66 258.72 32.66 c 0
 344 32.66 396.56 53.32 477.58 92.3 c 1
 547.2 531.66 l 1
 588.2 531.66 l 1
 504.2 0.66 l 1
 477.28 0.66 l 1
 473.2 62.66 l 1
 407.52 25.68 333 -8.34 252 -8.34 c 0
 196.2 -8.34 158.96 15.84 138.94 50.98 c 1
 88 -270 l 1
 47 -270 l 1
EndSplineSet
EndChar

StartChar: germandbls
Encoding: 159 223 115
Width: 555
VWidth: 0
Flags: HW
LayerCount: 2
Fore
SplineSet
60 0 m 1
 150 566 l 2
 168 682 243.62 777 394.12 777 c 3
 689.12 777 594.62 536.46 477.02 464.88 c 1
 408.28 419.76 353.24 403.74 344.56 349.36 c 1
 326.9 240.46 580.2 324.3 557.52 175.62 c 1
 550.52 127.3 l 2
 535.84 30.18 457.3 -8 373.18 -8 c 3
 305.18 -8 235.56 2.38 200.54 8.36 c 9
 204.92 38 l 17
 242.94 36.68 309.94 33 378.94 33 c 3
 468.46 33 501.16 90.02 508.5 132 c 2
 515.5 174.94 l 1
 533.78 285.32 279.86 201.92 302.86 349.98 c 0
 312.54 412.12 340.74 428.84 454.12 496.8 c 0
 490.8 519.12 529 566.68 542.26 610.68 c 0
 570.08 699.92 513.08 736 392.78 736 c 3
 286.96 736 209.66 683.96 191 566 c 2
 101 0 l 1
 60 0 l 1
EndSplineSet
Substitution2: "'smcp' Lowercase to Small Capitals lookup 16-1" germandbls.smcp
EndChar

StartChar: asciitilde
Encoding: 96 126 116
Width: 471
VWidth: 0
Flags: HW
LayerCount: 2
Fore
SplineSet
140 572 m 17
 181.04 603.02 215.66 633.4 259.42 633.4 c 3
 300.12 633.4 335.26 573.32 369.98 573.32 c 3
 408.98 573.32 447.58 603.92 474.6 621.9 c 9
 483 603 l 17
 446.72 572.72 410 537.6 364.26 537.6 c 3
 321.24 537.6 288.04 597.68 253 597.68 c 3
 214.66 597.68 187.06 574.7 147.74 552.78 c 9
 140 572 l 17
EndSplineSet
EndChar

StartChar: asciicircum
Encoding: 64 94 117
Width: 415
VWidth: 0
Flags: HW
LayerCount: 2
Fore
SplineSet
134 531 m 1
 281.9 661.34 l 1
 319.9 661.34 l 1
 412.8 531 l 1
 378.12 531 l 1
 298.4 634.1 l 1
 174.44 531 l 1
 134 531 l 1
EndSplineSet
EndChar

StartChar: grave
Encoding: 66 96 118
Width: 230
VWidth: 0
Flags: HW
LayerCount: 2
Fore
SplineSet
125 664 m 25
 171.74 664 l 25
 273.78 531 l 25
 241.08 531 l 25
 125 664 l 25
EndSplineSet
Substitution2: "'smcp' Lowercase to Small Capitals lookup 16-1" grave.smcp
EndChar

StartChar: dieresis
Encoding: 104 168 119
Width: 447
VWidth: 0
Flags: HW
LayerCount: 2
Fore
SplineSet
141.34 582 m 0
 144.02 598.12 159.14 610.22 175.26 610.22 c 0
 191.38 610.22 201.46 598.12 198.78 582 c 0
 196.1 565.88 181.98 552.78 165.86 552.78 c 0
 149.74 552.78 138.66 565.88 141.34 582 c 0
396.34 582 m 0
 399.02 598.12 414.14 610.22 430.26 610.22 c 0
 446.38 610.22 456.46 598.12 453.78 582 c 0
 451.1 565.88 436.98 552.78 420.86 552.78 c 0
 404.74 552.78 393.66 565.88 396.34 582 c 0
EndSplineSet
Substitution2: "'smcp' Lowercase to Small Capitals lookup 16-1" dieresis.smcp
EndChar

StartChar: acute
Encoding: 116 180 120
Width: 212
VWidth: 0
Flags: HW
LayerCount: 2
Fore
SplineSet
104 531 m 25
 241.24 664 l 25
 290.7 664 l 25
 136.7 531 l 25
 104 531 l 25
EndSplineSet
Substitution2: "'smcp' Lowercase to Small Capitals lookup 16-1" acute.smcp
EndChar

StartChar: cedilla
Encoding: 120 184 121
Width: 264
VWidth: 0
Flags: HW
LayerCount: 2
Fore
SplineSet
22 -173 m 9
 24.7 -155.8 l 25
 65.84 -147.4 l 17
 112.34 -138.04 136.86 -121.2 148.8 -37 c 1
 182.8 -37 l 17
 166.8 -137.68 141.78 -173 59.8 -173 c 2
 22 -173 l 9
EndSplineSet
EndChar

StartChar: exclam
Encoding: 3 33 122
Width: 245
VWidth: 0
Flags: HW
LayerCount: 2
Fore
SplineSet
84.2743 15.74 m 2
 93.8157 76.04 l 2
 95.3316 86.42 101.79 92.46 112.51 92.46 c 2
 138.47 92.46 l 2
 148.85 92.46 153.007 85.42 151.596 76.04 c 2
 142.054 15.74 l 2
 140.538 5.36 133.42 0 124.04 0 c 2
 98.08 0 l 2
 88.7 0 82.8627 6.36 84.2743 15.74 c 2
123.32 197.36 m 1
 202.3 731 l 1
 247.08 731 l 1
 156.74 197.36 l 1
 123.32 197.36 l 1
EndSplineSet
Substitution2: "'smcp' Lowercase to Small Capitals lookup 16-1" exclam.smcp
EndChar

StartChar: degree
Encoding: 112 176 123
Width: 336
VWidth: 0
Flags: HW
LayerCount: 2
Fore
SplineSet
148.66 632 m 0
 154.6 689 203.9 735 259.9 735 c 0
 315.9 735 357.6 689 351.66 632 c 0
 345.72 575 298.08 530 242.08 530 c 0
 186.08 530 142.72 575 148.66 632 c 0
173.88 632 m 1
 168.6 589.46 199.54 555.56 241.42 555.56 c 1
 283.3 555.56 321.16 589.46 326.44 632 c 1
 331.72 674.54 301.78 709.44 259.9 709.44 c 1
 218.02 709.44 179.16 674.54 173.88 632 c 1
EndSplineSet
Substitution2: "'smcp' Lowercase to Small Capitals lookup 16-1" degree.smcp
EndChar

StartChar: period
Encoding: 16 46 124
Width: 205
VWidth: 0
Flags: HW
LayerCount: 2
Fore
SplineSet
76.7143 15.74 m 2
 86.2557 76.04 l 2
 87.7716 86.42 94.2299 92.46 104.95 92.46 c 2
 130.23 92.46 l 2
 141.63 92.46 145.787 86.1 144.036 76.04 c 2
 134.494 15.74 l 2
 132.638 4.34 125.18 0 115.8 0 c 2
 90.52 0 l 2
 81.14 0 75.3027 6.36 76.7143 15.74 c 2
EndSplineSet
EndChar

StartChar: periodcentered
Encoding: 119 183 125
Width: 277
VWidth: 0
Flags: HW
LayerCount: 2
Fore
SplineSet
139.34 368.52 m 2
 143.72 395.82 l 2
 145.06 406.2 151.76 412.24 162.48 412.24 c 2
 188.42 412.24 l 2
 199.82 412.24 203.18 405.88 201.5 395.82 c 2
 197.12 368.52 l 2
 195.44 357.12 188.4 352.78 179.02 352.78 c 2
 153.08 352.78 l 2
 143.7 352.78 138 359.14 139.34 368.52 c 2
EndSplineSet
Substitution2: "'smcp' Lowercase to Small Capitals lookup 16-1" periodcentered.smcp
EndChar

StartChar: comma
Encoding: 14 44 126
Width: 203
VWidth: 0
Flags: HW
LayerCount: 2
Fore
SplineSet
65.5915 -74.8 m 1
 67.9186 -59.96 l 0
 88.0186 -60.3 90.9796 -47.22 92.2868 -39.52 c 2
 98.56 0 l 1
 90.86 0 l 2
 81.48 0 75.3027 6.02 77.1587 17.08 c 2
 86.3601 76.36 l 2
 88.3211 88.42 95.1188 94.12 105.839 94.12 c 2
 129.779 94.12 l 2
 141.839 94.12 144.316 86.74 142.8 76.36 c 2
 126.332 -28.16 l 2
 117.051 -86.86 65.5915 -74.8 65.5915 -74.8 c 1
EndSplineSet
EndChar

StartChar: bullet
Encoding: 192 8226 127
Width: 327
VWidth: 0
Flags: HW
LayerCount: 2
Fore
SplineSet
139 357.5 m 2
 145.72 404.5 l 2
 148.72 425.5 162.72 439.5 184.72 439.5 c 2
 225.72 439.5 l 2
 250.72 439.5 257.72 426.5 254.72 404.5 c 2
 248 357.5 l 2
 244 333.5 227 325.5 207 325.5 c 2
 166 325.5 l 2
 146 325.5 136 337.5 139 357.5 c 2
EndSplineSet
Substitution2: "'smcp' Lowercase to Small Capitals lookup 16-1" bullet.smcp
EndChar

StartChar: quoteleft
Encoding: 193 8216 128
Width: 203
VWidth: 0
Flags: HW
LayerCount: 2
Fore
SplineSet
161.458 574.72 m 2
 177.43 677.02 l 2
 188.332 744.72 246.942 730.66 246.942 730.66 c 1
 244.171 714.14 l 0
 221.175 715.14 217.456 698.74 216.044 690.04 c 2
 210.817 656.1 l 1
 219.517 656.1 l 2
 229.897 656.1 237.629 649.42 235.564 636.36 c 2
 225.919 574.72 l 2
 223.749 560.66 215.846 553.96 203.126 553.96 c 2
 176.166 553.96 l 2
 162.106 553.96 159.498 563.34 161.458 574.72 c 2
EndSplineSet
Substitution2: "'smcp' Lowercase to Small Capitals lookup 16-1" quoteleft.smcp
EndChar

StartChar: quoteright
Encoding: 194 8217 129
Width: 203
VWidth: 0
Flags: HW
LayerCount: 2
Fore
SplineSet
161.815 554.96 m 1
 164.587 571.82 l 0
 187.582 570.82 190.856 586.56 192.268 595.26 c 2
 197.6 629.52 l 1
 188.9 629.52 l 2
 178.52 629.52 170.683 635.88 172.748 648.94 c 2
 183.499 711.24 l 2
 185.782 725.299 193.231 732 205.951 732 c 2
 232.251 732 l 2
 246.311 732 249.975 722.619 247.959 711.24 c 2
 230.882 608.28 l 2
 219.98 540.58 161.815 554.96 161.815 554.96 c 1
EndSplineSet
Substitution2: "'smcp' Lowercase to Small Capitals lookup 16-1" quoteright.smcp
EndChar

StartChar: quotesinglbase
Encoding: 195 8218 130
Width: 203
VWidth: 0
Flags: HW
LayerCount: 2
Fore
SplineSet
61.8576 -75.56 m 1
 64.6292 -59.04 l 0
 87.6248 -60.04 91.0041 -43.3 92.4156 -34.6 c 2
 97.7479 -0.34 l 1
 89.0479 -0.34 l 2
 78.6679 -0.34 70.8306 6.02 72.896 19.08 c 2
 82.8812 80.72 l 2
 85.0517 94.78 92.7188 102.14 105.439 102.14 c 2
 131.739 102.14 l 2
 145.799 102.14 149.302 92.1 147.342 80.72 c 2
 131.03 -21.58 l 2
 120.128 -89.28 61.8576 -75.56 61.8576 -75.56 c 1
EndSplineSet
Substitution2: "'smcp' Lowercase to Small Capitals lookup 16-1" quotesinglbase.smcp
EndChar

StartChar: quotedblleft
Encoding: 196 8220 131
Width: 309
VWidth: 0
Flags: HW
LayerCount: 2
Fore
SplineSet
155.514 574.72 m 2
 171.486 677.02 l 2
 182.389 744.72 239.999 730.66 239.999 730.66 c 1
 237.566 714.14 l 0
 214.571 715.14 211.512 698.74 210.101 690.04 c 2
 204.873 656.1 l 1
 212.913 656.1 l 2
 223.293 656.1 231.686 649.42 229.62 636.36 c 2
 219.974 574.72 l 2
 217.804 560.66 209.242 553.96 196.522 553.96 c 2
 170.222 553.96 l 2
 156.162 553.96 153.554 563.34 155.514 574.72 c 2
273.274 574.72 m 2
 289.246 677.02 l 2
 300.148 744.72 358.418 730.66 358.418 730.66 c 1
 355.986 714.14 l 0
 332.991 715.14 329.272 698.74 327.86 690.04 c 2
 322.633 656.1 l 1
 331.333 656.1 l 2
 341.713 656.1 349.445 649.42 347.38 636.36 c 2
 337.734 574.72 l 2
 335.564 560.66 327.662 553.96 314.942 553.96 c 2
 288.642 553.96 l 2
 274.582 553.96 271.314 563.34 273.274 574.72 c 2
EndSplineSet
Substitution2: "'smcp' Lowercase to Small Capitals lookup 16-1" quotedblleft.smcp
EndChar

StartChar: quotedblright
Encoding: 197 8221 132
Width: 308
VWidth: 0
Flags: HW
LayerCount: 2
Fore
SplineSet
155.927 554.96 m 1
 158.699 571.82 l 0
 181.694 570.82 184.308 586.56 185.72 595.26 c 2
 191.052 629.52 l 1
 183.012 629.52 l 2
 172.632 629.52 164.795 635.88 166.86 648.94 c 2
 176.951 711.24 l 2
 179.12 725.3 186.683 732 199.403 732 c 2
 225.703 732 l 2
 239.763 732 243.371 722.62 241.411 711.24 c 2
 224.994 608.28 l 2
 214.092 540.58 155.927 554.96 155.927 554.96 c 1
273.686 554.96 m 1
 276.458 571.82 l 0
 299.454 570.82 302.728 586.56 304.14 595.26 c 2
 309.472 629.52 l 1
 300.772 629.52 l 2
 290.392 629.52 282.555 635.88 284.62 648.94 c 2
 294.711 711.24 l 2
 296.88 725.3 304.443 732 317.163 732 c 2
 344.123 732 l 2
 358.183 732 361.131 722.62 359.171 711.24 c 2
 342.754 608.28 l 2
 331.852 540.58 273.686 554.96 273.686 554.96 c 1
EndSplineSet
Substitution2: "'smcp' Lowercase to Small Capitals lookup 16-1" quotedblright.smcp
EndChar

StartChar: quotedblbase
Encoding: 198 8222 133
Width: 308
VWidth: 0
Flags: HW
LayerCount: 2
Fore
SplineSet
55.7829 -73.9 m 1
 58.5551 -57.38 l 0
 81.5506 -58.38 84.2693 -41.64 85.6808 -32.94 c 2
 91.0131 1.32 l 1
 82.9731 1.32 l 2
 72.5931 1.32 64.7558 7.68 66.8213 20.74 c 2
 76.8071 82.38 l 2
 78.9769 96.44 86.644 103.8 99.364 103.8 c 2
 125.664 103.8 l 2
 139.724 103.8 143.227 93.76 141.266 82.38 c 2
 124.955 -19.92 l 2
 114.053 -87.62 55.7829 -73.9 55.7829 -73.9 c 1
173.543 -73.9 m 1
 176.314 -57.38 l 0
 199.31 -58.38 202.689 -41.64 204.101 -32.94 c 2
 209.433 1.32 l 1
 200.733 1.32 l 2
 190.353 1.32 182.516 7.68 184.581 20.74 c 2
 194.566 82.38 l 2
 196.736 96.44 204.404 103.8 217.124 103.8 c 2
 244.084 103.8 l 2
 258.144 103.8 260.987 93.76 259.026 82.38 c 2
 242.715 -19.92 l 2
 231.813 -87.62 173.543 -73.9 173.543 -73.9 c 1
EndSplineSet
Substitution2: "'smcp' Lowercase to Small Capitals lookup 16-1" quotedblbase.smcp
EndChar

StartChar: colon
Encoding: 28 58 134
Width: 209
VWidth: 0
Flags: HW
LayerCount: 2
Fore
SplineSet
80.0143 15.74 m 2
 89.5557 76.04 l 2
 91.0716 86.42 97.5299 92.46 108.25 92.46 c 2
 133.53 92.46 l 2
 144.93 92.46 149.087 86.1 147.336 76.04 c 2
 137.794 15.74 l 2
 135.938 4.34 128.48 0 119.1 0 c 2
 93.82 0 l 2
 84.44 0 78.6027 6.36 80.0143 15.74 c 2
146.142 453.3 m 2
 155.788 514.26 l 2
 157.305 524.64 163.762 530.68 174.482 530.68 c 2
 199.762 530.68 l 2
 211.162 530.68 215.32 524.32 213.568 514.26 c 2
 203.922 453.3 l 2
 202.067 441.9 194.373 438.22 184.993 438.22 c 2
 159.713 438.22 l 2
 150.333 438.22 144.731 443.92 146.142 453.3 c 2
EndSplineSet
EndChar

StartChar: semicolon
Encoding: 29 59 135
Width: 206
VWidth: 0
Flags: HW
LayerCount: 2
Fore
SplineSet
65.5915 -74.8 m 1
 67.9186 -59.96 l 0
 88.0186 -60.3 90.9796 -47.22 92.2868 -39.52 c 2
 98.56 0 l 1
 90.86 0 l 2
 81.48 0 75.6427 7.72 77.1587 17.08 c 2
 86.3601 76.36 l 2
 87.9811 87.06 95.4587 94.12 105.839 94.12 c 2
 129.779 94.12 l 2
 140.819 94.12 144.316 86.74 142.8 76.36 c 2
 126.332 -28.16 l 2
 117.051 -86.86 65.5915 -74.8 65.5915 -74.8 c 1
146.822 453.64 m 2
 156.468 514.6 l 2
 157.985 524.98 164.442 531.02 175.162 531.02 c 2
 200.442 531.02 l 2
 211.842 531.02 216 524.66 214.248 514.6 c 2
 204.602 453.64 l 2
 202.747 442.24 195.393 438.56 186.013 438.56 c 2
 160.733 438.56 l 2
 151.353 438.56 145.411 444.26 146.822 453.64 c 2
EndSplineSet
EndChar

StartChar: quotedbl
Encoding: 4 34 136
Width: 318
VWidth: 0
Flags: HW
LayerCount: 2
Fore
SplineSet
132.48 531 m 1
 145.12 665 l 1
 156.12 732 l 1
 198.12 732 l 1
 187.12 665 l 1
 158.76 531 l 1
 132.48 531 l 1
244.38 531 m 1
 257.02 665 l 1
 268.02 732 l 1
 310.02 732 l 1
 299.02 665 l 1
 270.66 531 l 1
 244.38 531 l 1
EndSplineSet
Substitution2: "'smcp' Lowercase to Small Capitals lookup 16-1" quotedbl.smcp
EndChar

StartChar: exclamdown
Encoding: 97 161 137
Width: 249
VWidth: 0
Flags: HW
LayerCount: 2
Fore
SplineSet
45 -269.66 m 1
 136.7 264.64 l 1
 170.12 264.64 l 1
 92.5 -269.66 l 1
 45 -269.66 l 1
143.04 386.32 m 2
 153.02 446.26 l 2
 154.615 456.262 161.74 460.34 171.12 460.68 c 1
 195.7 460.68 l 1
 204.4 460.34 210.583 454.598 209.1 445.24 c 2
 199.12 386.32 l 1
 197.44 376.96 191.76 370.6 181.72 369.24 c 1
 155.42 369.24 l 1
 145.72 369.58 142.04 376.94 143.04 386.32 c 2
EndSplineSet
Substitution2: "'case' Case-Sensitive Forms lookup 1-1" exclamdown.alt
Substitution2: "'smcp' Lowercase to Small Capitals lookup 16-1" exclamdown.smcp
EndChar

StartChar: zero
Encoding: 18 48 138
Width: 646
VWidth: 0
Flags: W
HStem: 0 41<176.437 485.13> 691 41<276.722 582.812>
DStem2: 105 162 146 162 0.15733 0.987546<-67.07 495.993> 547.2 162 588.2 162 0.15733 0.987546<-80.0386 487.751>
LayerCount: 2
Fore
SplineSet
105 162 m 10
 170 570 l 2
 187.34 680.38 267.24 732 367 732 c 2
 511.2 732 l 2
 632.86 732 666.86 656.92 653.2 570 c 10
 588.2 162 l 18
 569.2 43 497.26 0 395.2 0 c 2
 251 0 l 2
 160 0 86 42 105 162 c 10
146 162 m 2
 132 70.3398 182 41 257.72 41 c 10
 401.92 41 l 18
 492.32 41 535.56 87.54 547.2 162 c 2
 612.2 570 l 2
 624.5 648.78 593.34 691 504.82 691 c 2
 360.62 691 l 2
 275.02 691 222.62 643.72 211 570 c 2
 146 162 l 2
EndSplineSet
Substitution2: "'dnom' Denominators lookup 0 subtable" zero.denominator
Substitution2: "'sups' Superscript lookup 2 subtable" zerosuperior
Substitution2: "'onum' Oldstyle Figures in Latin lookup 5-1" zero.oldstyle
Substitution2: "'tnum' Tabular Numbers in Latin lookup 7-1" zero.tnum
Substitution2: "'numr' Numerators lookup 9 subtable" zero.numerator
Substitution2: "'zero' Slashed Zero lookup 20-1" uni0338
Substitution2: "'sinf' Scientific Inferiors lookup 3-1" zeroinferior
Substitution2: "'frac' Diagonal Fractions lookup 13-1" zero.numerator
Substitution2: "'smcp' Lowercase to Small Capitals lookup 16-1" zero.smcp
EndChar

StartChar: one
Encoding: 19 49 139
Width: 390
VWidth: 0
Flags: W
HStem: 0 21G<236.38 280.495> 0 21G<236.38 280.495> 614.46 27.92<139.36 210.195> 712 20G<304.841 391.38>
VStem: 134 257.38
DStem2: 236.38 0 277.38 0 0.153883 0.988089<6.30919 688.513>
LayerCount: 2
Fore
SplineSet
134 614.46 m 0xb8
 139.36 642.38 l 3
 239.36 642.38 352.38 732 352.38 732 c 1
 391.38 732 l 1
 277.38 0 l 1
 236.38 0 l 1
 344.98 679.9 l 1
 315.4 659.28 230 614.46 134 614.46 c 0xb8
EndSplineSet
Substitution2: "'dnom' Denominators lookup 0 subtable" one.denominator
Substitution2: "'sups' Superscript lookup 2 subtable" onesuperior
Substitution2: "'onum' Oldstyle Figures in Latin lookup 5-1" one.oldstyle
Substitution2: "'tnum' Tabular Numbers in Latin lookup 7-1" one.tnum
Substitution2: "'numr' Numerators lookup 9 subtable" one.numerator
Substitution2: "'sinf' Scientific Inferiors lookup 3-1" oneinferior
Substitution2: "'frac' Diagonal Fractions lookup 13-1" one.numerator
Substitution2: "'smcp' Lowercase to Small Capitals lookup 16-1" one.smcp
EndChar

StartChar: two
Encoding: 20 50 140
Width: 581
VWidth: 0
Flags: W
HStem: 0 41<133.48 525.5> 700 42<234.258 522.368> 700 28.6<155.32 347.648>
LayerCount: 2
Fore
SplineSet
47 0 m 25xc0
 53.38 38.3 l 17
 173.24 119.34 541.56 366.68 568.88 532.68 c 0
 588.8 653.6 537.04 700 430.84 700 c 2xc0
 150.94 700 l 2
 155.32 728.6 l 1xa0
 259.98 741.6 370.8 742 442.2 742 c 3
 585.78 742 628.46 649.22 611.2 530.68 c 0
 584.96 344.34 201.02 86.12 133.48 41 c 9
 532.22 41 l 25
 525.5 0 l 25
 47 0 l 25xc0
EndSplineSet
Substitution2: "'dnom' Denominators lookup 0 subtable" two.denominator
Substitution2: "'sups' Superscript lookup 2 subtable" twosuperior
Substitution2: "'onum' Oldstyle Figures in Latin lookup 5-1" two.oldstyle
Substitution2: "'tnum' Tabular Numbers in Latin lookup 7-1" two.tnum
Substitution2: "'numr' Numerators lookup 9 subtable" two.numerator
Substitution2: "'sinf' Scientific Inferiors lookup 3-1" twoinferior
Substitution2: "'frac' Diagonal Fractions lookup 13-1" two.numerator
Substitution2: "'smcp' Lowercase to Small Capitals lookup 16-1" two.smcp
EndChar

StartChar: three
Encoding: 21 51 141
Width: 584
VWidth: 0
Flags: W
HStem: -7 42<113.531 411.791> 9.78 25.22<43.7 126.266> 343.16 43.32<170.307 456.565> 350.16 28.96<159.34 372.573> 693 41<241.714 515.103> 693 24.88<144.96 228.147>
DStem2: 483.18 164.3 526.18 161 0.155771 0.987793<-81.1458 129.145 269.826 487.296>
LayerCount: 2
Fore
SplineSet
39 9.78 m 1x40
 43.7 35 l 1x40
 325.2 35 l 2
 393.66 35 466.9 64.3 483.18 164.3 c 2
 492.52 223.3 l 2
 508.52 323.3 432.8 341.16 376.82 343.16 c 2xa0
 154.62 350.16 l 2
 159.34 379.12 l 1x10
 383.54 386.48 l 1
 458.48 388.16 527.2 425.8 539.18 502.64 c 2
 549.52 571.64 l 2
 564.16 662.82 507.56 693 435.76 693 c 2x28
 141.26 693 l 1
 144.96 717.88 l 1x04
 217.5 735.68 330.5 736 447.5 734 c 0
 558.68 732 605.52 662.02 590.52 569 c 2
 580.18 500 l 2
 564.54 403.16 489.94 369.72 456.54 364.66 c 1
 489.58 354.22 550.16 314.48 535.52 220 c 1
 526.18 161 l 2
 509.18 52 444.18 -7 322.18 -7 c 0x88
 208.18 -7 92.3 -6.04 39 9.78 c 1x40
EndSplineSet
Substitution2: "'dnom' Denominators lookup 0 subtable" three.denominator
Substitution2: "'sups' Superscript lookup 2 subtable" threesuperior
Substitution2: "'onum' Oldstyle Figures in Latin lookup 5-1" three.oldstyle
Substitution2: "'tnum' Tabular Numbers in Latin lookup 7-1" three.tnum
Substitution2: "'numr' Numerators lookup 9 subtable" three.numerator
Substitution2: "'sinf' Scientific Inferiors lookup 3-1" threeinferior
Substitution2: "'frac' Diagonal Fractions lookup 13-1" three.numerator
Substitution2: "'smcp' Lowercase to Small Capitals lookup 16-1" three.smcp
EndChar

StartChar: four
Encoding: 22 52 142
Width: 582
VWidth: 0
Flags: W
HStem: 203.5 42.36<116.98 453.58 502.32 545.093> 216.56 29.3<538.447 587.94> 712 20G<429.804 494.88>
DStem2: 55 232.58 116.98 245.86 0.615907 0.787819<48.6361 633.927> 421.94 2 463.96 2 0.15587 0.987778<6.54964 203.969 253.408 526.68>
LayerCount: 2
Fore
SplineSet
55 232.58 m 1xa0
 445.44 732 l 1
 494.88 732 l 1
 116.98 245.86 l 1xa0
 460.3 245.86 l 1x60
 495.94 472 l 1
 528.14 547 l 1
 549.96 547 l 1
 502.32 245.86 l 1xa0
 592.32 245.86 l 1
 587.94 216.56 l 1x60
 495.6 203.5 l 1
 463.96 2 l 1
 421.94 2 l 1
 453.58 203.5 l 1
 69.8 203.5 l 1
 55 232.58 l 1xa0
EndSplineSet
Substitution2: "'dnom' Denominators lookup 0 subtable" four.denominator
Substitution2: "'sups' Superscript lookup 2 subtable" foursuperior
Substitution2: "'onum' Oldstyle Figures in Latin lookup 5-1" four.oldstyle
Substitution2: "'tnum' Tabular Numbers in Latin lookup 7-1" four.tnum
Substitution2: "'numr' Numerators lookup 9 subtable" four.numerator
Substitution2: "'sinf' Scientific Inferiors lookup 3-1" fourinferior
Substitution2: "'frac' Diagonal Fractions lookup 13-1" four.numerator
Substitution2: "'smcp' Lowercase to Small Capitals lookup 16-1" four.smcp
EndChar

StartChar: five
Encoding: 23 53 143
Width: 618
VWidth: 0
Flags: W
HStem: -4.34 42.7<172.481 455.574> 10.42 27.94<83.38 249.268> 395.1 41.34<227.542 518.649> 691 41<248.92 632.6>
DStem2: 124 287.1 163.3 287.1 0.160533 0.98703<6.30896 69.3373 103.752 295.805> 529.98 167.66 570.32 165.66 0.157068 0.987588<-74.1529 180.969>
LayerCount: 2
Fore
SplineSet
79 10.42 m 1x70
 83.38 38.36 l 1x70
 382.76 38.36 l 2
 452.42 38.36 517.38 88.74 529.98 167.66 c 2
 545.66 266.4 l 2
 552.64 309.26 559.32 395.1 446.92 395.1 c 1
 294.6 395.1 l 2
 236.46 395.1 172.96 349.02 163.3 287.1 c 1
 124 287.1 l 1
 216.32 732 l 17
 639.32 732 l 1
 632.6 691 l 1
 248.92 691 l 25
 184.72 382.34 l 1
 198.1 398.7 239.36 435.42 302.76 436.44 c 0
 368.62 438.14 419.68 436.1 450 436.1 c 0
 558.82 436.1 601.66 366.42 586.66 268.4 c 2
 570.32 165.66 l 2
 548.32 28.66 452.52 -4 380.32 -4.34 c 1xb0
 255.64 -4.68 169.4 -4 79 10.42 c 1x70
EndSplineSet
Substitution2: "'dnom' Denominators lookup 0 subtable" five.denominator
Substitution2: "'sups' Superscript lookup 2 subtable" fivesuperior
Substitution2: "'onum' Oldstyle Figures in Latin lookup 5-1" five.oldstyle
Substitution2: "'tnum' Tabular Numbers in Latin lookup 7-1" five.tnum
Substitution2: "'numr' Numerators lookup 9 subtable" five.numerator
Substitution2: "'sinf' Scientific Inferiors lookup 3-1" fiveinferior
Substitution2: "'frac' Diagonal Fractions lookup 13-1" five.numerator
Substitution2: "'smcp' Lowercase to Small Capitals lookup 16-1" five.smcp
EndChar

StartChar: six
Encoding: 24 54 144
Width: 630
VWidth: 0
Flags: W
HStem: -0.66 39.98<202.409 468.079> 371.16 41.66<231.445 520.369> 697 41<297.262 556.941> 697 28.6<438.3 627.48>
DStem2: 523.56 148.72 564.54 148 0.156617 0.987659<-74.8241 187.658>
LayerCount: 2
Fore
SplineSet
124 384 m 0xe0
 165.34 644.38 263.06 738 352 738 c 0xe0
 453 738 563.36 734.64 631.86 725.6 c 1
 627.48 697 l 1xd0
 353.66 697 l 2
 240.6 697 184 500.9 167.02 398.42 c 1
 254.02 408.42 365.62 412.48 439.62 412.82 c 0
 573.96 413.5 594.86 338.96 583.22 265.8 c 2
 564.54 148 l 2
 546.54 36 483.44 -0.66 389.44 -0.66 c 2
 257.62 -0.66 l 2
 153.38 -0.66 75.32 76.92 124 384 c 0xe0
162.64 371.16 m 1
 140.02 229.44 130.64 39.32 259.68 39.32 c 2
 388.88 39.32 l 2
 441.02 39.32 508.6 55.94 523.56 148.72 c 2
 541.24 261.18 l 2
 555.86 351.22 515.04 371.16 438.18 371.16 c 2
 162.64 371.16 l 1
EndSplineSet
Substitution2: "'dnom' Denominators lookup 0 subtable" six.denominator
Substitution2: "'sups' Superscript lookup 2 subtable" sixsuperior
Substitution2: "'onum' Oldstyle Figures in Latin lookup 5-1" six.oldstyle
Substitution2: "'tnum' Tabular Numbers in Latin lookup 7-1" six.tnum
Substitution2: "'numr' Numerators lookup 9 subtable" six.numerator
Substitution2: "'sinf' Scientific Inferiors lookup 3-1" sixinferior
Substitution2: "'frac' Diagonal Fractions lookup 13-1" six.numerator
Substitution2: "'smcp' Lowercase to Small Capitals lookup 16-1" six.smcp
EndChar

StartChar: seven
Encoding: 25 55 145
Width: 542
VWidth: 0
Flags: W
HStem: 0 21G<194.02 252.636> 0 21G<194.02 252.636> 691 41<140.72 548.1>
DStem2: 194.02 0 242.42 0 0.454896 0.890545<22.017 776.436>
LayerCount: 2
Fore
SplineSet
134 691 m 1xa0
 140.72 732 l 1
 585.86 732 l 1
 600.24 700.5 l 1
 242.42 0 l 1
 194.02 0 l 1
 548.1 691 l 1
 134 691 l 1xa0
EndSplineSet
Substitution2: "'dnom' Denominators lookup 0 subtable" seven.denominator
Substitution2: "'sups' Superscript lookup 2 subtable" sevensuperior
Substitution2: "'onum' Oldstyle Figures in Latin lookup 5-1" seven.oldstyle
Substitution2: "'tnum' Tabular Numbers in Latin lookup 7-1" seven.tnum
Substitution2: "'numr' Numerators lookup 9 subtable" seven.numerator
Substitution2: "'sinf' Scientific Inferiors lookup 3-1" seveninferior
Substitution2: "'frac' Diagonal Fractions lookup 13-1" seven.numerator
Substitution2: "'smcp' Lowercase to Small Capitals lookup 16-1" seven.smcp
EndChar

StartChar: percent
Encoding: 7 37 146
Width: 977
VWidth: 0
Flags: HW
LayerCount: 2
Fore
SplineSet
115 474 m 2
 136 607 l 2
 149 691.32 179.94 732 284.34 732 c 2
 385.34 732 l 2
 479.26 732 506.34 694.04 493 607 c 2
 472 474 l 18
 458.32 386.28 427.34 349 325.32 349 c 2
 224.32 349 l 2
 134.14 349 102 389.34 115 474 c 2
147 474 m 2
 135.04 400.58 160.26 381 227.72 381 c 2
 328.72 381 l 2
 398.24 381 428.04 398.94 440 474 c 10
 461 607 l 2
 471.64 675.14 457.08 700 381.28 700 c 2
 280.28 700 l 2
 208.42 700 179.62 681.04 168 607 c 2
 147 474 l 2
225 0 m 1
 779 732 l 1
 817 732 l 1
 263 0 l 1
 225 0 l 1
557.92 126.98 m 2
 578.92 259.98 l 2
 591.92 344.3 621.54 384.98 725.94 384.98 c 2
 826.94 384.98 l 2
 920.86 384.98 949.26 347.02 935.92 259.98 c 2
 914.92 126.98 l 18
 901.24 39.26 869.26 1.98 767.24 1.98 c 2
 666.24 1.98 l 2
 576.06 1.98 544.92 42.32 557.92 126.98 c 2
589.92 126.98 m 2
 577.96 53.56 602.18 33.98 669.64 33.98 c 2
 770.64 33.98 l 2
 840.16 33.98 870.96 51.92 882.92 126.98 c 10
 903.92 259.98 l 2
 914.56 328.12 899 352.98 823.2 352.98 c 2
 722.2 352.98 l 2
 650.34 352.98 622.54 334.02 610.92 259.98 c 2
 589.92 126.98 l 2
EndSplineSet
Substitution2: "'smcp' Lowercase to Small Capitals lookup 16-1" percent.smcp
EndChar

StartChar: nine
Encoding: 27 57 147
Width: 630
VWidth: 0
Flags: W
HStem: -3.96 41<159.121 421.258> 8.44 28.6<90.38 280.962> 321.22 41.66<197.457 481.228> 694.72 39.98<249.728 519.106>
DStem2: 134.64 471.54 175.3 468.24 0.156617 0.987659<-66.5847 195.77>
LayerCount: 2
Fore
SplineSet
86 8.44 m 1x70
 90.38 37.04 l 1x70
 364.2 37.04 l 2
 479.24 37.04 533.86 233.14 550.84 335.62 c 1
 463.84 325.62 347.62 321.56 273.62 321.22 c 0
 139.28 320.54 123 398.38 134.64 471.54 c 2
 153.32 589.34 l 2
 171.32 701.34 243.66 734.7 337.66 734.7 c 2
 464.2 734.7 l 2
 568.44 734.7 643.2 651.18 594.52 344.1 c 0
 553.18 83.72 455.46 -3.96 366.52 -3.96 c 0xb0
 265.52 -3.96 159.6 -2.64 86 8.44 c 1x70
175.3 468.24 m 2
 160.68 378.2 211.4 362.88 282.98 362.88 c 2
 555.22 362.88 l 1
 577.84 504.6 589.86 694.72 461.48 694.72 c 2
 331.62 694.72 l 2
 279.48 694.72 207.28 678.1 192.98 585.32 c 2
 175.3 468.24 l 2
EndSplineSet
Substitution2: "'dnom' Denominators lookup 0 subtable" nine.denominator
Substitution2: "'sups' Superscript lookup 2 subtable" ninesuperior
Substitution2: "'onum' Oldstyle Figures in Latin lookup 5-1" nine.oldstyle
Substitution2: "'tnum' Tabular Numbers in Latin lookup 7-1" nine.tnum
Substitution2: "'numr' Numerators lookup 9 subtable" nine.numerator
Substitution2: "'sinf' Scientific Inferiors lookup 3-1" nineinferior
Substitution2: "'frac' Diagonal Fractions lookup 13-1" nine.numerator
Substitution2: "'smcp' Lowercase to Small Capitals lookup 16-1" nine.smcp
EndChar

StartChar: eight
Encoding: 26 56 148
Width: 639
VWidth: 0
Flags: W
HStem: 0 41<171.767 458.621> 353.5 40<217.129 515.257> 696 41<265.622 558.254>
DStem2: 99 154 139.66 151 0.153343 0.988173<-60.6951 166.848 287.917 513.816> 519.88 151 563.2 154 0.159302 0.98723<-69.9437 170.359 285.019 501.232>
LayerCount: 2
Fore
SplineSet
99 154 m 2
 114 252.66 l 2
 126 327.98 187.9 363.62 229.96 365.32 c 1
 152.08 382.7 145 452.32 153 503.62 c 2
 163.34 568.62 l 2
 184.34 702.96 255.98 737 362.38 737 c 2
 488.58 737 l 2
 596.16 737 645.86 677.96 627.54 559.38 c 2
 617.2 494.38 l 2
 610.58 451.26 573.4 388.08 510.62 380.34 c 1
 573.2 361.02 587.52 308.2 578.2 252 c 2
 563.2 154 l 2
 541.52 19.92 448.24 0 379.82 0 c 2
 254.62 0 l 2
 83.98 0 93 114.36 99 154 c 2
139.66 151 m 2
 126.7 69.9 180.42 41 261.34 41 c 2
 381.92 41 l 2
 435.44 41 506.92 67.24 519.88 151 c 2
 536.88 256 l 2
 551.16 345.34 486.76 353.5 438.8 353.5 c 2
 296.96 353.5 l 2
 250.96 353.5 168.64 331.2 156.66 256 c 2
 139.66 151 l 2
193 494 m 2
 178.7 404.56 246.24 393.5 301.36 393.5 c 2
 440.56 393.5 l 2
 529.4 393.5 568.54 451.4 575.2 494 c 2
 586.2 562 l 2
 601.84 661.8 565 696 481.86 696 c 2
 356.98 696 l 2
 256.82 696 216.98 654.44 203.34 562 c 2
 193 494 l 2
EndSplineSet
Substitution2: "'dnom' Denominators lookup 0 subtable" eight.denominator
Substitution2: "'sups' Superscript lookup 2 subtable" eightsuperior
Substitution2: "'onum' Oldstyle Figures in Latin lookup 5-1" eight.oldstyle
Substitution2: "'tnum' Tabular Numbers in Latin lookup 7-1" eight.tnum
Substitution2: "'numr' Numerators lookup 9 subtable" eight.numerator
Substitution2: "'sinf' Scientific Inferiors lookup 3-1" eightinferior
Substitution2: "'frac' Diagonal Fractions lookup 13-1" eight.numerator
Substitution2: "'smcp' Lowercase to Small Capitals lookup 16-1" eight.smcp
EndChar

StartChar: quotesingle
Encoding: 9 39 149
Width: 150
VWidth: 0
Flags: HW
LayerCount: 2
Fore
SplineSet
110.4 531 m 1
 123.04 665 l 1
 134.04 732 l 1
 176.04 732 l 1
 165.04 665 l 1
 136.68 531 l 1
 110.4 531 l 1
EndSplineSet
Substitution2: "'smcp' Lowercase to Small Capitals lookup 16-1" quotesingle.smcp
EndChar

StartChar: onesuperior
Encoding: 121 185 150
Width: 276
VWidth: 100
Flags: HW
LayerCount: 2
Fore
SplineSet
115 745.46 m 0
 118.04 767 l 0
 198.04 767 271.62 834 271.62 834 c 1
 303.9 834 l 1
 227.9 356 l 1
 194.94 356 l 1
 263.9 790.68 l 1
 246.9 777.68 192 745.46 115 745.46 c 0
EndSplineSet
EndChar

StartChar: twosuperior
Encoding: 114 178 151
Width: 392
VWidth: 100
Flags: HW
LayerCount: 2
Fore
SplineSet
75 356 m 25
 79.38 384.96 l 17
 155.38 438.96 387.02 590.62 404.36 699 c 0
 414.34 762.56 401.34 805.04 318.26 805.04 c 2
 142.96 805.04 l 2
 140.96 805.04 145.66 829.28 146.66 828.28 c 1
 213.66 836.28 259 838 331 838 c 3
 426.62 838 451.3 763.14 440 697.38 c 1
 419.98 571.8 182.16 419.62 144.58 388.96 c 9
 389.38 388.96 l 25
 384 356 l 25
 75 356 l 25
EndSplineSet
EndChar

StartChar: threesuperior
Encoding: 115 179 152
Width: 418
VWidth: 99
Flags: HW
LayerCount: 2
Fore
SplineSet
76 365.38 m 1
 79.38 384.62 l 1
 90.26 384.62 255.06 384.96 255.06 384.96 c 2
 322.1 384.96 361.4 405.92 372.36 475 c 2
 375.7 498 l 2
 384.36 554.94 339.18 579.86 292.96 580.86 c 2
 150.64 585.2 l 2
 154.68 608.12 l 1
 293.72 612.8 l 2
 349.94 614.8 401.7 642.74 407.7 689.34 c 2
 411.36 720.58 l 2
 421.66 784.36 382.92 800.38 331.9 800.38 c 2
 141.28 800.38 l 1
 144.32 821.6 l 1
 195.74 834.34 264.66 833.34 340.66 833 c 0
 424.26 832.66 453.32 779.96 444.32 719.96 c 2
 438.32 682.98 l 2
 430.32 629.38 379.26 598.32 353.9 593.6 c 1
 375.92 585.18 417.3 553.16 409.32 499 c 2
 404.66 469.68 l 2
 393.66 398.68 359.34 351.66 259.66 352 c 0
 185.66 352 121.42 352.64 76 365.38 c 1
EndSplineSet
EndChar

StartChar: ordmasculine
Encoding: 122 186 153
Width: 374
VWidth: 0
Flags: HW
LayerCount: 2
Fore
SplineSet
83 284.2 m 1
 87.38 312.5 l 1
 375.9 312.5 l 1
 371.52 284.2 l 1
 83 284.2 l 1
113.36 553.3 m 0
 136.02 693.6 168.72 737 296.74 737.34 c 1
 417.62 737.68 446.56 690.06 423.56 546.7 c 0
 403.56 419.38 371.86 372.66 241.46 372.66 c 1
 119.56 372.66 93.36 425.98 113.36 553.3 c 0
145 550 m 0
 125.68 427.08 153.14 404.64 246.16 404.3 c 1
 332.18 403.96 371.6 420.12 391.92 550 c 0
 412.9 681.58 392.14 705.36 293.4 705.7 c 1
 200.98 706.04 166.64 688.5 145 550 c 0
EndSplineSet
Ligature2: "'ordn' Ordinals lookup 21-1" o
Substitution2: "'smcp' Lowercase to Small Capitals lookup 16-1" ordmasculine.smcp
EndChar

StartChar: ordfeminine
Encoding: 106 170 154
Width: 348
VWidth: 0
Flags: HW
LayerCount: 2
Fore
SplineSet
72 283.18 m 1
 76.38 311.48 l 1
 363.88 311.48 l 1
 359.5 283.18 l 1
 72 283.18 l 1
109.36 563.3 m 0
 131.36 707.3 214.02 727.32 262.02 732 c 0
 317.88 737 386.54 718.34 418.88 684.36 c 9
 372.56 381 l 17
 354.4 381 l 1
 352.32 437 l 17
 324.7 404.74 271.02 377 221.02 377 c 3
 163.02 377 87.36 415.3 109.36 563.3 c 0
140.32 555.24 m 0
 125 458.64 163.66 408.98 225.04 408.98 c 3
 271.04 408.98 311.98 432.3 355.66 464.94 c 1
 386.58 672.2 l 1
 365.4 686.82 314.4 703.72 266.62 700.02 c 0
 197.98 695.64 155.32 652.6 140.32 555.24 c 0
EndSplineSet
Ligature2: "'ordn' Ordinals lookup 21-1" a
Substitution2: "'smcp' Lowercase to Small Capitals lookup 16-1" ordfeminine.smcp
EndChar

StartChar: slash
Encoding: 17 47 155
Width: 328
VWidth: 0
Flags: HW
LayerCount: 2
Fore
SplineSet
8 -72 m 1
 422 770 l 1
 463.38 770 l 1
 49.38 -72 l 1
 8 -72 l 1
EndSplineSet
Substitution2: "'numr' Numerators lookup 9 subtable" fraction
Substitution2: "'frac' Diagonal Fractions lookup 12-1" fraction
EndChar

StartChar: backslash
Encoding: 62 92 156
Width: 418
VWidth: 0
Flags: HW
LayerCount: 2
Fore
SplineSet
141 770 m 1
 177.68 770 l 1
 325.68 -72 l 1
 289 -72 l 1
 141 770 l 1
EndSplineSet
EndChar

StartChar: bar
Encoding: 94 124 157
Width: 225
VWidth: 0
Flags: HW
LayerCount: 2
Fore
SplineSet
74 -72 m 1
 207 770 l 1
 248 770 l 1
 115 -72 l 1
 74 -72 l 1
EndSplineSet
EndChar

StartChar: underscore
Encoding: 65 95 158
Width: 656
VWidth: 0
Flags: HW
LayerCount: 2
Fore
SplineSet
19 -1 m 1
 25.72 40 l 1
 639.92 40 l 1
 633.2 -1 l 1
 19 -1 l 1
EndSplineSet
EndChar

StartChar: hyphen
Encoding: 15 45 159
Width: 339
VWidth: 0
Flags: HW
LayerCount: 2
Fore
SplineSet
60 269.5 m 1
 66.72 310.5 l 1
 360.92 310.5 l 1
 354.2 269.5 l 1
 60 269.5 l 1
EndSplineSet
Substitution2: "'case' Case-Sensitive Forms lookup 1-1" hyphen.alt
Substitution2: "'c2sc' Capitals to Small Capitals in Latin lookup 17 subtable" hyphen.smcp
Substitution2: "'smcp' Lowercase to Small Capitals lookup 16-1" hyphen.smcp
EndChar

StartChar: numbersign
Encoding: 5 35 160
Width: 650
VWidth: 0
Flags: HW
LayerCount: 2
Fore
SplineSet
56 243.88 m 1
 64.08 269.48 l 1
 236.28 269.48 l 1
 296.2 460.88 l 1
 124 460.88 l 1
 133.42 486.48 l 1
 304.62 486.48 l 1
 382.9 732 l 1
 408.5 732 l 1
 330.22 486.48 l 1
 509.42 486.48 l 1
 586.7 732 l 1
 612.3 732 l 1
 535.02 486.48 l 1
 712.02 486.48 l 1
 703.26 460.88 l 1
 525.6 460.88 l 1
 465.68 268.48 l 1
 642.68 268.48 l 1
 634.6 242.88 l 1
 457.6 242.88 l 1
 380.3 0 l 1
 354.7 0 l 1
 432 242.88 l 1
 252.8 243.88 l 1
 175.5 0 l 1
 149.9 0 l 1
 227.2 243.88 l 1
 56 243.88 l 1
261.88 269.48 m 1
 440.08 268.48 l 1
 500 460.88 l 1
 321.8 460.88 l 1
 261.88 269.48 l 1
EndSplineSet
Substitution2: "'smcp' Lowercase to Small Capitals lookup 16-1" numbersign.smcp
EndChar

StartChar: dollar
Encoding: 6 36 161
Width: 574
VWidth: 0
Flags: HW
LayerCount: 2
Fore
SplineSet
80 10.4 m 1
 84.72 38.32 l 1
 126.7 35.68 220.48 32.32 313.48 32.32 c 0
 391.44 32.32 473.18 52.6 489.14 156 c 2
 499.48 224 l 2
 512.44 304.1 493.72 338.5 398.48 338.5 c 2
 286.96 338.5 l 2
 137.74 338.5 125.94 426.22 136.96 494 c 2
 147.62 560 l 1
 170.96 704.3 252 737.32 377.82 738 c 1
 391.16 824 l 1
 422.76 824 l 1
 409.42 736.32 l 1
 468.12 732.64 549.5 722.62 588.5 717.3 c 1
 584.12 689 l 1
 525.54 691.64 376.48 698 376.48 698 c 2
 277.44 702.32 207.24 677.68 188.62 560 c 2
 177.96 494 l 1
 164 405.22 206.4 379.5 292.36 379.5 c 2
 405.2 379.5 l 2
 539.9 379.5 553.48 306 540.48 224 c 2
 530.14 156 l 2
 507.48 11.4 398.74 -11.36 291.42 -8 c 1
 278.42 -88.68 l 1
 246.82 -88.68 l 1
 260.16 -5.64 l 1
 200.14 -1.94 112.26 4.76 80 10.4 c 1
EndSplineSet
Substitution2: "'smcp' Lowercase to Small Capitals lookup 16-1" dollar.smcp
EndChar

StartChar: zerosuperior
Encoding: 199 8304 162
Width: 471
VWidth: 100
Flags: HW
LayerCount: 2
Fore
SplineSet
89.66 466.98 m 2
 129.66 721.98 l 2
 142.66 805.98 195.02 830 264.66 830 c 2
 381.66 830 l 2
 461.94 830 487.66 783.04 476.66 716.04 c 10
 436.66 461.04 l 2
 421.66 365.04 371.7 355 305.66 355 c 2
 188.66 355 l 2
 136.46 355 74 368.68 89.66 466.98 c 2
122.96 469 m 2
 112 401.24 135.84 387.96 198.04 387.96 c 10
 307.04 387.96 l 18
 378.12 387.96 394.74 412.88 404.04 469 c 2
 443.04 716 l 2
 451.68 769.48 439.14 797.04 372.28 797.04 c 2
 263.28 797.04 l 2
 199.12 797.04 170.92 774.06 161.96 716 c 2
 122.96 469 l 2
EndSplineSet
EndChar

StartChar: foursuperior
Encoding: 200 8308 163
Width: 479
VWidth: 100
Flags: HW
LayerCount: 2
Fore
SplineSet
115 521.12 m 1
 360.16 830 l 1
 400.16 830 l 1
 172.2 541 l 1
 400.2 541 l 1
 419.86 662 l 1
 442.66 710 l 1
 460.16 710 l 1
 433.16 541 l 1
 491.82 541 l 1
 488.44 518.04 l 1
 427.78 506.36 l 1
 404.16 356 l 1
 370.86 356 l 1
 394.82 506.36 l 1
 122.44 506.36 l 1
 115 521.12 l 1
EndSplineSet
EndChar

StartChar: fivesuperior
Encoding: 201 8309 164
Width: 417
VWidth: 100
Flags: HW
LayerCount: 2
Fore
SplineSet
79 360.38 m 1
 83.04 384.62 l 1
 294.04 384.62 l 2
 346.2 384.62 378.4 412.9 387.36 469 c 2
 395.7 525 l 2
 402 565.48 404.4 602.84 330.94 602.84 c 0
 220.6 602.84 l 2
 181.74 602.84 144.9 574.32 138.24 538 c 1
 107.32 538 l 1
 168.66 830 l 25
 463.66 830 l 1
 458.28 797.04 l 1
 194.58 797.04 l 25
 152.04 597 l 1
 188.68 647.12 271.36 635.8 336.36 635.8 c 0
 408.26 635.8 440.66 600 429.66 529 c 2
 419.32 465 l 2
 405.64 379.6 357.02 350.66 292.66 351 c 0
 211.66 351.34 131 351.32 79 360.38 c 1
EndSplineSet
EndChar

StartChar: sixsuperior
Encoding: 202 8310 165
Width: 418
VWidth: 100
Flags: HW
LayerCount: 2
Fore
SplineSet
106.32 605.34 m 0
 138.98 802.34 199.66 834.02 260.92 835.34 c 0
 327.58 836.66 416.06 835.34 469.64 827.3 c 1
 465.6 802.38 l 1
 260.94 802.38 l 2
 185.44 802.38 156.56 710.32 139.96 610.44 c 1
 195.96 616.44 300.66 619.48 348.66 619.82 c 0
 429.86 620.16 446.64 577.98 438.98 530.04 c 2
 427.32 458.36 l 2
 415.66 386.36 374.68 355.34 309.94 355.34 c 2
 197.3 355.34 l 2
 129.38 355.34 71.68 397.78 106.32 605.34 c 0
136.26 586.86 m 1
 116.08 459.48 133.38 388.3 201.66 388.3 c 2
 309.34 388.3 l 2
 358.84 388.3 386.06 413.86 394.7 463.06 c 2
 406.68 531.32 l 2
 414.66 581.18 386.12 586.86 340.28 586.86 c 2
 136.26 586.86 l 1
EndSplineSet
EndChar

StartChar: sevensuperior
Encoding: 203 8311 166
Width: 429
VWidth: 100
Flags: HW
LayerCount: 2
Fore
SplineSet
124 799.04 m 1
 129.38 832 l 1
 453.32 832 l 1
 462.36 811.56 l 1
 207.38 356 l 1
 169.72 356 l 1
 418.6 799.04 l 1
 124 799.04 l 1
EndSplineSet
EndChar

StartChar: eightsuperior
Encoding: 204 8312 167
Width: 414
VWidth: 100
Flags: HW
LayerCount: 2
Fore
SplineSet
122 458 m 2
 132.66 519.3 l 2
 140.66 567.3 184.9 587.26 211.9 590.64 c 1
 163 604.38 152 647.34 157 679.98 c 2
 164 719.98 l 2
 179 811.98 229.34 835 296.34 835 c 2
 407.7 835 l 2
 472.26 835 511.32 798.6 498 716.68 c 2
 491.34 676.68 l 2
 487.36 649.48 463.46 605.4 414.8 599.36 c 1
 447.82 590.64 471.98 555.22 466 516 c 2
 456.34 458 l 2
 443 371.62 397 354 339.62 354 c 2
 218.02 354 l 2
 130.78 354 113.34 404.34 122 458 c 2
155.96 462 m 2
 147.66 408.22 163.9 387.3 226.08 387.3 c 2
 336.38 387.3 l 2
 384.84 387.3 415.42 405.56 424.38 462 c 2
 432.04 512 l 2
 439.36 559.56 403.58 579.18 374.58 579.18 c 2
 252.64 579.18 l 2
 206.8 579.18 170.62 554.64 163.96 513.32 c 2
 155.96 462 l 2
190.96 682 m 2
 183.3 632.06 214.24 612.48 251.42 612.48 c 2
 375.62 612.48 l 2
 418 612.48 452.4 640.52 459.04 682 c 2
 464.04 714 l 2
 475.34 785.76 451.46 802.04 394.98 802.04 c 2
 296.28 802.04 l 2
 237.12 802.04 206.92 782.44 195.96 714 c 2
 190.96 682 l 2
EndSplineSet
EndChar

StartChar: ninesuperior
Encoding: 205 8313 168
Width: 490
VWidth: 100
Flags: HW
LayerCount: 2
Fore
SplineSet
120 364.04 m 1
 124.04 388.96 l 1
 328.7 388.96 l 2
 404.2 388.96 432.42 481.02 449.02 580.9 c 1
 393.02 574.9 289.64 571.86 241.64 571.52 c 0
 160.44 571.18 143 612.04 150.66 659.98 c 2
 161.66 734.96 l 2
 172.66 806.96 218.92 836 283.66 836 c 2
 390.36 836 l 2
 458.28 836 517.64 793.56 483 586 c 0
 450.34 389 389.32 357.32 328.06 356 c 0
 261.4 354.68 168.48 355.32 120 364.04 c 1
183.96 660.02 m 2
 175.98 610.16 203.2 604.48 249.04 604.48 c 2
 453.06 604.48 l 1
 473.24 731.86 455.6 803.04 387.32 803.04 c 2
 280.3 803.04 l 2
 230.8 803.04 202.26 777.48 194.28 728.28 c 2
 183.96 660.02 l 2
EndSplineSet
EndChar

StartChar: zeroinferior
Encoding: 206 8320 169
Width: 481
VWidth: -300
Flags: HW
LayerCount: 2
Fore
SplineSet
105.66 -88.36 m 2
 145.66 166.64 l 2
 158.66 250.64 211.02 274.66 280.66 274.66 c 2
 397.66 274.66 l 2
 477.94 274.66 503.66 227.7 492.66 160.7 c 10
 452.66 -94.3 l 2
 437.66 -190.3 387.7 -200.34 321.66 -200.34 c 2
 204.66 -200.34 l 2
 152.46 -200.34 90 -186.66 105.66 -88.36 c 2
138.96 -86.34 m 2
 128 -154.1 151.84 -167.38 214.04 -167.38 c 10
 323.04 -167.38 l 18
 394.12 -167.38 410.74 -142.46 420.04 -86.34 c 2
 459.04 160.66 l 2
 467.68 214.14 455.14 241.7 388.28 241.7 c 2
 279.28 241.7 l 2
 215.12 241.7 186.92 218.72 177.96 160.66 c 2
 138.96 -86.34 l 2
EndSplineSet
EndChar

StartChar: oneinferior
Encoding: 207 8321 170
Width: 289
VWidth: -300
Flags: HW
LayerCount: 2
Fore
SplineSet
43 190.12 m 0
 46.04 211.66 l 0
 126.04 211.66 199.62 278.66 199.62 278.66 c 1
 231.9 278.66 l 1
 155.9 -199.34 l 1
 122.94 -199.34 l 1
 191.9 235.34 l 1
 174.9 222.34 120 190.12 43 190.12 c 0
EndSplineSet
EndChar

StartChar: twoinferior
Encoding: 208 8322 171
Width: 453
VWidth: -300
Flags: HW
LayerCount: 2
Fore
SplineSet
43 -199.34 m 25
 47.38 -170.38 l 17
 123.38 -116.38 355.02 35.28 372.36 143.66 c 0
 382.34 207.22 369.34 249.7 286.26 249.7 c 2
 110.96 249.7 l 2
 108.96 249.7 113.66 273.94 114.66 272.94 c 1
 181.66 280.94 227 282.66 299 282.66 c 3
 394.62 282.66 419.3 207.8 408 142.04 c 1
 387.98 16.46 150.16 -135.72 112.58 -166.38 c 9
 357.38 -166.38 l 25
 352 -199.34 l 25
 43 -199.34 l 25
EndSplineSet
EndChar

StartChar: threeinferior
Encoding: 209 8323 172
Width: 391
VWidth: -300
Flags: HW
LayerCount: 2
Fore
SplineSet
3 -189.96 m 1
 6.04 -170.72 l 1
 16.92 -170.72 182.06 -170.38 182.06 -170.38 c 2
 249.1 -170.38 288.4 -149.42 299.36 -80.34 c 2
 302.7 -57.34 l 2
 311.36 -0.4 266.18 24.52 219.96 25.52 c 2
 77.64 29.86 l 2
 81.68 52.78 l 1
 220.72 57.46 l 2
 276.94 59.46 328.7 87.4 334.7 134 c 2
 338.36 165.24 l 2
 348.66 229.02 309.92 245.04 258.9 245.04 c 2
 68.28 245.04 l 1
 71.32 266.26 l 1
 122.74 279 191.66 278 267.66 277.66 c 0
 351.26 277.32 380.32 224.62 371.32 164.62 c 2
 365.32 127.64 l 2
 357.32 74.04 306.26 42.98 280.9 38.26 c 1
 302.92 29.84 344.3 -2.18 336.32 -56.34 c 2
 331.66 -85.66 l 2
 320.66 -156.66 286.34 -203.68 186.66 -203.34 c 0
 112.66 -203.34 48.42 -202.7 3 -189.96 c 1
EndSplineSet
EndChar

StartChar: fourinferior
Encoding: 210 8324 173
Width: 425
VWidth: -300
Flags: HW
LayerCount: 2
Fore
SplineSet
4 -34.22 m 1
 249.16 274.66 l 1
 289.16 274.66 l 1
 61.2 -14.34 l 1
 289.2 -14.34 l 1
 308.86 106.66 l 1
 331.66 154.66 l 1
 349.16 154.66 l 1
 322.16 -14.34 l 1
 380.82 -14.34 l 1
 377.44 -37.3 l 1
 316.78 -48.98 l 1
 293.16 -199.34 l 1
 259.86 -199.34 l 1
 283.82 -48.98 l 1
 11.44 -48.98 l 1
 4 -34.22 l 1
EndSplineSet
EndChar

StartChar: fiveinferior
Encoding: 211 8325 174
Width: 415
VWidth: -300
Flags: HW
LayerCount: 2
Fore
SplineSet
7 -194.96 m 1
 11.04 -170.72 l 1
 222.04 -170.72 l 2
 274.2 -170.72 306.4 -142.44 315.36 -86.34 c 2
 323.7 -30.34 l 2
 330 10.14 332.4 47.5 258.94 47.5 c 0
 148.6 47.5 l 2
 109.74 47.5 72.9 18.98 66.24 -17.34 c 1
 35.32 -17.34 l 1
 96.66 274.66 l 25
 391.66 274.66 l 1
 386.28 241.7 l 1
 122.58 241.7 l 25
 80.04 41.66 l 1
 116.68 91.78 199.36 80.46 264.36 80.46 c 0
 336.26 80.46 368.66 44.66 357.66 -26.34 c 2
 347.32 -90.34 l 2
 333.64 -175.74 285.02 -204.68 220.66 -204.34 c 0
 139.66 -204 59 -204.02 7 -194.96 c 1
EndSplineSet
EndChar

StartChar: sixinferior
Encoding: 212 8326 175
Width: 417
VWidth: -300
Flags: HW
LayerCount: 2
Fore
SplineSet
34.32 50 m 0
 66.98 247 127.66 278.68 188.92 280 c 0
 255.58 281.32 347.46 280 397.64 271.96 c 1
 393.6 247.04 l 1
 188.94 247.04 l 2
 113.44 247.04 84.56 154.98 67.96 55.1 c 1
 123.96 61.1 228.66 64.14 276.66 64.48 c 0
 357.86 64.82 374.64 22.64 366.98 -25.3 c 2
 355.32 -96.98 l 2
 343.66 -168.98 302.68 -200 237.94 -200 c 2
 125.3 -200 l 2
 57.38 -200 -0.32 -157.56 34.32 50 c 0
64.26 31.52 m 1
 44.08 -95.86 61.38 -167.04 129.66 -167.04 c 2
 237.34 -167.04 l 2
 286.84 -167.04 314.06 -141.48 322.7 -92.28 c 2
 334.68 -24.02 l 2
 342.66 25.84 314.12 31.52 268.28 31.52 c 2
 64.26 31.52 l 1
EndSplineSet
EndChar

StartChar: seveninferior
Encoding: 213 8327 176
Width: 428
VWidth: -300
Flags: HW
LayerCount: 2
Fore
SplineSet
52 243.7 m 1
 57.38 276.66 l 1
 381.32 276.66 l 1
 390.36 256.22 l 1
 135.38 -199.34 l 1
 97.72 -199.34 l 1
 346.6 243.7 l 1
 52 243.7 l 1
EndSplineSet
EndChar

StartChar: eightinferior
Encoding: 214 8328 177
Width: 415
VWidth: -300
Flags: HW
LayerCount: 2
Fore
SplineSet
50 -97.34 m 2
 60.66 -36.04 l 2
 68.66 11.96 112.9 31.92 139.9 35.3 c 1
 91 49.04 80 92 85 124.64 c 2
 92 164.64 l 2
 107 256.64 157.34 279.66 224.34 279.66 c 2
 335.7 279.66 l 2
 400.26 279.66 439.32 243.26 426 161.34 c 2
 419.34 121.34 l 2
 415.36 94.14 391.46 50.06 342.8 44.02 c 1
 375.82 35.3 399.98 -0.12 394 -39.34 c 2
 384.34 -97.34 l 2
 371 -183.72 325 -201.34 267.62 -201.34 c 2
 146.02 -201.34 l 2
 58.78 -201.34 41.34 -151 50 -97.34 c 2
83.96 -93.34 m 2
 75.66 -147.12 91.9 -168.04 154.08 -168.04 c 2
 264.38 -168.04 l 2
 312.84 -168.04 343.42 -149.78 352.38 -93.34 c 2
 360.04 -43.34 l 2
 367.36 4.22 331.58 23.84 302.58 23.84 c 2
 180.64 23.84 l 2
 134.8 23.84 98.62 -0.7 91.96 -42.02 c 2
 83.96 -93.34 l 2
118.96 126.66 m 2
 111.3 76.72 142.24 57.14 179.42 57.14 c 2
 303.62 57.14 l 2
 346 57.14 380.4 85.18 387.04 126.66 c 2
 392.04 158.66 l 2
 403.34 230.42 379.46 246.7 322.98 246.7 c 2
 224.28 246.7 l 2
 165.12 246.7 134.92 227.1 123.96 158.66 c 2
 118.96 126.66 l 2
EndSplineSet
EndChar

StartChar: nineinferior
Encoding: 215 8329 178
Width: 487
VWidth: -300
Flags: HW
LayerCount: 2
Fore
SplineSet
48 -191.3 m 1
 52.04 -166.38 l 1
 256.7 -166.38 l 2
 332.2 -166.38 360.42 -74.32 377.02 25.56 c 1
 321.02 19.56 217.64 16.52 169.64 16.18 c 0
 88.44 15.84 71 56.7 78.66 104.64 c 2
 89.66 179.62 l 2
 100.66 251.62 146.92 280.66 211.66 280.66 c 2
 318.36 280.66 l 2
 386.28 280.66 445.64 238.22 411 30.66 c 0
 378.34 -166.34 317.32 -198.02 256.06 -199.34 c 0
 189.4 -200.66 94.1 -200.02 48 -191.3 c 1
111.96 104.68 m 2
 103.98 54.82 131.2 49.14 177.04 49.14 c 2
 381.06 49.14 l 1
 401.24 176.52 383.6 247.7 315.32 247.7 c 2
 208.3 247.7 l 2
 158.8 247.7 130.26 222.14 122.28 172.94 c 2
 111.96 104.68 l 2
EndSplineSet
EndChar

StartChar: zero.oldstyle
Encoding: 216 -1 179
Width: 625
VWidth: 0
Flags: W
HStem: 0 41<165.536 476.197> 590.34 41<250.909 554.239>
DStem2: 94 162 135 162 0.155375 0.987856<-67.0032 391.986> 536.2 162 577.2 162 0.155375 0.987856<-79.5542 386.587>
LayerCount: 2
Fore
SplineSet
94 162 m 10
 142.34 469.34 l 2
 159.68 579.72 236.94 631.34 336.7 631.34 c 2
 480.9 631.34 l 2
 605.86 631.34 639.2 553.62 625.54 469.34 c 2
 577.2 162 l 18
 558.2 43 489.56 0 387.5 0 c 2
 244.62 0 l 2
 153.62 0 75 42 94 162 c 10
135 162 m 2
 121 70.3398 171 41 246.72 41 c 10
 390.92 41 l 18
 481.32 41 524.56 87.54 536.2 162 c 2
 584.54 469.34 l 2
 596.84 548.12 566.34 590.34 477.82 590.34 c 2
 333.62 590.34 l 2
 248.02 590.34 194.96 543.06 183.34 469.34 c 2
 135 162 l 2
EndSplineSet
Substitution2: "'tnum' Tabular Numbers in Latin lookup 7-1" zero.tosf
Substitution2: "'lnum' Lining Figures lookup 19-1" zero
EndChar

StartChar: one.oldstyle
Encoding: 217 -1 180
Width: 372
VWidth: 0
Flags: W
HStem: 0 21G<221.04 265.142> 0 21G<221.04 265.142> 515.48 27.9199<107.36 178.196>
VStem: 102 258.06
DStem2: 221.04 0 262.04 0 0.153262 0.988186<6.28374 588.536>
LayerCount: 2
Fore
SplineSet
102 515.48 m 4xb0
 107.36 543.4 l 7
 207.36 543.4 320.38 633.02 320.38 633.02 c 5
 360.06 632 l 5
 262.04 0 l 5
 221.04 0 l 5
 313.32 581.26 l 5
 282.72 559.62 198 515.48 102 515.48 c 4xb0
EndSplineSet
Substitution2: "'tnum' Tabular Numbers in Latin lookup 7-1" one.tosf
Substitution2: "'lnum' Lining Figures lookup 19-1" one
EndChar

StartChar: two.oldstyle
Encoding: 218 -1 181
Width: 620
VWidth: 0
Flags: W
HStem: 0 41<146.52 523.2> 597.66 40.3398<222.814 511.488>
LayerCount: 2
Fore
SplineSet
48 0 m 29
 54.3799 38.2998 l 21
 174.44 98.54 533.18 300.72 557.5 453 c 4
 574.12 558.34 516.48 598.34 412.56 597.66 c 5
 395.56 597.66 136.6 597.32 136.6 597.32 c 6
 141.32 624.6 l 5
 210.32 634.64 310.16 641.3 426.2 638 c 5
 573.34 638 614.46 552.2 599.86 447.7 c 4
 577.6 278.96 210.5 71 146.52 41 c 13
 529.92 41 l 29
 523.2 0 l 29
 48 0 l 29
EndSplineSet
Substitution2: "'tnum' Tabular Numbers in Latin lookup 7-1" two.tosf
Substitution2: "'lnum' Lining Figures lookup 19-1" two
EndChar

StartChar: three.oldstyle
Encoding: 219 -1 182
Width: 585
VWidth: 0
Flags: W
HStem: -105.62 42<121.351 423.463> -88.84 25.22<51.7 134.042> 244.54 43.32<178.306 464.565> 251.54 28.96<167.34 380.574> 594.38 41<249.296 522.058> 594.38 24.88<152.96 235.814>
DStem2: 491.18 62.38 534.18 60.4 0.16049 0.987037<-81.7043 129.909 273.241 485.167>
LayerCount: 2
Fore
SplineSet
47 -88.84 m 1x40
 51.7 -63.62 l 1x40
 333.2 -63.62 l 2
 401.66 -63.62 474.9 -37.62 491.18 62.38 c 2
 500.52 121.38 l 2
 516.52 221.38 440.8 242.54 384.82 244.54 c 2xa0
 162.62 251.54 l 2
 167.34 280.5 l 1x10
 391.54 287.86 l 1
 466.48 289.54 535.2 324.54 547.18 401.38 c 2
 557.52 470.38 l 2
 572.16 561.56 515.56 594.38 443.76 594.38 c 2x28
 149.26 594.38 l 1
 152.96 619.26 l 1x04
 225.5 637.06 337.18 637.38 454.18 635.38 c 0
 565.36 633.38 614.18 560.76 599.18 467.74 c 2
 588.18 397.42 l 2
 571.88 300.58 497.94 271.1 464.54 266.04 c 1
 497.58 255.6 558.16 213.88 543.52 119.4 c 1
 534.18 60.4 l 2
 517.18 -48.6 451.52 -105.62 329.52 -105.62 c 0x88
 215.52 -105.62 100.3 -104.66 47 -88.84 c 1x40
EndSplineSet
Substitution2: "'tnum' Tabular Numbers in Latin lookup 7-1" three.tosf
Substitution2: "'lnum' Lining Figures lookup 19-1" three
EndChar

StartChar: four.oldstyle
Encoding: 220 -1 183
Width: 593
VWidth: 0
Flags: W
HStem: 103.5 42.3604<115.98 452.58 501.32 544.095> 116.56 29.3008<537.445 586.94>
DStem2: 54 132.58 115.98 145.86 0.615907 0.787819<48.6367 633.927> 420.94 -98 462.96 -98 0.155869 0.987778<6.54956 203.969 253.409 526.682>
LayerCount: 2
Fore
SplineSet
54 132.58 m 5x80
 444.44 632 l 5
 493.88 632 l 5
 115.98 145.86 l 5x80
 459.3 145.86 l 5x40
 494.94 372 l 5
 527.14 447 l 5
 548.96 447 l 5
 501.32 145.86 l 5x80
 591.32 145.86 l 5
 586.94 116.56 l 5x40
 494.6 103.5 l 5
 462.96 -98 l 5
 420.94 -98 l 5
 452.58 103.5 l 5
 68.7998 103.5 l 5
 54 132.58 l 5x80
EndSplineSet
Substitution2: "'tnum' Tabular Numbers in Latin lookup 7-1" four.tosf
Substitution2: "'lnum' Lining Figures lookup 19-1" four
EndChar

StartChar: five.oldstyle
Encoding: 221 -1 184
Width: 603
VWidth: 0
Flags: W
HStem: -103.66 42.7002<142.56 425.423> -88.9004 27.9404<53.3799 191.491> 295.1 41.3408<197.882 488.649> 591 41<219.26 602.6>
DStem2: 94 187.1 133.64 187.1 0.160919 0.986968<6.37876 69.4143 103.825 298.23> 499.98 68.3398 540.32 66.3398 0.158086 0.987425<-73.979 180.278>
LayerCount: 2
Fore
SplineSet
49 -88.9004 m 1x70
 53.3799 -60.96 l 1x70
 352.76 -60.96 l 2
 422.42 -60.96 487.38 -10.5801 499.98 68.3398 c 2
 515.66 166.4 l 2
 522.64 209.26 529.32 295.1 416.92 295.1 c 1
 264.94 295.1 l 2
 206.8 295.1 143.3 249.02 133.64 187.1 c 1
 94 187.1 l 1
 186.32 632 l 17
 609.32 632 l 1
 602.6 591 l 1
 219.26 591 l 25
 155.06 282.34 l 1
 168.78 298.7 210.04 335.42 273.44 336.44 c 0
 338.96 337.8 390.02 336.1 420 336.1 c 0
 528.82 336.1 572 266.42 556.66 168.4 c 2
 540.32 66.3398 l 2
 518.32 -70.6602 422.18 -101.96 350.32 -103.66 c 1xb0
 225.98 -106.04 139.4 -103.32 49 -88.9004 c 1x70
EndSplineSet
Substitution2: "'tnum' Tabular Numbers in Latin lookup 7-1" five.tosf
Substitution2: "'lnum' Lining Figures lookup 19-1" five
EndChar

StartChar: six.oldstyle
Encoding: 222 -1 185
Width: 604
VWidth: 0
Flags: W
HStem: -0.660156 39.9805<186.409 452.079> 371.16 41.6602<215.445 504.369> 697 41<281.261 543.028> 697 28.5996<421.488 611.48>
DStem2: 507.56 148.72 548.54 148 0.156615 0.98766<-74.8238 187.659>
LayerCount: 2
Fore
SplineSet
108 384 m 4xe0
 149.34 644.38 247.06 738 336 738 c 4xe0
 437 738 542.6 732.6 615.86 725.6 c 5
 611.48 697 l 5xd0
 337.66 697 l 6
 224.6 697 168 500.9 151.02 398.42 c 5
 238.02 408.42 349.62 412.48 423.62 412.82 c 4
 557.96 413.5 578.86 338.96 567.22 265.8 c 6
 548.54 148 l 6
 530.54 36 467.44 -0.660156 373.44 -0.660156 c 6
 241.62 -0.660156 l 6
 137.38 -0.660156 59.3203 76.9199 108 384 c 4xe0
146.64 371.16 m 5
 124.02 229.44 114.64 39.3203 243.68 39.3203 c 6
 372.88 39.3203 l 6
 425.02 39.3203 492.6 55.9404 507.56 148.72 c 6
 525.24 261.18 l 6
 539.86 351.22 499.04 371.16 422.18 371.16 c 6
 146.64 371.16 l 5
EndSplineSet
Substitution2: "'tnum' Tabular Numbers in Latin lookup 7-1" six.tosf
Substitution2: "'lnum' Lining Figures lookup 19-1" six
EndChar

StartChar: seven.oldstyle
Encoding: 223 -1 186
Width: 575
VWidth: 0
Flags: W
HStem: 591 41<115.72 523.1>
DStem2: 169.02 -100 217.42 -100 0.454896 0.890545<22.017 776.436>
LayerCount: 2
Fore
SplineSet
109 591 m 1
 115.72 632 l 1
 560.86 632 l 1
 575.24 600.5 l 1
 217.42 -100 l 1
 169.02 -100 l 1
 523.1 591 l 1
 109 591 l 1
EndSplineSet
Substitution2: "'tnum' Tabular Numbers in Latin lookup 7-1" seven.tosf
Substitution2: "'lnum' Lining Figures lookup 19-1" seven
EndChar

StartChar: eight.oldstyle
Encoding: 224 -1 187
Width: 580
VWidth: 0
Flags: W
HStem: 0 41<163.767 450.621> 353.5 40<209.13 507.258> 696 41<257.622 550.254>
DStem2: 91 154 131.66 151 0.153343 0.988173<-60.6949 166.848 287.918 513.817> 511.88 151 555.2 154 0.159303 0.98723<-69.9437 170.359 285.019 501.232>
LayerCount: 2
Fore
SplineSet
91 154 m 6
 106 252.66 l 6
 118 327.98 179.9 363.62 221.96 365.32 c 5
 144.08 382.7 137 452.32 145 503.62 c 6
 155.34 568.62 l 6
 176.34 702.96 247.98 737 354.38 737 c 6
 480.58 737 l 6
 588.16 737 637.86 677.96 619.54 559.38 c 6
 609.2 494.38 l 6
 602.58 451.26 565.4 388.08 502.62 380.34 c 5
 565.2 361.02 579.52 308.2 570.2 252 c 6
 555.2 154 l 6
 533.52 19.9199 440.24 0 371.82 0 c 6
 246.62 0 l 6
 75.9805 0 85 114.36 91 154 c 6
131.66 151 m 6
 118.7 69.9004 172.42 41 253.34 41 c 6
 373.92 41 l 6
 427.44 41 498.92 67.2402 511.88 151 c 6
 528.88 256 l 6
 543.16 345.34 478.76 353.5 430.8 353.5 c 6
 288.96 353.5 l 6
 242.96 353.5 160.64 331.2 148.66 256 c 6
 131.66 151 l 6
185 494 m 6
 170.7 404.56 238.24 393.5 293.36 393.5 c 6
 432.56 393.5 l 6
 521.4 393.5 560.54 451.4 567.2 494 c 6
 578.2 562 l 6
 593.84 661.8 557 696 473.86 696 c 6
 348.98 696 l 6
 248.82 696 208.98 654.44 195.34 562 c 6
 185 494 l 6
EndSplineSet
Substitution2: "'tnum' Tabular Numbers in Latin lookup 7-1" eight.tosf
Substitution2: "'lnum' Lining Figures lookup 19-1" eight
EndChar

StartChar: nine.oldstyle
Encoding: 225 -1 188
Width: 628
VWidth: 0
Flags: W
HStem: -106 41<168.971 431.258> -93.6 28.6<100.38 290.904> 219.18 41.66<207.457 491.228> 592.68 39.98<259.728 529.106>
DStem2: 144.64 369.5 185.3 366.2 0.156617 0.987659<-66.5847 195.77>
LayerCount: 2
Fore
SplineSet
96 -93.6 m 1x70
 100.38 -65 l 1x70
 374.2 -65 l 2
 489.24 -65 543.86 131.1 560.84 233.58 c 1
 473.84 223.58 357.62 219.52 283.62 219.18 c 0
 149.28 218.5 133 296.34 144.64 369.5 c 2
 163.32 487.3 l 2
 181.32 599.3 253.66 632.66 347.66 632.66 c 2
 474.2 632.66 l 2
 578.44 632.66 653.2 549.14 604.52 242.06 c 0
 563.18 -18.32 465.46 -106 376.52 -106 c 0xb0
 275.52 -106 169.26 -100.6 96 -93.6 c 1x70
185.3 366.2 m 2
 170.68 276.16 221.4 260.84 292.98 260.84 c 2
 565.22 260.84 l 1
 587.84 402.56 599.86 592.68 471.48 592.68 c 2
 341.62 592.68 l 2
 289.48 592.68 217.28 576.06 202.98 483.28 c 2
 185.3 366.2 l 2
EndSplineSet
Substitution2: "'tnum' Tabular Numbers in Latin lookup 7-1" nine.tosf
Substitution2: "'lnum' Lining Figures lookup 19-1" nine
EndChar

StartChar: ampersand
Encoding: 8 38 189
Width: 666
VWidth: 0
Flags: HW
LayerCount: 2
Fore
SplineSet
92.02 80.98 m 0
 29.68 179.96 70.96 290.3 171.32 366 c 2
 267.64 439 l 1
 218.64 524 l 2
 151 640.62 224.46 712.08 306.14 726.34 c 0
 381.44 737.98 505.8 730.68 585.64 719.24 c 1
 581.6 693.68 l 1
 372 693.68 l 2
 256.96 693.68 192.36 644.56 252.96 538.68 c 2
 466.36 168.48 l 1
 631.7 308.94 l 1
 644.48 296.86 l 1
 566.22 201.3 l 1
 487.86 134.18 l 1
 567.3 0 l 1
 525.62 0 l 1
 458.64 111 l 1
 379.36 44 l 2
 296.42 -25.66 158.04 -24.36 92.02 80.98 c 0
124.64 103.46 m 0
 170.92 28.62 275.7 8.38 352.5 72.58 c 2
 437.82 144.28 l 1
 287.46 403.7 l 1
 199.48 337.7 l 18
 101.56 264.76 77.06 180.58 124.64 103.46 c 0
EndSplineSet
AlternateSubs2: "'salt' Access All Alternates in Latin lookup 4-1" ampersand.salt
Substitution2: "'smcp' Lowercase to Small Capitals lookup 16-1" ampersand.smcp
EndChar

StartChar: asterisk
Encoding: 12 42 190
Width: 468
VWidth: 0
Flags: HW
LayerCount: 2
Fore
SplineSet
139 583.16 m 1
 142.36 606 l 1
 285.7 618.5 l 1
 281.34 577.5 l 1
 139 583.16 l 1
188.28 410.7 m 1
 239.22 545.04 l 1
 279.52 536.62 l 1
 208.1 403.98 l 1
 188.28 410.7 l 1
290.92 488.54 m 1
 318.82 524.8 l 1
 420.42 439.08 l 1
 404.98 420.94 l 1
 290.92 488.54 l 1
294.94 720.96 m 1
 318.12 729.04 l 1
 368.52 607.74 l 1
 327.2 589.94 l 1
 294.94 720.96 l 1
345.62 558.46 m 1
 473 639.08 l 1
 482.04 619.26 l 1
 368.78 526.88 l 1
 345.62 558.46 l 1
EndSplineSet
Substitution2: "'smcp' Lowercase to Small Capitals lookup 16-1" asterisk.smcp
EndChar

StartChar: Euro
Encoding: 226 8364 191
Width: 724
VWidth: 0
Flags: HW
LayerCount: 2
Fore
SplineSet
70 266.22 m 1
 73.7 291.44 l 1
 163.04 295.8 l 1
 183 423.2 l 1
 96 427.9 l 1
 99.7 451.1 l 1
 188.04 456.8 l 1
 199.04 528.8 223.02 740 467.02 740 c 3
 519.02 740 620.54 729.6 688.54 716.6 c 1
 684.16 687.3 l 2
 684.16 687.3 544.94 699.66 462.28 699 c 1
 288.2 698.34 249.68 580.56 229.04 456.8 c 1
 495.7 452.44 l 1
 492 427.56 l 1
 224 423.2 l 1
 204.04 295.8 l 1
 469.7 290.78 l 1
 466 265.56 l 1
 466 265.56 195 263.2 198 261.2 c 1
 172.34 113.56 234.34 36.98 355.4 35 c 1
 460.32 33.02 586.94 48.7 586.94 48.7 c 1
 581.9 19.76 l 1
 497.56 -0.6 437.3 -6 352.98 -6 c 3
 275.32 -6 121.66 25.96 157 261.2 c 1
 70 266.22 l 1
EndSplineSet
Substitution2: "'smcp' Lowercase to Small Capitals lookup 16-1" Euro.smcp
EndChar

StartChar: parenleft
Encoding: 10 40 192
Width: 295
VWidth: 99
Flags: HW
LayerCount: 2
Fore
SplineSet
126.34 372.2 m 0
 172.4 656.4 367.3 899.6 367.3 899.6 c 1
 413.72 899.6 l 1
 413.72 899.6 214.12 648.14 166.02 365.6 c 0
 113.6 59.48 245.04 -170.4 245.04 -170.4 c 1
 200.34 -170.4 l 1
 200.34 -170.4 75.32 58.92 126.34 372.2 c 0
EndSplineSet
Substitution2: "'case' Case-Sensitive Forms lookup 1-1" parenleft.alt
Substitution2: "'c2sc' Capitals to Small Capitals in Latin lookup 17 subtable" parenleft.smcp
Substitution2: "'smcp' Lowercase to Small Capitals lookup 16-1" parenleft.smcp
EndChar

StartChar: parenright
Encoding: 11 41 193
Width: 296
VWidth: 99
Flags: HW
LayerCount: 2
Fore
SplineSet
-13 -170.4 m 1
 -13 -170.4 183.96 63.9 235.36 364.92 c 0
 284.48 652.56 156.34 899.6 156.34 899.6 c 1
 200.38 899.6 l 1
 200.38 899.6 321.44 647.84 275.04 362.28 c 0
 224.36 50.36 35.4 -170.4 35.4 -170.4 c 1
 -13 -170.4 l 1
EndSplineSet
Substitution2: "'case' Case-Sensitive Forms lookup 1-1" parenright.alt
Substitution2: "'c2sc' Capitals to Small Capitals in Latin lookup 17 subtable" parenright.smcp
Substitution2: "'smcp' Lowercase to Small Capitals lookup 16-1" parenright.smcp
EndChar

StartChar: plus
Encoding: 13 43 194
Width: 521
VWidth: 0
Flags: HW
LayerCount: 2
Fore
SplineSet
100 335.5 m 1
 106.72 376.5 l 1
 283.98 376.5 l 1
 311.64 554.1 l 1
 352.64 554.1 l 1
 324.98 376.5 l 1
 502.92 376.5 l 1
 496.2 335.5 l 1
 318.26 335.5 l 1
 289.94 157.9 l 1
 248.94 157.9 l 1
 277.26 335.5 l 1
 100 335.5 l 1
EndSplineSet
EndChar

StartChar: endash
Encoding: 227 8211 195
Width: 440
VWidth: 0
Flags: HW
LayerCount: 2
Fore
SplineSet
60 266.5 m 1
 66.72 308.5 l 1
 539.72 308.5 l 1
 533 266.5 l 1
 60 266.5 l 1
EndSplineSet
Substitution2: "'case' Case-Sensitive Forms lookup 1-1" endash.alt
Substitution2: "'c2sc' Capitals to Small Capitals in Latin lookup 17 subtable" endash.smcp
Substitution2: "'smcp' Lowercase to Small Capitals lookup 16-1" endash.smcp
EndChar

StartChar: emdash
Encoding: 228 8212 196
Width: 739
VWidth: 0
Flags: HW
LayerCount: 2
Fore
SplineSet
59 268.5 m 1
 65.72 310.5 l 1
 761.72 310.5 l 1
 755 268.5 l 1
 59 268.5 l 1
EndSplineSet
Substitution2: "'case' Case-Sensitive Forms lookup 1-1" emdash.alt
Substitution2: "'c2sc' Capitals to Small Capitals in Latin lookup 17 subtable" emdash.smcp
Substitution2: "'smcp' Lowercase to Small Capitals lookup 16-1" emdash.smcp
EndChar

StartChar: less
Encoding: 30 60 197
Width: 472
VWidth: 0
Flags: HW
LayerCount: 2
Fore
SplineSet
99 334.46 m 1
 105.4 374.86 l 1
 489.56 556.66 l 1
 482.18 512.3 l 1
 149.74 352.64 l 1
 429.96 182 l 1
 423.56 140.66 l 1
 99 334.46 l 1
EndSplineSet
EndChar

StartChar: equal
Encoding: 31 61 198
Width: 463
VWidth: 0
Flags: HW
LayerCount: 2
Fore
SplineSet
53 212 m 1
 60.06 253 l 1
 487.06 253 l 1
 480 212 l 1
 53 212 l 1
90.94 454 m 1
 98 495 l 1
 525 495 l 1
 517.94 454 l 1
 90.94 454 l 1
EndSplineSet
EndChar

StartChar: greater
Encoding: 32 62 199
Width: 473
VWidth: 0
Flags: HW
LayerCount: 2
Fore
SplineSet
72 140.66 m 1
 79.06 186.36 l 1
 416.18 355.98 l 1
 130.94 517.68 l 1
 138 556.66 l 1
 463.9 374.86 l 1
 457.84 334.46 l 1
 72 140.66 l 1
EndSplineSet
EndChar

StartChar: multiply
Encoding: 151 215 200
Width: 448
VWidth: 0
Flags: HW
LayerCount: 2
Fore
SplineSet
93 231.06 m 1
 237.94 356.34 l 1
 133.32 481.28 l 1
 163.58 507.5 l 1
 268.86 382.56 l 1
 417.5 511.2 l 1
 442.04 481.62 l 1
 293.74 352.98 l 1
 399.7 227.36 l 1
 368.44 201.14 l 1
 263.48 326.76 l 1
 117.54 201.48 l 1
 93 231.06 l 1
EndSplineSet
EndChar

StartChar: divide
Encoding: 183 247 201
Width: 542
VWidth: 0
Flags: HW
LayerCount: 2
Fore
SplineSet
100 332.5 m 1
 106.72 373.5 l 1
 522.72 373.5 l 1
 516 332.5 l 1
 100 332.5 l 1
256.82 163.76 m 2
 263.84 209.84 l 2
 265.18 220.22 271.88 226.26 282.6 226.26 c 2
 307.52 226.26 l 2
 317.9 226.26 321.26 219.22 319.92 209.84 c 2
 312.9 163.76 l 2
 311.56 153.38 304.2 148.02 294.82 148.02 c 2
 270.56 148.02 l 2
 261.18 148.02 255.48 154.38 256.82 163.76 c 2
308.12 486.52 m 2
 314.8 533.26 l 2
 316.14 543.64 322.84 549.68 333.56 549.68 c 2
 358.48 549.68 l 2
 368.86 549.68 372.22 542.64 370.88 533.26 c 2
 364.2 486.52 l 2
 362.86 476.14 355.16 471.44 345.78 471.44 c 2
 321.52 471.44 l 2
 312.14 471.44 306.78 477.14 308.12 486.52 c 2
EndSplineSet
EndChar

StartChar: question
Encoding: 33 63 202
Width: 541
VWidth: 0
Flags: HW
LayerCount: 2
Fore
SplineSet
125 699.02 m 2
 129.38 725.6 l 1
 216.88 735.96 296.42 740.7 389.96 739 c 1
 537.82 739.66 581.24 665.2 563.26 554 c 2
 547.92 453 l 2
 525.9 312.22 432.38 276.98 264.08 296.66 c 1
 264.08 295.64 247.74 197.04 248.08 195 c 1
 205.42 195 l 1
 226.46 330.6 l 1
 246.18 330.26 322.34 329.92 342.06 330.6 c 0
 427.36 331.28 492.3 363.56 506.6 453 c 2
 522.6 554 l 2
 538.9 659.12 498.66 699.02 381.48 699.02 c 2
 125 699.02 l 2
172.294 15.74 m 2
 181.836 76.04 l 2
 183.351 86.42 189.81 92.46 200.53 92.46 c 2
 225.81 92.46 l 2
 237.21 92.46 241.367 86.1 239.616 76.04 c 2
 230.074 15.74 l 2
 228.218 4.34 220.76 0 211.38 0 c 2
 186.1 0 l 2
 176.72 0 170.883 6.36 172.294 15.74 c 2
EndSplineSet
Substitution2: "'smcp' Lowercase to Small Capitals lookup 16-1" question.smcp
EndChar

StartChar: bracketleft
Encoding: 61 91 203
Width: 284
VWidth: 99
Flags: HW
LayerCount: 2
Fore
SplineSet
76.68 1.6 m 2
 189.7 715.72 l 2
 201.06 788.2 231.68 881.6 352.68 881.6 c 2
 412.22 881.6 l 1
 406.16 840.6 l 1
 345.96 840.6 l 2
 289.48 840.6 245.66 807.46 230.7 715.72 c 2
 117.68 1.6 l 2
 104.68 -79.76 120.62 -129.4 192.4 -129.4 c 2
 252.6 -129.4 l 1
 245.88 -170.4 l 1
 185.68 -170.4 l 2
 67.96 -170.4 67.02 -57.38 76.68 1.6 c 2
EndSplineSet
EndChar

StartChar: bracketright
Encoding: 63 93 204
Width: 287
VWidth: 99
Flags: HW
LayerCount: 2
Fore
SplineSet
-13 -170.4 m 1
 -6.28 -129.4 l 1
 53.92 -129.4 l 2
 121.62 -129.4 156.2 -79.76 168.52 -4.52 c 2
 281.54 709.6 l 2
 297.18 807.46 268.04 840.6 207.48 840.6 c 2
 147.28 840.6 l 1
 154 881.6 l 1
 214.2 881.6 l 2
 334.56 881.6 332.2 768.58 322.54 709.6 c 2
 209.52 -4.52 l 2
 197.5 -80.96 168.2 -170.4 47.2 -170.4 c 2
 -13 -170.4 l 1
EndSplineSet
EndChar

StartChar: braceleft
Encoding: 93 123 205
Width: 280
VWidth: 99
Flags: HW
LayerCount: 2
Fore
SplineSet
67 356.2 m 1
 73.38 396.8 l 1
 106.72 399.12 165.36 403.98 174.02 459.6 c 2
 211.68 700.22 l 2
 228.04 803.36 279.24 881.6 411.22 881.6 c 1
 404.5 841.26 l 1
 323.3 841.6 269.32 805.7 252.02 695.6 c 2
 215.02 459.6 l 2
 207.02 411.6 165.02 381.3 119.32 374.28 c 1
 163.02 367.94 194.02 332.6 187.02 290.6 c 2
 143.06 15.54 l 2
 125.06 -97.44 166.4 -131.42 250.94 -130.06 c 1
 244.22 -170.4 l 1
 97.26 -170.4 89.02 -66 102.72 20.16 c 2
 145.36 286.6 l 2
 153.02 332.56 107 359.2 67 356.2 c 1
EndSplineSet
EndChar

StartChar: braceright
Encoding: 95 125 206
Width: 277
VWidth: 99
Flags: HW
LayerCount: 2
Fore
SplineSet
-13 -170.4 m 1
 -6.28 -130.06 l 1
 76.9 -130.4 127.9 -98.46 144.54 6.36 c 2
 187.82 277.34 l 2
 195.16 321.38 236.16 353.66 281.86 360.68 c 1
 238.16 367.02 206.84 400.38 214.5 446.34 c 2
 252.52 686.42 l 2
 271.18 804.68 229.84 843.94 147.28 842.58 c 1
 154 881.6 l 1
 290.4 881.6 308.54 779.84 292.86 681.8 c 2
 255.5 447.7 l 2
 247.18 395.8 299.14 379.06 334.52 378.1 c 1
 328.14 337.5 l 1
 290.18 339.14 236.16 323.72 228.16 274.7 c 2
 184.88 3.06 l 2
 170.5 -88.2 129.54 -170.4 -13 -170.4 c 1
EndSplineSet
EndChar

StartChar: at
Encoding: 34 64 207
Width: 889
VWidth: 0
Flags: HW
LayerCount: 2
Fore
SplineSet
64 9 m 2
 145 521 l 2
 160 613 212 699 350 699 c 2
 725 699 l 2
 836 699 882 634 865 521 c 2
 812 167 l 2
 806.32 127.92 787 3 643 3 c 2
 605.5 3 l 1
 599 63 l 1
 568 29 483 -3 410 -4 c 0
 299 -6 224 48 258 275 c 0
 292 496 399 539.38 473 544 c 0
 549.28 548.62 649 531 700 482 c 1
 635.72 43.34 l 1
 683.72 43.34 753.38 51.68 771 167 c 2
 824 521 l 2
 841.32 637.58 790.36 657.66 722.64 657.66 c 2
 345.92 657.66 l 2
 234.42 657.66 196.28 586.32 186 521 c 2
 105 9 l 2
 90.72 -80.34 133.04 -138 219.04 -138 c 2
 603.72 -138 l 1
 599.68 -163.22 l 1
 549.68 -173.22 435 -179 309 -179 c 2
 211 -179 l 2
 107 -179 47 -98 64 9 c 2
296.66 254 m 0
 274.04 73.36 326.72 38 404.72 37 c 0
 459.72 36 536.7 48 601.7 97 c 1
 657.98 470.84 l 1
 592.04 500.7 537.12 504 479.94 502.68 c 0
 424.64 501.36 324.28 475.96 296.66 254 c 0
EndSplineSet
Substitution2: "'case' Case-Sensitive Forms lookup 1-1" at.alt
Substitution2: "'smcp' Lowercase to Small Capitals lookup 16-1" at.smcp
EndChar

StartChar: breve
Encoding: 229 728 208
Width: 266
VWidth: 0
Flags: HW
LayerCount: 2
Fore
SplineSet
59.66 644 m 1
 84.54 644 l 1
 76.56 591.76 111.82 554.22 158.68 554.88 c 0
 212.24 555.2 255.1 588.38 263.76 644 c 1
 288.64 644 l 1
 276.98 566.3 217.78 530 158.02 530 c 0
 103.7 530 50.36 571.32 59.66 644 c 1
EndSplineSet
EndChar

StartChar: ogonek
Encoding: 230 731 209
Width: 253
VWidth: 0
Flags: HW
LayerCount: 2
Fore
SplineSet
247.68 0 m 1
 268.86 0 l 1
 159.36 -52.82 151.38 -154.7 266.72 -151.36 c 9
 262 -181 l 16
 144 -197 88.34 -65.32 247.68 0 c 1
EndSplineSet
EndChar

StartChar: caron
Encoding: 231 711 210
Width: 394
VWidth: 0
Flags: HW
LayerCount: 2
Fore
SplineSet
32 661 m 1
 65.32 661 l 1
 146.74 556.88 l 1
 271.72 661 l 1
 310.8 661 l 1
 162.9 531 l 1
 124.9 531 l 1
 32 661 l 1
EndSplineSet
Substitution2: "'smcp' Lowercase to Small Capitals lookup 16-1" caron.smcp
EndChar

StartChar: hungarumlaut
Encoding: 232 733 211
Width: 460
VWidth: 0
Flags: HW
LayerCount: 2
Fore
SplineSet
154 531 m 25
 291.24 664 l 25
 340.7 664 l 25
 186.7 531 l 25
 154 531 l 25
291.64 531 m 25
 428.88 664 l 25
 478.34 664 l 25
 324.34 531 l 25
 291.64 531 l 25
EndSplineSet
EndChar

StartChar: dotaccent
Encoding: 233 729 212
Width: 157
VWidth: 0
Flags: HW
LayerCount: 2
Fore
SplineSet
82.1543 557.98 m 2
 91.6957 617.26 l 2
 93.2116 627.64 99.6699 633.68 110.39 633.68 c 2
 134.65 633.68 l 2
 145.03 633.68 149.187 626.64 147.776 617.26 c 2
 138.234 557.98 l 2
 136.718 547.6 129.6 542.24 120.22 542.24 c 2
 95.96 542.24 l 2
 86.58 542.24 80.7427 548.6 82.1543 557.98 c 2
EndSplineSet
EndChar

StartChar: Lcaron
Encoding: 235 317 214
Width: 542
VWidth: 0
Flags: HW
LayerCount: 2
Fore
SplineSet
99 126 m 2
 195.68 732 l 1
 236.34 732 l 1
 140 126 l 2
 127.38 47.26 176.56 41 222.06 41 c 2
 508.26 41 l 1
 501.88 0 l 1
 215 0 l 2
 148.657 0 82.02 19.46 99 126 c 2
299.28 571 m 1
 312.58 705 l 1
 322.92 772 l 1
 364.58 772 l 1
 354.24 705 l 1
 325.22 571 l 1
 299.28 571 l 1
EndSplineSet
Substitution2: "'c2sc' Capitals to Small Capitals in Latin lookup 17 subtable" lcaron.smcp
EndChar

StartChar: lcaron
Encoding: 244 318 223
Width: 307
VWidth: 0
Flags: HW
LayerCount: 2
Fore
SplineSet
89 189 m 2
 183 783 l 1
 224 783 l 1
 130 189 l 2
 108.06 51.72 155.1 46.7 187.5 41 c 2
 187.5 41 255.56 27.62 260.52 27.62 c 1
 256.14 0 l 1
 190.12 0 l 2
 106.46 0 67.66 54.28 89 189 c 2
292.2 580.66 m 1
 305.5 714.66 l 1
 315.84 781.66 l 1
 357.5 781.66 l 1
 347.16 714.66 l 1
 318.14 580.66 l 1
 292.2 580.66 l 1
EndSplineSet
Substitution2: "'smcp' Lowercase to Small Capitals lookup 16-1" lcaron.smcp
EndChar

StartChar: tcaron
Encoding: 248 357 227
Width: 366
VWidth: 0
Flags: HW
LayerCount: 2
Fore
SplineSet
82.48 491 m 1
 87.52 520.6 l 1
 178.3 532 l 1
 212.7 680 l 1
 242.3 680 l 1
 219.3 532 l 1
 387.5 532 l 1
 380.78 491 l 1
 212.58 491 l 1
 164.64 188.68 l 2
 143.04 51.4 189.4 46.38 221.8 40.68 c 2
 221.8 40.68 289.86 27.3 294.82 27.3 c 1
 290.78 -0.32 l 1
 226.08 -0.32 l 2
 142.42 -0.32 102.3 53.96 123.64 188.68 c 2
 171.58 491 l 1
 82.48 491 l 1
311.5 597.68 m 1
 324.82 731.68 l 1
 335.14 798.68 l 1
 377.14 798.68 l 1
 366.48 731.68 l 1
 337.44 597.68 l 1
 311.5 597.68 l 1
EndSplineSet
AlternateSubs2: "'salt' Access All Alternates in Latin lookup 4-1" tcaron.salt
Substitution2: "'smcp' Lowercase to Small Capitals lookup 16-1" tcaron.smcp
EndChar

StartChar: dcaron
Encoding: 274 271 253
Width: 578
VWidth: 0
Flags: HW
LayerCount: 2
Fore
SplineSet
89 268.28 m 0
 111.34 406.32 162.94 539 313.94 539 c 3
 358.94 539 444.6 525 504.6 499 c 1
 549.94 785 l 1
 588.94 785 l 1
 464.6 0 l 1
 438 0 l 1
 433.94 59 l 17
 404.28 36.7 299.68 -6 231.68 -6 c 3
 88.38 -6 69.66 146.28 89 268.28 c 0
130 263 m 0
 103.72 101.38 158.1 35 236.98 35 c 3
 315.98 35 381.32 61.64 438.32 86.94 c 1
 499.22 469.36 l 1
 433.22 487.36 386.2 498 309.2 498 c 3
 233.36 498 160.96 456.36 130 263 c 0
631.7 580.32 m 1
 644.68 714.32 l 1
 655.34 781.32 l 1
 697.34 781.32 l 1
 686.34 714.32 l 1
 657.64 580.32 l 1
 631.7 580.32 l 1
EndSplineSet
AlternateSubs2: "'salt' Access All Alternates in Latin lookup 4-1" dcaron.salt
Substitution2: "'smcp' Lowercase to Small Capitals lookup 16-1" dcaron.smcp
EndChar

StartChar: Lslash
Encoding: 282 321 261
Width: 542
VWidth: 0
Flags: HW
LayerCount: 2
Fore
SplineSet
50.6 346.4 m 1
 55.98 381 l 1
 145.32 417 l 1
 195.32 732 l 1
 235.98 732 l 1
 189 434.48 l 1
 324.14 489.2 l 1
 317.76 455.6 l 1
 183.3 400.88 l 1
 139.98 126 l 2
 127.36 47.26 176.2 41 221.7 41 c 2
 508.24 41 l 1
 501.52 0 l 1
 216.96 0 l 2
 150.617 0 82 19.46 98.98 126 c 2
 139.94 382.74 l 1
 50.6 346.4 l 1
EndSplineSet
Substitution2: "'c2sc' Capitals to Small Capitals in Latin lookup 17 subtable" lslash.smcp
EndChar

StartChar: uni00AD
Encoding: 109 173 262
Width: 358
VWidth: 0
Flags: HW
LayerCount: 2
Fore
SplineSet
60 269.5 m 1
 66.72 310.5 l 1
 380.72 310.5 l 1
 374 269.5 l 1
 60 269.5 l 1
EndSplineSet
Substitution2: "'case' Case-Sensitive Forms lookup 1-1" uni00AD.alt
Substitution2: "'c2sc' Capitals to Small Capitals in Latin lookup 17 subtable" uni00AD.smcp
Substitution2: "'smcp' Lowercase to Small Capitals lookup 16-1" uni00AD.smcp
EndChar

StartChar: lslash
Encoding: 283 322 263
Width: 330
VWidth: 0
Flags: HW
LayerCount: 2
Fore
SplineSet
68.32 388.8 m 1
 73.7 423.4 l 1
 151.74 458.38 l 1
 203.4 783 l 1
 245.42 783 l 1
 196.78 478.52 l 1
 343.84 544.8 l 1
 337.46 511.2 l 1
 191.74 443.92 l 1
 150.06 189 l 2
 130.42 66.24 159.32 49.34 207.56 41 c 2
 207.56 41 275.62 27.62 280.58 27.62 c 1
 276.54 0 l 1
 207.22 0 l 2
 128.18 0 87.06 48.34 109.06 189 c 2
 146.36 424.78 l 1
 68.32 388.8 l 1
EndSplineSet
Substitution2: "'smcp' Lowercase to Small Capitals lookup 16-1" lslash.smcp
EndChar

StartChar: dcroat
Encoding: 285 273 265
Width: 531
VWidth: 0
Flags: HW
LayerCount: 2
Fore
SplineSet
89.66 268.94 m 0
 112 406.98 164.26 539 315.26 539 c 0
 360.26 539 445.26 525 505.26 499 c 1
 526.56 632.5 l 1
 397.96 632.5 l 1
 402.34 660.1 l 1
 530.94 660.1 l 1
 551.26 785 l 1
 590.26 785 l 1
 570.28 660.1 l 1
 649.54 660.1 l 1
 645.16 632.5 l 1
 565.9 632.5 l 1
 465.26 0 l 1
 438.66 0 l 1
 435.26 59 l 1
 405.6 36.7 300.34 -6 232.34 -6 c 0
 89.04 -6 70.32 146.94 89.66 268.94 c 0
130.66 263 m 0
 105.04 106 156.78 35 235.66 35 c 0
 314.66 35 382.64 61.64 439.64 86.94 c 1
 499.88 469.36 l 1
 433.88 487.36 385.54 498 308.54 498 c 0
 232.7 498 160.96 453.72 130.66 263 c 0
EndSplineSet
AlternateSubs2: "'salt' Access All Alternates in Latin lookup 4-1" dcroat.salt
Substitution2: "'smcp' Lowercase to Small Capitals lookup 16-1" dcroat.smcp
EndChar

StartChar: questiondown
Encoding: 127 191 266
Width: 539
VWidth: 0
Flags: HW
LayerCount: 2
Fore
SplineSet
27.32 -81.7 m 2
 43.32 18.64 l 2
 64.68 155.46 159.52 193.34 326.5 173.66 c 1
 326.5 174.68 342.84 273.28 342.5 275.32 c 1
 385.16 275.32 l 1
 363.78 139.72 l 1
 344.06 140.06 265.26 140.4 245.54 139.72 c 0
 160.24 139.04 98.28 106.76 83.98 17.32 c 2
 67.98 -84.34 l 2
 51.02 -192.1 90.26 -228.7 207.44 -228.7 c 2
 465.24 -228.7 l 2
 461.2 -255.28 l 1
 373.7 -265.64 289.86 -270.38 196.32 -268.68 c 1
 47.14 -270.66 10 -189.6 27.32 -81.7 c 2
356.12 393.62 m 2
 365.12 453.92 l 2
 366.564 464.285 373.82 469.66 383.2 469.66 c 2
 409.16 469.66 l 2
 418.54 469.66 424.251 463.299 422.9 453.92 c 2
 413.9 393.62 l 2
 412.56 383.24 405.86 377.2 395.14 377.2 c 2
 368.52 377.2 l 2
 358.14 377.2 354.78 384.24 356.12 393.62 c 2
EndSplineSet
Substitution2: "'case' Case-Sensitive Forms lookup 1-1" questiondown.alt
Substitution2: "'smcp' Lowercase to Small Capitals lookup 16-1" questiondown.smcp
EndChar

StartChar: at.alt
Encoding: 286 -1 267
Width: 745
VWidth: 0
Flags: HW
LayerCount: 2
Fore
SplineSet
76 99 m 2
 157 611 l 2
 172 703 224 789 362 789 c 2
 737 789 l 2
 848 789 894 724 877 611 c 2
 824 257 l 2
 818.32 217.92 799 93 655 93 c 2
 617.5 93 l 1
 611 153 l 1
 580 119 495 87 422 86 c 0
 311 84 236 138 270 365 c 0
 304 586 411 629.38 485 634 c 0
 561.28 638.62 661 621 712 572 c 1
 647.72 133.34 l 1
 695.72 133.34 765.38 141.68 783 257 c 2
 836 611 l 2
 853.32 727.58 802.36 747.66 734.64 747.66 c 2
 357.92 747.66 l 2
 246.42 747.66 208.28 676.32 198 611 c 2
 117 99 l 2
 102.72 9.66 145.04 -48 231.04 -48 c 2
 615.72 -48 l 1
 611.68 -73.22 l 1
 561.68 -83.22 447 -89 321 -89 c 2
 223 -89 l 2
 119 -89 59 -8 76 99 c 2
308.66 344 m 0
 286.04 163.36 338.72 128 416.72 127 c 0
 471.72 126 548.7 138 613.7 187 c 1
 669.98 560.84 l 1
 604.04 590.7 549.12 594 491.94 592.68 c 0
 436.64 591.36 336.28 565.96 308.66 344 c 0
EndSplineSet
EndChar

StartChar: questiondown.alt
Encoding: 287 -1 268
Width: 539
VWidth: 0
Flags: HW
LayerCount: 2
Fore
SplineSet
68.32 183.36 m 2
 83.66 282.38 l 2
 105 419.42 200.52 458.4 367.5 438.72 c 1
 367.5 439.74 383.84 538.34 383.5 540.38 c 1
 426.16 540.38 l 1
 404.78 404.78 l 1
 385.06 405.12 306.26 405.46 286.54 404.78 c 0
 201.24 404.1 139.28 371.82 124.98 282.38 c 2
 108.98 180.72 l 2
 92.36 76.36 131.26 36.36 248.44 36.36 c 2
 506.24 36.36 l 2
 502.2 9.78 l 1
 414.7 -0.58 330.86 -5.32 237.32 -3.62 c 1
 88.14 -5.6 51 72.16 68.32 183.36 c 2
399.1 671.88 m 2
 406.12 718.98 l 2
 407.46 729.36 414.82 734.72 424.2 734.72 c 2
 450.16 734.72 l 2
 459.54 734.72 465.24 728.36 463.9 718.98 c 2
 456.88 671.88 l 2
 455.54 661.5 448.84 655.46 438.12 655.46 c 2
 411.5 655.46 l 2
 401.12 655.46 397.76 662.5 399.1 671.88 c 2
EndSplineSet
EndChar

StartChar: oe
Encoding: 288 339 269
Width: 953
VWidth: 0
Flags: HW
LayerCount: 2
Fore
SplineSet
87.6 263.64 m 0
 121.6 480.64 190.58 536 354.68 536 c 0
 465.84 536 520.22 495.46 537 416.02 c 1
 569.38 493.16 628.4 539.68 755.9 541 c 0
 881.9 542.32 959.92 504 944.92 388 c 0
 916.92 169 571.8 225.2 534.8 240.2 c 1
 511.16 97.72 536.1 34.3 628.22 32.98 c 0
 704.88 32.32 791.96 40.6 869.96 51.6 c 1
 865.26 22 l 1
 781.26 -1 709.48 -7 626.48 -7 c 0
 545.96 -7 503.98 29.54 492.56 106.26 c 1
 453.54 24.9 388.58 -5 273.44 -5 c 0
 98.8 -5 57.6 73.64 87.6 263.64 c 0
128.6 258 m 0
 96.96 60.26 158.24 36 277.08 36 c 0
 397.26 36 463.48 65.18 494.8 258 c 0
 527.1 459.36 468.3 495 348.66 495 c 0
 231.38 495 163.56 473.68 128.6 258 c 0
539.5 267.8 m 1
 546.1 266.48 878.94 213.7 903.26 388 c 0
 915.92 476.82 858.72 500 759.82 500 c 0
 591.58 500 560.48 410.94 539.5 267.8 c 1
EndSplineSet
Substitution2: "'smcp' Lowercase to Small Capitals lookup 16-1" oe.smcp
EndChar

StartChar: OE
Encoding: 289 338 270
Width: 1042
VWidth: 0
Flags: HW
LayerCount: 2
Fore
SplineSet
112.58 365.62 m 0
 166.58 708.62 269.92 737 442.94 737 c 0
 555.44 737 634.08 719.7 659.9 610.78 c 1
 674.66 702.18 731.24 735 803.78 732 c 2
 1085.44 719.96 l 1
 1081.06 691 l 1
 797.06 691 l 2
 739.82 691 707.06 660.68 697.78 602 c 2
 663.48 384.18 l 1
 991.14 377.48 l 1
 986.76 348.18 l 1
 656.42 341.48 l 1
 621.78 123 l 2
 609.5 44.26 657.68 38 703.84 38 c 2
 977.84 38 l 1
 973.12 9.38 l 1
 697.12 -3 l 2
 633.58 -6 572.36 19.62 582.12 110.56 c 1
 525.46 11.3 444.2 -4 329.76 -4 c 0
 155.88 -4 59.58 32.62 112.58 365.62 c 0
153.58 361 m 0
 108.62 76.94 165.26 37 334.4 37 c 0
 495.54 37 573.5 80.98 617.78 361 c 0
 667.42 676.5 586.72 696 438.96 696 c 0
 296.06 696 204.54 685.08 153.58 361 c 0
EndSplineSet
EndChar

StartChar: guillemotright
Encoding: 123 187 272
Width: 556
VWidth: 0
Flags: HW
LayerCount: 2
Fore
SplineSet
81 175.58 m 1
 291.72 356.66 l 1
 143.56 531.12 l 1
 173.8 557.66 l 1
 347.84 352.3 l 1
 106.54 145.34 l 1
 81 175.58 l 1
269.06 175.58 m 1
 480.44 356 l 1
 331.62 531.78 l 1
 361.86 557.66 l 1
 535.9 352.3 l 1
 294.6 145.34 l 1
 269.06 175.58 l 1
EndSplineSet
EndChar

StartChar: cent
Encoding: 98 162 273
Width: 481
VWidth: 0
Flags: HW
LayerCount: 2
Fore
SplineSet
80 270.62 m 0
 120.38 517.08 202.02 538.38 314.98 536.68 c 1
 329 623.44 l 1
 361.28 623.44 l 1
 346.92 534.32 l 1
 396.58 530.3 456.56 520.64 502.86 510 c 1
 498.48 482.4 l 1
 498.48 482.4 380.94 495.68 291.94 495.68 c 0
 211.82 495.68 156 470.52 121.32 262 c 0
 90.36 75.38 140.18 35.32 219.04 35.32 c 0
 311.04 35.32 437.56 52.92 437.56 52.92 c 1
 432.52 23.32 l 1
 364.26 4.34 321.2 -2 261.92 -4.34 c 1
 248.92 -86.76 l 1
 216.64 -86.76 l 1
 228.98 -5.34 l 1
 116.36 -6.32 42.02 41.86 80 270.62 c 0
EndSplineSet
EndChar

StartChar: sterling
Encoding: 99 163 274
Width: 571
VWidth: 0
Flags: HW
LayerCount: 2
Fore
SplineSet
50 0 m 1
 54.38 29.3 l 1
 128.72 41 l 1
 175.98 343.2 l 1
 103.98 343.2 l 1
 108.34 367.74 l 1
 182.02 378.8 l 1
 202 505 l 2
 236.34 721.38 338.06 732 466 732 c 3
 523 732 640.52 720.62 640.52 720.62 c 1
 635.48 692 l 1
 463.66 692 l 2
 330.68 692 269.28 670.98 243 505 c 2
 223.02 378.8 l 1
 505.54 367.74 l 1
 501.18 343.2 l 1
 216.98 343.2 l 1
 169.72 41 l 1
 531.92 41 l 1
 525.2 0 l 1
 50 0 l 1
EndSplineSet
Substitution2: "'smcp' Lowercase to Small Capitals lookup 16-1" sterling.smcp
EndChar

StartChar: yen
Encoding: 101 165 275
Width: 589
VWidth: 0
Flags: HW
LayerCount: 2
Fore
SplineSet
106 182.7 m 1
 110.38 212 l 1
 295.84 212 l 1
 308.12 291.7 l 1
 123 291.7 l 1
 127.72 321 l 1
 310.48 321 l 1
 141.28 732 l 1
 185.62 732 l 1
 338.04 364.02 l 1
 630.76 732 l 1
 681.48 732 l 1
 354.84 321 l 1
 554.72 321 l 1
 550 291.7 l 1
 349.12 291.7 l 1
 336.84 212 l 1
 537.38 212 l 1
 533 182.7 l 1
 333.14 182.7 l 1
 305.88 0 l 1
 264.88 0 l 1
 292.14 182.7 l 1
 106 182.7 l 1
EndSplineSet
Substitution2: "'smcp' Lowercase to Small Capitals lookup 16-1" yen.smcp
EndChar

StartChar: section
Encoding: 103 167 276
Width: 556
VWidth: 0
Flags: HW
LayerCount: 2
Fore
SplineSet
93 5.06 m 1
 97.38 33 l 1
 343.58 33 l 2
 402.66 33 442.56 47.56 452.86 110 c 2
 464.52 183 l 2
 472.84 235.56 461.78 246.5 383.5 246.5 c 2
 226.34 246.5 l 2
 148.04 246.5 96.34 259.74 111.66 356.3 c 2
 121 420.28 l 2
 128.34 468.3 144.98 498.98 187.26 508 c 1
 148.98 521.1 143.32 555 148.66 590 c 2
 159.66 661.32 l 2
 175.32 758.3 242.26 784 309.32 784 c 3
 358.32 784 524.18 774.94 561.18 770.94 c 1
 557.14 743 l 1
 302.94 743 l 2
 237.26 743 208.98 711.22 200.66 660 c 2
 189.66 590 l 2
 181.02 535.5 213.64 526.5 268.68 526.5 c 2
 427.88 526.5 l 2
 531.36 526.5 554.84 484.7 542.52 411.38 c 2
 532.52 349.38 l 2
 527.2 313.46 517.2 269.68 470.92 265 c 1
 513.84 253.64 510.52 216 505.52 183 c 2
 493.86 110 l 2
 476.54 2.08 414.12 -8 336.86 -8 c 3
 287.86 -8 130 1.06 93 5.06 c 1
152.32 353 m 2
 142.02 287.54 165.96 287.5 230.68 287.5 c 2
 389.88 287.5 l 2
 474.62 287.5 482.9 298.28 491.52 354 c 2
 492.52 355 501.52 416 501.52 416 c 2
 510.16 470.8 499.94 486.5 421.5 486.5 c 2
 262.3 486.5 l 2
 198.84 486.5 172.96 484.12 161.66 414 c 2
 152.32 353 l 2
EndSplineSet
EndChar

StartChar: g.salt
Encoding: 291 -1 277
Width: 515
VWidth: 0
Flags: HW
LayerCount: 2
Fore
SplineSet
27.58 -114.68 m 0
 72.58 114 l 0
 80.22 166.5 112.12 192.74 154.86 196.04 c 1
 113.54 221.4 95.92 291 103.92 344 c 0
 123.92 474 195.92 534.34 302.92 533 c 2
 403.3 531.66 l 2
 471.96 531 556.92 485 538.92 344 c 0
 528.92 267 484.26 165.16 345.56 165.16 c 2
 198.56 165.16 l 2
 144.94 165.16 121.92 153 116.92 121 c 0
 112.92 95 111.46 76.1 146.32 71.78 c 2
 366.62 43.48 l 2
 434.62 34.48 504.92 -4 491.92 -83 c 2
 486.92 -116 l 2
 476.58 -183.36 458.6 -270 311.6 -270 c 2
 178.54 -270 l 2
 76.54 -270 8.58 -210.68 27.58 -114.68 c 0
68.92 -116 m 2
 51.6 -200.26 118.14 -228.66 173.28 -228.66 c 2
 319.32 -228.66 l 2
 411.98 -228.66 436.28 -177.52 445.92 -116 c 2
 450.26 -88 l 2
 459.24 -31.76 424.6 -4.14 343.9 6.5 c 2
 100.56 38.16 l 1
 68.92 -116 l 2
144.92 344 m 0
 135.6 288.4 156.46 206.5 233.46 206.5 c 2
 358.88 206.5 l 2
 464.24 206.5 491.92 306 497.92 344 c 0
 511.54 430.02 473.18 492 399.18 492 c 2
 294.88 492 l 2
 212.88 492 162.5 444.18 144.92 344 c 0
EndSplineSet
EndChar

StartChar: guillemotleft
Encoding: 107 171 278
Width: 559
VWidth: 0
Flags: HW
LayerCount: 2
Fore
SplineSet
106 354 m 1
 343.34 557.66 l 1
 368.88 528.08 l 1
 162.78 350.3 l 1
 312.92 171.88 l 1
 283.34 145.34 l 1
 106 354 l 1
292.7 354 m 1
 530.04 557.66 l 1
 555.58 528.08 l 1
 348.16 350.96 l 1
 500.94 171.22 l 1
 470.04 145.34 l 1
 292.7 354 l 1
EndSplineSet
EndChar

StartChar: paragraph
Encoding: 118 182 279
Width: 566
VWidth: 0
Flags: HW
LayerCount: 2
Fore
SplineSet
118 503.62 m 2
 132.66 596.62 l 2
 148.68 698.08 234.34 732 311.34 732 c 1
 656.54 732 l 1
 649.82 689 l 1
 580.82 689 l 1
 471.54 0 l 1
 430.54 0 l 1
 539.82 691 l 1
 399.62 691 l 1
 247.34 -270 l 1
 206.34 -270 l 1
 307.68 367.38 l 1
 300.36 363.4 277.62 355.66 249.98 356.32 c 1
 144.94 356.32 106.68 431.06 118 503.62 c 2
159.34 501 m 2
 144.38 405.26 230.06 396 256.7 396 c 10
 311.72 396 l 25
 358.62 692.02 l 25
 304.62 692.02 l 2
 226.42 692.02 181.98 648.82 173.34 591.32 c 10
 159.34 501 l 2
EndSplineSet
EndChar

StartChar: macron
Encoding: 111 175 280
Width: 392
VWidth: 0
Flags: HW
LayerCount: 2
Fore
SplineSet
134 531 m 1
 138.72 562.32 l 1
 404.32 562.32 l 1
 399.6 531 l 1
 134 531 l 1
EndSplineSet
Substitution2: "'smcp' Lowercase to Small Capitals lookup 16-1" macron.smcp
EndChar

StartChar: copyright
Encoding: 105 169 281
Width: 845
VWidth: 0
Flags: HW
LayerCount: 2
Fore
SplineSet
110.66 369.98 m 0
 137 538.08 212.24 732 404.24 732 c 2
 661.6 732 l 2
 856.24 732 841.56 489.36 821.56 365.36 c 0
 790.56 172.36 700.66 0 549.66 0 c 2
 292.3 0 l 2
 105.58 0 91.36 245.16 110.66 369.98 c 0
141.66 368 m 0
 116.02 215.76 151.92 31 293.64 31 c 2
 553.7 31 l 2
 654.8 31 755.26 146.18 790.56 368 c 0
 816.82 534.86 805.8 701 661.6 701 c 2
 399.52 701 l 2
 296.34 701 184.94 629.14 141.66 368 c 0
286 366.98 m 0
 313.02 533.42 383.66 583 464.66 583 c 3
 505.66 583 585.32 573.62 639.32 563.62 c 1
 635.94 540 l 1
 573.94 549 492.94 552 459.94 552 c 3
 390.1 552 338.28 496.04 316.66 362 c 0
 299.04 249.62 314.9 178 400.38 178 c 3
 472.38 178 542.8 185.04 587.38 194 c 1
 583.34 170.38 l 17
 516.34 152.38 462.66 147 395.66 147 c 3
 316.66 147 259.02 197.8 286 366.98 c 0
EndSplineSet
EndChar

StartChar: registered
Encoding: 110 174 282
Width: 845
VWidth: 0
Flags: HW
LayerCount: 2
Fore
SplineSet
110.66 369.32 m 0
 137 537.42 212.24 732 404.24 732 c 2
 661.6 732 l 2
 856.24 732 841.56 489.36 821.56 365.36 c 0
 790.56 172.36 700.66 0 549.66 0 c 2
 292.3 0 l 2
 105.58 0 91.36 244.5 110.66 369.32 c 0
141.66 368 m 0
 116.02 215.76 150.6 31 292.32 31 c 2
 553.7 31 l 2
 654.8 31 755.26 146.18 790.56 368 c 0
 816.82 534.86 806.46 701 662.26 701 c 2
 399.52 701 l 2
 296.34 701 184.94 629.14 141.66 368 c 0
285.96 153 m 1
 353.3 580 l 1
 530.3 580 l 2
 591.54 580 653 556 637.36 448.64 c 0
 620.72 330.24 547.78 341.86 513.44 337.5 c 1
 588.66 153 l 1
 554.28 153 l 1
 479.06 337.52 l 1
 347.28 344.9 l 1
 316.96 153 l 1
 285.96 153 l 1
350.32 365.8 m 1
 502.32 365.8 l 2
 564.88 365.8 594.72 379.46 606.36 452.32 c 0
 619 530.5 582.66 549 531.58 549 c 2
 379.58 549 l 1
 350.32 365.8 l 1
EndSplineSet
EndChar

StartChar: plusminus
Encoding: 113 177 283
Width: 516
VWidth: 0
Flags: HW
LayerCount: 2
Fore
SplineSet
69 120 m 1
 75.72 161 l 1
 471.92 161 l 1
 465.2 120 l 1
 69 120 l 1
113.7 402.84 m 1
 120.08 443.84 l 1
 297.34 443.84 l 1
 325.66 621.44 l 1
 366.66 621.44 l 1
 338.34 443.84 l 1
 516.28 443.84 l 1
 509.9 402.84 l 1
 331.96 402.84 l 1
 303.96 225.24 l 1
 262.96 225.24 l 1
 290.96 402.84 l 1
 113.7 402.84 l 1
EndSplineSet
EndChar

StartChar: logicalnot
Encoding: 108 172 284
Width: 532
VWidth: 0
Flags: HW
LayerCount: 2
Fore
SplineSet
90 272.5 m 1
 96.72 313.5 l 1
 503.92 313.5 l 1
 494.92 256.5 488.56 216 479.56 159 c 1
 438.56 159 l 1
 456.2 272.5 l 1
 90 272.5 l 1
EndSplineSet
EndChar

StartChar: guilsinglleft
Encoding: 292 8249 285
Width: 285
VWidth: 0
Flags: HW
LayerCount: 2
Fore
SplineSet
38 354 m 1
 276 557 l 1
 301.54 528.08 l 1
 92.8 350.3 l 1
 245.58 172.54 l 1
 216 146 l 1
 38 354 l 1
EndSplineSet
EndChar

StartChar: guilsinglright
Encoding: 293 8250 286
Width: 369
VWidth: 0
Flags: HW
LayerCount: 2
Fore
SplineSet
106 175.58 m 1
 318.04 356 l 1
 168.56 531.78 l 1
 197.48 557 l 1
 372.84 352.3 l 1
 130.88 146 l 1
 106 175.58 l 1
EndSplineSet
EndChar

StartChar: perthousand
Encoding: 294 8240 287
Width: 1344
VWidth: 0
Flags: HW
LayerCount: 2
Fore
SplineSet
83 474 m 2
 104 607 l 2
 117 691.32 147.94 732 252.34 732 c 2
 353.34 732 l 2
 447.26 732 474.34 694.04 461 607 c 2
 440 474 l 18
 426.32 386.28 395.34 349 293.32 349 c 2
 192.32 349 l 2
 102.14 349 70 389.34 83 474 c 2
115 474 m 2
 103.04 400.58 128.26 381 195.72 381 c 2
 296.72 381 l 2
 366.24 381 396.04 398.94 408 474 c 10
 429 607 l 2
 439.64 675.14 425.08 700 349.28 700 c 2
 248.28 700 l 2
 176.42 700 147.62 681.04 136 607 c 2
 115 474 l 2
193 0 m 1
 747 732 l 1
 785 732 l 1
 231 0 l 1
 193 0 l 1
525.92 126.98 m 2
 546.92 259.98 l 2
 559.92 344.3 589.54 384.98 693.94 384.98 c 2
 794.94 384.98 l 2
 888.86 384.98 917.26 347.02 903.92 259.98 c 2
 882.92 126.98 l 18
 869.24 39.26 837.26 1.98 735.24 1.98 c 2
 634.24 1.98 l 2
 544.06 1.98 512.92 42.32 525.92 126.98 c 2
557.92 126.98 m 2
 545.96 53.56 570.18 33.98 637.64 33.98 c 2
 738.64 33.98 l 2
 808.16 33.98 838.96 51.92 850.92 126.98 c 10
 871.92 259.98 l 2
 882.56 328.12 867 352.98 791.2 352.98 c 2
 690.2 352.98 l 2
 618.34 352.98 590.54 334.02 578.92 259.98 c 2
 557.92 126.98 l 2
950.58 125 m 2
 971.58 258 l 2
 984.58 342.32 1014.86 383 1119.26 383 c 2
 1220.26 383 l 2
 1314.18 383 1341.92 345.04 1328.58 258 c 2
 1307.58 125 l 18
 1293.9 37.28 1261.92 0 1159.9 0 c 2
 1058.9 0 l 2
 968.72 0 937.58 40.34 950.58 125 c 2
982.58 125 m 2
 970.62 51.58 994.84 32 1062.3 32 c 2
 1163.3 32 l 2
 1232.82 32 1263.62 49.94 1275.58 125 c 10
 1296.58 258 l 2
 1307.22 326.14 1291.66 351 1215.86 351 c 2
 1114.86 351 l 2
 1043 351 1015.2 332.04 1003.58 258 c 2
 982.58 125 l 2
EndSplineSet
Substitution2: "'smcp' Lowercase to Small Capitals lookup 16-1" perthousand.smcp
EndChar

StartChar: dagger
Encoding: 295 8224 288
Width: 499
VWidth: 0
Flags: HW
LayerCount: 2
Fore
SplineSet
113 504.18 m 1
 117.38 533.48 l 1
 269.54 539.52 l 1
 312.2 770 l 1
 342.86 770 l 1
 312.24 539.52 l 1
 461.38 533.48 l 1
 457 504.18 l 1
 305.18 497.48 l 1
 208.52 -72 l 1
 177.86 -72 l 1
 262.48 497.48 l 1
 113 504.18 l 1
EndSplineSet
EndChar

StartChar: daggerdbl
Encoding: 296 8225 289
Width: 439
VWidth: 0
Flags: HW
LayerCount: 2
Fore
SplineSet
97 187.2 m 1
 101.38 216.5 l 1
 255.2 222.54 l 1
 297.14 497.48 l 1
 147 504.18 l 1
 152.04 533.48 l 1
 303.54 539.52 l 1
 346.2 770 l 1
 376.52 770 l 1
 346.24 539.52 l 1
 496.04 533.48 l 1
 491 504.18 l 1
 339.84 497.48 l 1
 293.24 222.54 l 1
 445.38 216.5 l 1
 441 187.2 l 1
 285.5 180.5 l 1
 242.52 -72 l 1
 211.86 -72 l 1
 248.82 180.5 l 1
 97 187.2 l 1
EndSplineSet
EndChar

StartChar: trademark
Encoding: 297 8482 290
Width: 631
VWidth: 0
Flags: HW
LayerCount: 2
Fore
SplineSet
47 701 m 1
 51.72 732 l 1
 310.72 732 l 1
 306 701 l 1
 192.5 701 l 1
 142.22 383 l 1
 111.22 383 l 1
 161.5 701 l 1
 47 701 l 1
294.72 383 m 1
 376.72 732 l 1
 403.04 732 l 1
 484.46 434.24 l 1
 646.34 732 l 1
 677.72 732 l 1
 653.72 383 l 1
 624.04 383 l 1
 643 660.9 l 1
 491.2 383 l 1
 466.58 383 l 1
 389.88 661.9 l 1
 325.06 383 l 1
 294.72 383 l 1
EndSplineSet
EndChar

StartChar: notequal
Encoding: 298 8800 291
Width: 547
VWidth: 0
Flags: HW
LayerCount: 2
Fore
SplineSet
125 212 m 1
 132.06 254.7 l 1
 270.48 254.7 l 1
 421.92 452.3 l 1
 162.94 452.3 l 1
 170 495 l 1
 454.2 495 l 1
 512.2 570 l 1
 544.82 570 l 1
 486.82 495 l 1
 597 495 l 1
 589.94 452.3 l 1
 454.54 452.3 l 1
 303.1 254.7 l 1
 559.06 254.7 l 1
 552 212 l 1
 269.82 212 l 1
 203.82 126 l 1
 171.2 126 l 1
 237.2 212 l 1
 125 212 l 1
EndSplineSet
EndChar

StartChar: infinity
Encoding: 299 8734 292
Width: 688
VWidth: 0
Flags: HW
LayerCount: 2
Fore
SplineSet
56.64 343.64 m 0
 68.26 433.36 99.2 514 237.86 514 c 3
 314.42 514 378 437.96 406.34 379.3 c 1
 450.7 435.32 538.1 514 614.76 514 c 3
 750.04 514 754.94 417.78 743.96 337.04 c 0
 730.66 243 692.46 168.34 562.4 168.34 c 3
 481.24 168.34 420.3 239.92 393.58 306.7 c 1
 349.98 239.44 278.14 169 188.14 169 c 3
 63.86 169 44.7 255.72 56.64 343.64 c 0
98.3 342.32 m 0
 85.7 258 106.3 210 192.88 210 c 3
 273.76 210 343.8 293.98 381.5 342.32 c 1
 348.92 406.18 297.36 473 233.78 473 c 3
 140.84 473 111.56 432.62 98.3 342.32 c 0
419.1 342.32 m 1
 448.06 275.5 494.84 210 566.48 210 c 3
 661.3 210 690.66 266.2 702.3 341 c 0
 714.6 418.44 706.92 473 608.04 473 c 3
 550.4 473 466.36 401.56 419.1 342.32 c 1
EndSplineSet
EndChar

StartChar: lessequal
Encoding: 300 8804 293
Width: 562
VWidth: 0
Flags: HW
LayerCount: 2
Fore
SplineSet
100 119.84 m 1
 106.72 160.84 l 1
 484.04 160.84 l 1
 477.32 119.84 l 1
 100 119.84 l 1
147 418.54 m 1
 153.4 458.94 l 1
 537.9 640.74 l 1
 530.18 595.06 l 1
 198.74 436.72 l 1
 478.96 266.74 l 1
 471.9 224.74 l 1
 147 418.54 l 1
EndSplineSet
EndChar

StartChar: greaterequal
Encoding: 301 8805 294
Width: 451
VWidth: 0
Flags: HW
LayerCount: 2
Fore
SplineSet
66 119.84 m 1
 72.72 160.84 l 1
 450.04 160.84 l 1
 443.32 119.84 l 1
 66 119.84 l 1
104.14 223.38 m 1
 111.2 269.74 l 1
 446.34 438.7 l 1
 162.42 598.42 l 1
 170.14 639.38 l 1
 496.04 457.58 l 1
 489.64 417.18 l 1
 104.14 223.38 l 1
EndSplineSet
EndChar

StartChar: circumflex
Encoding: 302 710 295
Width: 333
VWidth: 0
Flags: W
HStem: 531 130
VStem: 66 278.8
DStem2: 66 531 105.08 531 0.751096 0.660193<29.3528 191.964> 251.9 661 230.06 635.12 0.581416 -0.813607<8.35802 140.41>
LayerCount: 2
Fore
SplineSet
66 531 m 1
 213.9 661 l 1
 251.9 661 l 1
 344.8 531 l 1
 311.48 531 l 1
 230.06 635.12 l 1
 105.08 531 l 1
 66 531 l 1
EndSplineSet
Substitution2: "'smcp' Lowercase to Small Capitals lookup 16-1" circumflex.smcp
EndChar

StartChar: tilde
Encoding: 303 732 296
Width: 477
VWidth: 0
Flags: HW
LayerCount: 2
Fore
SplineSet
134 572 m 17
 175.04 603.02 213.74 632.04 253.42 632.04 c 1
 296.16 631.02 333.34 572.64 363.98 572.3 c 1
 397.88 571.96 449.4 604.94 468.6 618.84 c 9
 477 599.94 l 17
 436.64 568.98 400.94 537.6 358.26 537.94 c 1
 311.5 538.28 281.7 598.02 247.68 597.68 c 1
 207.64 597.34 179.02 574.7 141.74 552.78 c 9
 134 572 l 17
EndSplineSet
Substitution2: "'smcp' Lowercase to Small Capitals lookup 16-1" tilde.smcp
EndChar

StartChar: ring
Encoding: 304 730 297
Width: 333
VWidth: 0
Flags: HW
LayerCount: 2
Fore
SplineSet
140.1 632 m 0
 147.735 689 200.383 735 256.383 735 c 0
 312.383 735 350.735 689 343.1 632 c 0
 335.464 575 284.505 530 228.505 530 c 0
 172.505 530 132.464 575 140.1 632 c 0
165.98 632 m 24
 159.807 590.12 190.033 556.22 231.913 556.22 c 27
 273.793 556.22 311.707 590.12 317.88 632 c 24
 324.052 673.88 294.855 708.78 252.975 708.78 c 27
 211.095 708.78 172.152 673.88 165.98 632 c 24
EndSplineSet
Substitution2: "'smcp' Lowercase to Small Capitals lookup 16-1" ring.smcp
EndChar

StartChar: ellipsis
Encoding: 305 8230 298
Width: 744
VWidth: 0
Flags: HW
LayerCount: 2
Fore
SplineSet
146.441 15.74 m 2
 156.752 76.04 l 2
 158.304 86.42 164.805 92.46 175.525 92.46 c 2
 200.805 92.46 l 2
 212.205 92.46 216.03 86.1 214.532 76.04 c 2
 204.221 15.74 l 2
 202.221 4.38125 195.38 0 186 0 c 2
 160.06 0 l 2
 150.68 0 145.02 6.38514 146.441 15.74 c 2
418.441 15.74 m 2
 428.752 76.04 l 2
 430.304 86.42 436.805 92.46 447.525 92.46 c 2
 473.465 92.46 l 2
 484.865 92.46 488.03 86.1 486.532 76.04 c 2
 476.221 15.74 l 2
 474.221 4.38125 467.38 0 458 0 c 2
 432.72 0 l 2
 423.34 0 417.02 6.38514 418.441 15.74 c 2
689.121 15.74 m 2
 699.432 76.04 l 2
 700.984 86.42 707.485 92.46 718.205 92.46 c 2
 744.145 92.46 l 2
 755.545 92.46 758.71 86.1 757.212 76.04 c 2
 746.901 15.74 l 2
 744.901 4.38125 738.06 0 728.68 0 c 2
 703.4 0 l 2
 694.02 0 687.7 6.38514 689.121 15.74 c 2
EndSplineSet
EndChar

StartChar: fraction
Encoding: 306 8260 299
Width: 576
VWidth: 0
Flags: HW
LayerCount: 2
Fore
SplineSet
28.8 0 m 1
 521.819 757.08 l 1
 557.119 757.08 l 1
 64.1 0 l 1
 28.8 0 l 1
EndSplineSet
EndChar

StartChar: dotlessi
Encoding: 307 305 300
Width: 175
VWidth: 0
Flags: HW
LayerCount: 2
Fore
SplineSet
60 0 m 1
 144 531 l 1
 185 531 l 1
 101 0 l 1
 60 0 l 1
EndSplineSet
EndChar

StartChar: fi
Encoding: 308 64257 301
Width: 559
VWidth: 0
Flags: HW
LayerCount: 2
Fore
SplineSet
60 486.7 m 1
 64.38 515.32 l 1
 165.06 527.7 l 1
 173.72 584 l 2
 193.06 705.06 266.16 786 387.86 786 c 1
 429.64 786 509.68 776.9 567.9 761.9 c 1
 563.86 736.66 l 1
 562.86 736.66 394.52 745.68 394.52 745.68 c 2
 314.08 749.68 233.7 704.88 214.72 584 c 2
 206.06 527.7 l 1
 571.98 519.68 l 1
 489.32 0 l 1
 447.98 0 l 1
 525.26 486.7 l 1
 198.66 486.7 l 1
 121.38 0 l 1
 80.38 0 l 1
 157.66 486.7 l 1
 60 486.7 l 1
EndSplineSet
Ligature2: "'liga' Standard Ligatures lookup 15-1" f i
EndChar

StartChar: fl
Encoding: 309 64258 302
Width: 694
VWidth: 0
Flags: HW
LayerCount: 2
Fore
SplineSet
92 490 m 1
 96.38 517.94 l 1
 197.74 531 l 1
 205.06 578.22 l 2
 224.78 702.88 288.2 785.32 406.84 785.32 c 1
 655.02 785.32 l 1
 561.02 190.98 l 2
 539.08 53.7 586.12 48.68 618.52 42.98 c 2
 618.52 42.98 686.58 29.6 691.54 29.6 c 1
 687.16 1.98 l 1
 621.8 1.98 l 2
 538.14 1.98 498.68 56.26 520.02 190.98 c 2
 608.3 745 l 1
 406.8 745 l 2
 330.54 745 265.04 700.14 246.06 578.22 c 2
 238.74 531 l 1
 391.86 531 l 1
 385.14 490 l 1
 231.68 490 l 1
 153.04 0 l 1
 112.04 0 l 1
 190.34 490 l 1
 92 490 l 1
EndSplineSet
Ligature2: "'liga' Standard Ligatures lookup 15-1" f l
EndChar

StartChar: exclamdown.alt
Encoding: 310 -1 303
Width: 303
VWidth: 0
Flags: HW
LayerCount: 2
Fore
SplineSet
92 0.34 m 1
 182 534.64 l 1
 215.42 534.64 l 1
 136.78 0.34 l 1
 92 0.34 l 1
189.7 656.32 m 2
 199.68 716.26 l 2
 201.275 726.262 208.4 730.34 217.78 730.68 c 1
 242.36 730.68 l 1
 251.06 730.34 257.243 724.598 255.76 715.24 c 2
 245.78 656.32 l 1
 244.1 646.96 238.42 640.6 228.38 639.24 c 1
 202.08 639.24 l 1
 192.38 639.58 188.7 646.94 189.7 656.32 c 2
EndSplineSet
EndChar

StartChar: ampersand.salt
Encoding: 311 -1 304
Width: 933
VWidth: 0
Flags: HW
LayerCount: 2
Fore
SplineSet
89 287.32 m 2
 103 378.3 l 2
 124.68 517.68 206.98 531.66 340.98 531.66 c 1
 793.2 531.66 l 1
 828.92 680 l 1
 857.2 680 l 1
 834.2 531.66 l 1
 989.2 531.66 l 1
 984.82 504.4 l 1
 827.48 491 l 1
 779.2 187 l 2
 753.22 23.12 624.56 0 519.18 0 c 2
 377 0 l 0
 273.82 0 192.68 19.34 211.64 169.84 c 1
 146.22 169.84 74.68 195.72 89 287.32 c 2
130 286 m 1
 119.36 220.18 166.42 210.5 217.36 210.16 c 1
 239 334.78 290.8 392 401.8 392 c 2
 530.8 392 l 1
 586.7 392 659.5 387.94 643.52 278.92 c 1
 627.18 178.2 586.92 169.5 494.78 169.5 c 2
 252.64 169.5 l 1
 236.68 51.82 290.74 42.02 378.72 41 c 1
 517.64 41 l 2
 616.48 41 719.6 68.1 738.2 187 c 2
 786.48 491 l 1
 332.94 491 l 0
 215.52 489 158.98 479.1 143.34 373.02 c 1
 130 286 l 1
259.02 210.16 m 1
 501.16 210.16 l 2
 569.62 210.16 592.88 217.4 602.52 280.9 c 0
 611.82 342.02 592.96 351 524.08 351 c 2
 395.08 351 l 2
 327.5 351 277.64 327.16 259.02 210.16 c 1
EndSplineSet
EndChar

StartChar: zero.tnum
Encoding: 312 -1 305
Width: 620
VWidth: 0
Flags: W
HStem: 0 41<154.437 463.13> 691 41<254.722 560.811>
DStem2: 83 162 124 162 0.15733 0.987546<-67.07 495.993> 525.2 162 566.2 162 0.15733 0.987546<-80.0386 487.751>
LayerCount: 2
Fore
SplineSet
83 162 m 10
 148 570 l 2
 165.34 680.38 245.24 732 345 732 c 2
 489.2 732 l 2
 610.86 732 644.86 656.92 631.2 570 c 10
 566.2 162 l 18
 547.2 43 475.26 0 373.2 0 c 2
 229 0 l 2
 138 0 64 42 83 162 c 10
124 162 m 2
 110 70.34 160 41 235.72 41 c 10
 379.92 41 l 18
 470.32 41 513.56 87.54 525.2 162 c 2
 590.2 570 l 2
 602.5 648.78 571.34 691 482.82 691 c 2
 338.62 691 l 2
 253.02 691 200.62 643.72 189 570 c 2
 124 162 l 2
EndSplineSet
Substitution2: "'onum' Oldstyle Figures in Latin lookup 5-1" zero.tosf
Substitution2: "'lnum' Lining Figures lookup 19-1" zero
EndChar

StartChar: one.tnum
Encoding: 313 -1 306
Width: 620
VWidth: 0
Flags: W
HStem: 0 38.4004<156.06 332.02 373.36 533.6> 614.46 27.9199<229.6 300.343> 712 20G<394.569 481.98>
DStem2: 332.02 38.4004 373.36 38.4004 0.154718 0.987959<6.39616 649.746>
LayerCount: 2
Fore
SplineSet
150 0 m 5
 156.06 38.4004 l 5
 332.02 38.4004 l 5
 435.24 679.9 l 5
 404.64 658.26 320.24 614.46 224.24 614.46 c 5
 229.6 642.38 l 5
 329.6 642.38 441.96 732 441.96 732 c 5
 481.98 732 l 5
 373.36 38.4004 l 5
 539.66 38.4004 l 5
 533.6 0 l 5
 150 0 l 5
EndSplineSet
Substitution2: "'onum' Oldstyle Figures in Latin lookup 5-1" one.tosf
Substitution2: "'lnum' Lining Figures lookup 19-1" one
EndChar

StartChar: two.tnum
Encoding: 314 -1 307
Width: 620
VWidth: 0
Flags: W
HStem: 0 41<149.48 541.5> 700 42<250.258 538.368> 700 28.6<171.32 363.648>
LayerCount: 2
Fore
SplineSet
63 0 m 25xc0
 69.38 38.3 l 17
 189.24 119.34 557.56 366.68 584.88 532.68 c 0
 604.8 653.6 553.04 700 446.84 700 c 2xc0
 166.94 700 l 2
 171.32 728.6 l 1xa0
 275.98 741.6 386.8 742 458.2 742 c 3
 601.78 742 644.46 649.22 627.2 530.68 c 0
 600.96 344.34 217.02 86.12 149.48 41 c 9
 548.22 41 l 25
 541.5 0 l 25
 63 0 l 25xc0
EndSplineSet
Substitution2: "'onum' Oldstyle Figures in Latin lookup 5-1" two.tosf
Substitution2: "'lnum' Lining Figures lookup 19-1" two
EndChar

StartChar: three.tnum
Encoding: 315 -1 308
Width: 620
VWidth: 0
Flags: W
HStem: -7 42<148.531 446.791> 9.78 25.22<78.7 161.266> 343.16 43.32<205.307 491.565> 350.16 28.96<194.34 407.573> 693 41<276.714 550.103> 693 24.88<179.96 263.147>
DStem2: 518.18 164.3 561.18 161 0.155771 0.987793<-81.1458 129.145 269.826 487.296>
LayerCount: 2
Fore
SplineSet
74 9.78 m 1x40
 78.7 35 l 1x40
 360.2 35 l 2
 428.66 35 501.9 64.3 518.18 164.3 c 2
 527.52 223.3 l 2
 543.52 323.3 467.8 341.16 411.82 343.16 c 2xa0
 189.62 350.16 l 2
 194.34 379.12 l 1x10
 418.54 386.48 l 1
 493.48 388.16 562.2 425.8 574.18 502.64 c 2
 584.52 571.64 l 2
 599.16 662.82 542.56 693 470.76 693 c 2x28
 176.26 693 l 1
 179.96 717.88 l 1x04
 252.5 735.68 365.5 736 482.5 734 c 0
 593.68 732 640.52 662.02 625.52 569 c 2
 615.18 500 l 2
 599.54 403.16 524.94 369.72 491.54 364.66 c 1
 524.58 354.22 585.16 314.48 570.52 220 c 1
 561.18 161 l 2
 544.18 52 479.18 -7 357.18 -7 c 0x88
 243.18 -7 127.3 -6.04 74 9.78 c 1x40
EndSplineSet
Substitution2: "'onum' Oldstyle Figures in Latin lookup 5-1" three.tosf
Substitution2: "'lnum' Lining Figures lookup 19-1" three
EndChar

StartChar: four.tnum
Encoding: 316 -1 309
Width: 620
VWidth: 0
Flags: W
HStem: 203.5 42.3604<134.98 471.58 520.32 563.095> 216.56 29.3008<556.445 605.94> 712 20G<447.805 512.88>
DStem2: 73 232.58 134.98 245.86 0.615907 0.787819<48.6367 633.927> 439.94 2 481.96 2 0.155869 0.987778<6.54956 203.969 253.409 526.682>
LayerCount: 2
Fore
SplineSet
73 232.58 m 5xa0
 463.44 732 l 5
 512.88 732 l 5
 134.98 245.86 l 5xa0
 478.3 245.86 l 5x60
 513.94 472 l 5
 546.14 547 l 5
 567.96 547 l 5
 520.32 245.86 l 5xa0
 610.32 245.86 l 5
 605.94 216.56 l 5x60
 513.6 203.5 l 5
 481.96 2 l 5
 439.94 2 l 5
 471.58 203.5 l 5
 87.7998 203.5 l 5
 73 232.58 l 5xa0
EndSplineSet
Substitution2: "'onum' Oldstyle Figures in Latin lookup 5-1" four.tosf
Substitution2: "'lnum' Lining Figures lookup 19-1" four
EndChar

StartChar: five.tnum
Encoding: 317 -1 310
Width: 620
VWidth: 0
Flags: W
HStem: -2.98 42.7<172.56 455.423> 11.78 27.94<83.38 221.491> 395.78 41.34<227.882 518.649> 691.68 41<249.26 632.6>
DStem2: 124 287.78 163.64 287.78 0.160919 0.986968<6.37881 69.4144 103.824 298.238> 529.98 169.02 570.32 167.02 0.158088 0.987425<-73.979 180.278>
LayerCount: 2
Fore
SplineSet
79 11.78 m 1x70
 83.38 39.72 l 1x70
 382.76 39.72 l 2
 452.42 39.72 517.38 90.1 529.98 169.02 c 2
 545.66 267.08 l 2
 552.64 309.94 559.32 395.78 446.92 395.78 c 1
 294.94 395.78 l 2
 236.8 395.78 173.3 349.7 163.64 287.78 c 1
 124 287.78 l 1
 216.32 732.68 l 17
 639.32 732.68 l 1
 632.6 691.68 l 1
 249.26 691.68 l 25
 185.06 383.02 l 1
 198.44 399.38 239.36 436.1 302.76 437.12 c 0
 368.62 438.82 419.68 436.78 450 436.78 c 0
 558.82 436.78 602 367.1 586.66 269.08 c 2
 570.32 167.02 l 2
 548.32 30.02 452.18 -1.28 380.32 -2.98 c 1xb0
 255.98 -5.36 169.4 -2.64 79 11.78 c 1x70
EndSplineSet
Substitution2: "'onum' Oldstyle Figures in Latin lookup 5-1" five.tosf
Substitution2: "'lnum' Lining Figures lookup 19-1" five
EndChar

StartChar: six.tnum
Encoding: 318 -1 311
Width: 620
VWidth: 0
Flags: W
HStem: -0.66 39.98<198.409 464.079> 371.16 41.66<227.445 516.369> 697 41<293.262 554.879> 697 28.6<433.431 623.48>
DStem2: 519.56 148.72 560.54 148 0.156617 0.987659<-74.8241 187.658>
LayerCount: 2
Fore
SplineSet
120 384 m 0xe0
 161.34 644.38 259.06 738 348 738 c 0xe0
 449 738 554.26 736.34 627.86 725.6 c 1
 623.48 697 l 1xd0
 349.66 697 l 2
 236.6 697 180 500.9 163.02 398.42 c 1
 250.02 408.42 361.62 412.48 435.62 412.82 c 0
 569.96 413.5 590.86 338.96 579.22 265.8 c 2
 560.54 148 l 2
 542.54 36 479.44 -0.66 385.44 -0.66 c 2
 253.62 -0.66 l 2
 149.38 -0.66 71.32 76.92 120 384 c 0xe0
158.64 371.16 m 1
 136.02 229.44 126.64 39.32 255.68 39.32 c 2
 384.88 39.32 l 2
 437.02 39.32 504.6 55.94 519.56 148.72 c 2
 537.24 261.18 l 2
 551.86 351.22 511.04 371.16 434.18 371.16 c 2
 158.64 371.16 l 1
EndSplineSet
Substitution2: "'onum' Oldstyle Figures in Latin lookup 5-1" six.tosf
Substitution2: "'lnum' Lining Figures lookup 19-1" six
EndChar

StartChar: seven.tnum
Encoding: 319 -1 312
Width: 620
VWidth: 0
Flags: W
HStem: 0 21G<231.02 289.636> 0 21G<231.02 289.636> 691 41<177.72 585.1>
DStem2: 231.02 0 279.42 0 0.454896 0.890545<22.017 776.436>
LayerCount: 2
Fore
SplineSet
171 691 m 1xa0
 177.72 732 l 1
 622.86 732 l 1
 637.24 700.5 l 1
 279.42 0 l 1
 231.02 0 l 1
 585.1 691 l 1
 171 691 l 1xa0
EndSplineSet
Substitution2: "'onum' Oldstyle Figures in Latin lookup 5-1" seven.tosf
Substitution2: "'lnum' Lining Figures lookup 19-1" seven
EndChar

StartChar: eight.tnum
Encoding: 320 -1 313
Width: 620
VWidth: 0
Flags: W
HStem: 0 41<164.767 451.621> 353.5 40<210.129 508.257> 696 41<258.622 551.254>
DStem2: 92 154 132.66 151 0.153343 0.988173<-60.6951 166.848 287.917 513.816> 512.88 151 556.2 154 0.159302 0.98723<-69.9437 170.359 285.019 501.232>
LayerCount: 2
Fore
SplineSet
92 154 m 2
 107 252.66 l 2
 119 327.98 180.9 363.62 222.96 365.32 c 1
 145.08 382.7 138 452.32 146 503.62 c 2
 156.34 568.62 l 2
 177.34 702.96 248.98 737 355.38 737 c 2
 481.58 737 l 2
 589.16 737 638.86 677.96 620.54 559.38 c 2
 610.2 494.38 l 2
 603.58 451.26 566.4 388.08 503.62 380.34 c 1
 566.2 361.02 580.52 308.2 571.2 252 c 2
 556.2 154 l 2
 534.52 19.92 441.24 0 372.82 0 c 2
 247.62 0 l 2
 76.98 0 86 114.36 92 154 c 2
132.66 151 m 2
 119.7 69.9 173.42 41 254.34 41 c 2
 374.92 41 l 2
 428.44 41 499.92 67.24 512.88 151 c 2
 529.88 256 l 2
 544.16 345.34 479.76 353.5 431.8 353.5 c 2
 289.96 353.5 l 2
 243.96 353.5 161.64 331.2 149.66 256 c 2
 132.66 151 l 2
186 494 m 2
 171.7 404.56 239.24 393.5 294.36 393.5 c 2
 433.56 393.5 l 2
 522.4 393.5 561.54 451.4 568.2 494 c 2
 579.2 562 l 2
 594.84 661.8 558 696 474.86 696 c 2
 349.98 696 l 2
 249.82 696 209.98 654.44 196.34 562 c 2
 186 494 l 2
EndSplineSet
Substitution2: "'onum' Oldstyle Figures in Latin lookup 5-1" eight.tosf
Substitution2: "'lnum' Lining Figures lookup 19-1" eight
EndChar

StartChar: nine.tnum
Encoding: 321 -1 314
Width: 620
VWidth: 0
Flags: W
HStem: -3.96 41<162.374 422.258> 8.44 28.6<91.38 281.208> 321.22 41.66<198.457 482.228> 694.72 39.98<250.728 520.106>
DStem2: 135.64 471.54 176.3 468.24 0.156617 0.987659<-66.5847 195.77>
LayerCount: 2
Fore
SplineSet
87 8.44 m 1x70
 91.38 37.04 l 1x70
 365.2 37.04 l 2
 480.24 37.04 534.86 233.14 551.84 335.62 c 1
 464.84 325.62 348.62 321.56 274.62 321.22 c 0
 140.28 320.54 124 398.38 135.64 471.54 c 2
 154.32 589.34 l 2
 172.32 701.34 244.66 734.7 338.66 734.7 c 2
 465.2 734.7 l 2
 569.44 734.7 644.2 651.18 595.52 344.1 c 0
 554.18 83.72 456.46 -3.96 367.52 -3.96 c 0xb0
 266.52 -3.96 156.18 -2.64 87 8.44 c 1x70
176.3 468.24 m 2
 161.68 378.2 212.4 362.88 283.98 362.88 c 2
 556.22 362.88 l 1
 578.84 504.6 590.86 694.72 462.48 694.72 c 2
 332.62 694.72 l 2
 280.48 694.72 208.28 678.1 193.98 585.32 c 2
 176.3 468.24 l 2
EndSplineSet
Substitution2: "'onum' Oldstyle Figures in Latin lookup 5-1" nine.tosf
Substitution2: "'lnum' Lining Figures lookup 19-1" nine
EndChar

StartChar: zero.tosf
Encoding: 322 -1 315
Width: 620
VWidth: 0
Flags: W
HStem: 0 41<154.536 465.197> 590.34 41<239.909 543.238>
DStem2: 83 162 124 162 0.155375 0.987856<-67.0032 391.987> 525.2 162 566.2 162 0.155375 0.987856<-79.5542 386.587>
LayerCount: 2
Fore
SplineSet
83 162 m 10
 131.34 469.34 l 2
 148.68 579.72 225.94 631.34 325.7 631.34 c 2
 469.9 631.34 l 2
 594.86 631.34 628.2 553.62 614.54 469.34 c 2
 566.2 162 l 18
 547.2 43 478.56 0 376.5 0 c 2
 233.62 0 l 2
 142.62 0 64 42 83 162 c 10
124 162 m 2
 110 70.34 160 41 235.72 41 c 10
 379.92 41 l 18
 470.32 41 513.56 87.54 525.2 162 c 2
 573.54 469.34 l 2
 585.84 548.12 555.34 590.34 466.82 590.34 c 2
 322.62 590.34 l 2
 237.02 590.34 183.96 543.06 172.34 469.34 c 2
 124 162 l 2
EndSplineSet
Substitution2: "'lnum' Lining Figures lookup 19-1" zero
EndChar

StartChar: one.tosf
Encoding: 323 -1 316
Width: 620
VWidth: 0
Flags: W
HStem: 0 38.4004<149.06 322.28 362.62 519.8> 514.46 27.9199<203.56 274.256>
DStem2: 322.28 38.4004 362.62 38.4004 0.153093 0.988212<6.17575 548.264>
LayerCount: 2
Fore
SplineSet
143 0 m 5
 149.06 38.4004 l 5
 322.28 38.4004 l 5
 408.16 579.9 l 5
 378.58 559.28 293.86 514.46 197.86 514.46 c 5
 203.56 542.38 l 5
 303.56 542.38 415.58 632 415.58 632 c 5
 454.58 632 l 5
 362.62 38.4004 l 5
 525.86 38.4004 l 5
 519.8 0 l 5
 143 0 l 5
EndSplineSet
Substitution2: "'lnum' Lining Figures lookup 19-1" one
EndChar

StartChar: two.tosf
Encoding: 324 -1 317
Width: 620
VWidth: 0
Flags: W
HStem: 0 41<160.52 537.2> 597.66 40.34<236.814 525.488>
LayerCount: 2
Fore
SplineSet
62 0 m 25
 68.38 38.3 l 17
 188.44 98.54 547.18 300.72 571.5 453 c 0
 588.12 558.34 530.48 598.34 426.56 597.66 c 1
 409.56 597.66 150.6 597.32 150.6 597.32 c 2
 155.32 624.6 l 1
 224.32 634.64 324.16 641.3 440.2 638 c 1
 587.34 638 628.46 552.2 613.86 447.7 c 0
 591.6 278.96 224.5 71 160.52 41 c 9
 543.92 41 l 25
 537.2 0 l 25
 62 0 l 25
EndSplineSet
Substitution2: "'lnum' Lining Figures lookup 19-1" two
EndChar

StartChar: three.tosf
Encoding: 325 -1 318
Width: 620
VWidth: 0
Flags: W
HStem: -105.62 42<133.351 435.463> -88.84 25.22<63.7 146.042> 244.54 43.32<190.306 476.565> 251.54 28.96<179.34 392.574> 594.38 41<261.296 534.058> 594.38 24.88<164.96 247.814>
DStem2: 503.18 62.38 546.18 60.4 0.16049 0.987037<-81.7043 129.909 273.241 485.167>
LayerCount: 2
Fore
SplineSet
59 -88.84 m 1x40
 63.7 -63.62 l 1x40
 345.2 -63.62 l 2
 413.66 -63.62 486.9 -37.62 503.18 62.38 c 2
 512.52 121.38 l 2
 528.52 221.38 452.8 242.54 396.82 244.54 c 2xa0
 174.62 251.54 l 2
 179.34 280.5 l 1x10
 403.54 287.86 l 1
 478.48 289.54 547.2 324.54 559.18 401.38 c 2
 569.52 470.38 l 2
 584.16 561.56 527.56 594.38 455.76 594.38 c 2x28
 161.26 594.38 l 1
 164.96 619.26 l 1x04
 237.5 637.06 349.18 637.38 466.18 635.38 c 0
 577.36 633.38 626.18 560.76 611.18 467.74 c 2
 600.18 397.42 l 2
 583.88 300.58 509.94 271.1 476.54 266.04 c 1
 509.58 255.6 570.16 213.88 555.52 119.4 c 1
 546.18 60.4 l 2
 529.18 -48.6 463.52 -105.62 341.52 -105.62 c 0x88
 227.52 -105.62 112.3 -104.66 59 -88.84 c 1x40
EndSplineSet
Substitution2: "'lnum' Lining Figures lookup 19-1" three
EndChar

StartChar: four.tosf
Encoding: 326 -1 319
Width: 620
VWidth: 0
Flags: W
HStem: 103.5 42.36<108.98 445.58 494.32 537.093> 116.56 29.3<530.447 579.94>
DStem2: 47 132.58 108.98 145.86 0.615907 0.787819<48.6361 633.927> 413.94 -98 455.96 -98 0.15587 0.987778<6.54964 203.969 253.408 526.68>
LayerCount: 2
Fore
SplineSet
47 132.58 m 1x80
 437.44 632 l 1
 486.88 632 l 1
 108.98 145.86 l 1x80
 452.3 145.86 l 1x40
 487.94 372 l 1
 520.14 447 l 1
 541.96 447 l 1
 494.32 145.86 l 1x80
 584.32 145.86 l 1
 579.94 116.56 l 1x40
 487.6 103.5 l 1
 455.96 -98 l 1
 413.94 -98 l 1
 445.58 103.5 l 1
 61.8 103.5 l 1
 47 132.58 l 1x80
EndSplineSet
Substitution2: "'lnum' Lining Figures lookup 19-1" four
EndChar

StartChar: five.tosf
Encoding: 327 -1 320
Width: 620
VWidth: 0
Flags: W
HStem: -103.66 42.7<156.56 439.423> -88.9 27.94<67.38 205.491> 295.1 41.34<211.882 502.649> 591 41<233.26 616.6>
DStem2: 108 187.1 147.64 187.1 0.160919 0.986968<6.37881 69.4144 103.824 298.238> 513.98 68.34 554.32 66.34 0.158088 0.987425<-73.979 180.278>
LayerCount: 2
Fore
SplineSet
63 -88.9 m 1x70
 67.38 -60.96 l 1x70
 366.76 -60.96 l 2
 436.42 -60.96 501.38 -10.58 513.98 68.34 c 2
 529.66 166.4 l 2
 536.64 209.26 543.32 295.1 430.92 295.1 c 1
 278.94 295.1 l 2
 220.8 295.1 157.3 249.02 147.64 187.1 c 1
 108 187.1 l 1
 200.32 632 l 17
 623.32 632 l 1
 616.6 591 l 1
 233.26 591 l 25
 169.06 282.34 l 1
 182.44 298.7 223.36 335.42 286.76 336.44 c 0
 352.62 338.14 403.68 336.1 434 336.1 c 0
 542.82 336.1 586 266.42 570.66 168.4 c 2
 554.32 66.34 l 2
 532.32 -70.66 436.18 -101.96 364.32 -103.66 c 1xb0
 239.98 -106.04 153.4 -103.32 63 -88.9 c 1x70
EndSplineSet
Substitution2: "'lnum' Lining Figures lookup 19-1" five
EndChar

StartChar: six.tosf
Encoding: 328 -1 321
Width: 620
VWidth: 0
Flags: W
HStem: -0.66 39.98<198.409 464.079> 371.16 41.66<227.445 516.369> 697 41<293.262 553.531> 697 28.6<432.909 623.48>
DStem2: 519.56 148.72 560.54 148 0.156617 0.987659<-74.8241 187.658>
LayerCount: 2
Fore
SplineSet
120 384 m 0xe0
 161.34 644.38 259.06 738 348 738 c 0xe0
 449 738 551.2 735.66 627.86 725.6 c 1
 623.48 697 l 1xd0
 349.66 697 l 2
 236.6 697 180 500.9 163.02 398.42 c 1
 250.02 408.42 361.62 412.48 435.62 412.82 c 0
 569.96 413.5 590.86 338.96 579.22 265.8 c 2
 560.54 148 l 2
 542.54 36 479.44 -0.66 385.44 -0.66 c 2
 253.62 -0.66 l 2
 149.38 -0.66 71.32 76.92 120 384 c 0xe0
158.64 371.16 m 1
 136.02 229.44 126.64 39.32 255.68 39.32 c 2
 384.88 39.32 l 2
 437.02 39.32 504.6 55.94 519.56 148.72 c 2
 537.24 261.18 l 2
 551.86 351.22 511.04 371.16 434.18 371.16 c 2
 158.64 371.16 l 1
EndSplineSet
Substitution2: "'lnum' Lining Figures lookup 19-1" six
EndChar

StartChar: seven.tosf
Encoding: 329 -1 322
Width: 620
VWidth: 0
Flags: W
HStem: 591 41<161.72 569.1>
DStem2: 215.02 -100 263.42 -100 0.454896 0.890545<22.017 776.436>
LayerCount: 2
Fore
SplineSet
155 591 m 1
 161.72 632 l 1
 606.86 632 l 1
 621.24 600.5 l 1
 263.42 -100 l 1
 215.02 -100 l 1
 569.1 591 l 1
 155 591 l 1
EndSplineSet
Substitution2: "'lnum' Lining Figures lookup 19-1" seven
EndChar

StartChar: eight.tosf
Encoding: 330 -1 323
Width: 620
VWidth: 0
Flags: W
HStem: 0 41<164.767 451.621> 353.5 40<210.129 508.257> 696 41<258.622 551.254>
DStem2: 92 154 132.66 151 0.153343 0.988173<-60.6951 166.848 287.917 513.816> 512.88 151 556.2 154 0.159302 0.98723<-69.9437 170.359 285.019 501.232>
LayerCount: 2
Fore
SplineSet
92 154 m 2
 107 252.66 l 2
 119 327.98 180.9 363.62 222.96 365.32 c 1
 145.08 382.7 138 452.32 146 503.62 c 2
 156.34 568.62 l 2
 177.34 702.96 248.98 737 355.38 737 c 2
 481.58 737 l 2
 589.16 737 638.86 677.96 620.54 559.38 c 2
 610.2 494.38 l 2
 603.58 451.26 566.4 388.08 503.62 380.34 c 1
 566.2 361.02 580.52 308.2 571.2 252 c 2
 556.2 154 l 2
 534.52 19.92 441.24 0 372.82 0 c 2
 247.62 0 l 2
 76.98 0 86 114.36 92 154 c 2
132.66 151 m 2
 119.7 69.9 173.42 41 254.34 41 c 2
 374.92 41 l 2
 428.44 41 499.92 67.24 512.88 151 c 2
 529.88 256 l 2
 544.16 345.34 479.76 353.5 431.8 353.5 c 2
 289.96 353.5 l 2
 243.96 353.5 161.64 331.2 149.66 256 c 2
 132.66 151 l 2
186 494 m 2
 171.7 404.56 239.24 393.5 294.36 393.5 c 2
 433.56 393.5 l 2
 522.4 393.5 561.54 451.4 568.2 494 c 2
 579.2 562 l 2
 594.84 661.8 558 696 474.86 696 c 2
 349.98 696 l 2
 249.82 696 209.98 654.44 196.34 562 c 2
 186 494 l 2
EndSplineSet
Substitution2: "'lnum' Lining Figures lookup 19-1" eight
EndChar

StartChar: nine.tosf
Encoding: 331 -1 324
Width: 620
VWidth: 0
Flags: W
HStem: -106 41<144.57 406.258> -93.6 28.6<75.38 266.136> 219.18 41.66<182.457 466.228> 592.68 39.98<234.728 504.106>
DStem2: 119.64 369.5 160.3 366.2 0.156617 0.987659<-66.5847 195.77>
LayerCount: 2
Fore
SplineSet
71 -93.6 m 1x70
 75.38 -65 l 1x70
 349.2 -65 l 2
 464.24 -65 518.86 131.1 535.84 233.58 c 1
 448.84 223.58 332.62 219.52 258.62 219.18 c 0
 124.28 218.5 108 296.34 119.64 369.5 c 2
 138.32 487.3 l 2
 156.32 599.3 228.66 632.66 322.66 632.66 c 2
 449.2 632.66 l 2
 553.44 632.66 628.2 549.14 579.52 242.06 c 0
 538.18 -18.32 440.46 -106 351.52 -106 c 0xb0
 250.52 -106 145.62 -106.72 71 -93.6 c 1x70
160.3 366.2 m 2
 145.68 276.16 196.4 260.84 267.98 260.84 c 2
 540.22 260.84 l 1
 562.84 402.56 574.86 592.68 446.48 592.68 c 2
 316.62 592.68 l 2
 264.48 592.68 192.28 576.06 177.98 483.28 c 2
 160.3 366.2 l 2
EndSplineSet
Substitution2: "'lnum' Lining Figures lookup 19-1" nine
EndChar

StartChar: partialdiff
Encoding: 332 8706 325
Width: 664
VWidth: 0
Flags: HW
LayerCount: 2
Fore
SplineSet
92.32 227 m 1
 116.32 378 212.42 448.5 379.42 448.5 c 3
 430.42 448.5 512.2 439.82 571.14 392.82 c 1
 599.4 594.18 557.22 699 395 699 c 3
 317.36 699 244.72 667.7 203.72 644.7 c 1
 195.98 668.6 l 1
 269.98 712.6 318.02 740 404.72 740 c 3
 586.18 740 646.1 601.32 611.12 386.34 c 0
 577.78 180.86 487.96 -5 298.74 -5 c 3
 171.6 -5 70.38 79.88 92.32 227 c 1
133.32 228.68 m 0
 112.7 96.96 200.54 36 304.74 36 c 3
 483.44 36 551.46 270.38 566.44 364.2 c 1
 535.44 383.2 453.32 407.5 377.32 407.5 c 3
 237.7 407.5 152.6 352.66 133.32 228.68 c 0
EndSplineSet
EndChar

StartChar: summation
Encoding: 333 8721 326
Width: 527
VWidth: 0
Flags: HW
LayerCount: 2
Fore
SplineSet
8 -200 m 1
 14.72 -156 l 1
 295.34 269.34 l 1
 149.28 691 l 1
 156 732 l 1
 655.6 732 l 1
 648.88 691 l 9
 198.02 691 l 17
 346.06 262.26 l 9
 71.18 -156 l 25
 514.32 -156 l 17
 507.6 -200 l 1
 8 -200 l 1
EndSplineSet
EndChar

StartChar: product
Encoding: 334 8719 327
Width: 601
VWidth: 0
Flags: HW
LayerCount: 2
Fore
SplineSet
106 0 m 1
 215.28 691 l 1
 129.28 691 l 1
 136 732 l 1
 693.8 732 l 1
 687.08 691 l 1
 600.08 691 l 1
 490.8 0 l 1
 449.8 0 l 1
 559.08 691 l 1
 256.28 691 l 1
 147 0 l 1
 106 0 l 1
EndSplineSet
EndChar

StartChar: pi
Encoding: 335 960 328
Width: 627
VWidth: 0
Flags: HW
LayerCount: 2
Fore
SplineSet
92 490 m 1
 98.72 531 l 1
 615.72 531 l 1
 609 490 l 1
 480 490 l 1
 428.72 166 l 2
 413.42 71.54 434.74 37 493.94 37 c 2
 585.44 37 l 1
 581.74 12.8 l 1
 533.28 -0.900001 525.94 -5 490.52 -5 c 3
 411.22 -5 366.72 34 387.72 166 c 2
 439 490 l 1
 219 490 l 1
 141.72 0 l 1
 100.72 0 l 1
 178 490 l 1
 92 490 l 1
EndSplineSet
EndChar

StartChar: integral
Encoding: 336 8747 329
Width: 403
VWidth: 0
Flags: HW
LayerCount: 2
Fore
SplineSet
-8 -188.9 m 1
 -3.96 -163 l 1
 90 -163 l 1
 177.16 -163 191.88 -59.18 215.48 88 c 9
 281.48 506 l 18
 306.48 665 331.34 800 448.34 800 c 3
 509.34 800 521.72 792.56 547.3 784.9 c 1
 543.26 759 l 1
 448.66 759 l 1
 359.86 759 343.44 634.04 322.48 506 c 1
 256.48 88 l 2
 231.48 -71 212.3 -204 92.3 -204 c 3
 51.3 -204 6.38 -199.6 -8 -188.9 c 1
EndSplineSet
EndChar

StartChar: Omega
Encoding: 337 937 330
Width: 782
VWidth: 0
Flags: HW
LayerCount: 2
Fore
SplineSet
71 0 m 1
 76.06 31.04 l 1
 248.02 42.36 l 1
 102.2 162.16 110.36 297.84 127 395.92 c 0
 153.36 549.58 233.12 739 495.12 739 c 3
 735.64 739 779.2 562.36 750.2 380.36 c 0
 731.2 263.36 672.9 130.3 532 41.36 c 1
 699.26 30.7 l 1
 694.2 0 l 1
 466.2 0 l 1
 473.26 42.36 l 1
 630.26 136.36 688.2 252.66 709.2 385 c 0
 734.84 548.48 708.2 698 490.38 698 c 3
 276.64 698 192.96 552.42 166 381.98 c 0
 143.02 238.76 168.06 158.36 298.06 42.36 c 1
 291 0 l 1
 71 0 l 1
EndSplineSet
EndChar

StartChar: radical
Encoding: 338 8730 331
Width: 573
VWidth: 0
Flags: HW
LayerCount: 2
Fore
SplineSet
64 317 m 1
 70.72 358 l 1
 181.88 358 l 1
 271.54 62.08 l 1
 654.72 800 l 1
 695.72 800 l 1
 284.38 0 l 1
 249.38 0 l 1
 153.32 317 l 1
 64 317 l 1
EndSplineSet
EndChar

StartChar: florin
Encoding: 339 402 332
Width: 500
VWidth: 0
Flags: HW
LayerCount: 2
Fore
SplineSet
-8 -187.58 m 1
 -2.32 -163 l 2
 77.78 -163 l 2
 173.52 -163 216.32 -11 241.88 88 c 2
 327.5 412.84 l 1
 225.5 412.84 l 1
 235.2 454.84 l 1
 337.2 454.84 l 1
 352.1 506 l 2
 392.28 656.42 431 800 551.96 800 c 3
 600.96 800 637 785.58 643 783.58 c 1
 637.32 759 l 2
 549.32 759 l 0
 460.84 759 426.96 623.48 394.12 506 c 2
 379.22 453.84 l 1
 522.2 453.84 l 1
 512.5 412.84 l 1
 369.52 412.84 l 1
 283.9 88 l 2
 251.64 -42.62 209.78 -204 75.8 -204 c 3
 36.8 -204 -2.66 -191.58 -8 -187.58 c 1
EndSplineSet
EndChar

StartChar: approxequal
Encoding: 340 8776 333
Width: 492
VWidth: 0
Flags: HW
LayerCount: 2
Fore
SplineSet
89 250.66 m 17
 130.04 281.68 171.12 313.08 218.62 313.08 c 3
 264.76 313.08 302.28 252.32 343.8 252.32 c 3
 385.52 252.32 421.06 281.9 455.22 300.56 c 9
 463.62 281.66 l 17
 423.26 250.7 385.52 216.26 337.4 216.26 c 3
 289.28 216.26 255.06 277.36 212.88 277.36 c 3
 170.46 277.36 140.48 253.7 96.74 231.44 c 9
 89 250.66 l 17
117 427 m 17
 158.04 458.02 199.12 489.42 246.62 489.42 c 3
 292.76 489.42 329.62 428.66 371.14 428.66 c 3
 412.86 428.66 449.06 458.24 483.22 476.9 c 9
 491.62 458 l 17
 451.26 427.04 413.52 392.6 365.4 392.6 c 3
 317.28 392.6 283.06 453.7 240.88 453.7 c 3
 198.46 453.7 168.48 430.04 124.74 407.78 c 9
 117 427 l 17
EndSplineSet
EndChar

StartChar: uni2206
Encoding: 341 8710 334
Width: 739
VWidth: 0
Flags: HW
LayerCount: 2
Fore
SplineSet
20 0 m 1
 464.82 732 l 1
 504.54 732 l 1
 705.36 0 l 1
 20 0 l 1
94.26 41 m 1
 650.94 41 l 1
 478.64 674.94 l 1
 94.26 41 l 1
EndSplineSet
EndChar

StartChar: lozenge
Encoding: 342 9674 335
Width: 536
VWidth: 0
Flags: HW
LayerCount: 2
Fore
SplineSet
79 373 m 1
 359.5 732 l 1
 400.5 732 l 1
 561 373 l 1
 284.5 0 l 1
 243.5 0 l 1
 79 373 l 1
128.44 370 m 1
 269.04 51.84 l 1
 512.6 377.72 l 1
 374.94 684.52 l 1
 128.44 370 l 1
EndSplineSet
EndChar

StartChar: onequarter
Encoding: 124 188 336
Width: 915
VWidth: 0
Flags: HW
LayerCount: 2
Fore
SplineSet
115 645.46 m 0
 118.04 667 l 0
 198.04 667 271.62 734 271.62 734 c 1
 303.9 734 l 1
 227.9 256 l 1
 194.94 256 l 1
 263.9 690.68 l 1
 246.9 677.68 192 645.46 115 645.46 c 0
197.08 0 m 1
 732.28 770 l 1
 766.22 770 l 1
 231.02 0 l 1
 197.08 0 l 1
508.1 165.78 m 1
 753.26 475 l 1
 792.94 475 l 1
 566.3 185.66 l 1
 793.3 185.66 l 1
 812.3 306.66 l 1
 835.76 354.66 l 1
 853.26 354.66 l 1
 826.26 185.66 l 1
 885.26 185.66 l 1
 881.88 162.7 l 1
 820.88 151.02 l 1
 797.26 0.66 l 1
 764.3 0.66 l 1
 787.92 151.02 l 1
 515.88 151.02 l 1
 508.1 165.78 l 1
EndSplineSet
Ligature2: "'frac' Diagonal Fractions lookup 11 subtable" one fraction four
Ligature2: "'frac' Diagonal Fractions lookup 11 subtable" one slash four
EndChar

StartChar: brokenbar
Encoding: 102 166 337
Width: 226
VWidth: 0
Flags: HW
LayerCount: 2
Fore
SplineSet
74 -72 m 1
 126 256 l 1
 167 256 l 1
 115 -72 l 1
 74 -72 l 1
153 429 m 1
 207 770 l 1
 248 770 l 1
 194 429 l 1
 153 429 l 1
EndSplineSet
EndChar

StartChar: currency
Encoding: 100 164 338
Width: 467
VWidth: 0
Flags: HW
LayerCount: 2
Fore
SplineSet
79 168.42 m 1
 128.36 210.44 l 1
 110.72 239.76 101.06 277.34 107.72 317.64 c 0
 114.04 357.58 132.62 391.22 161.22 419.2 c 1
 122.24 464.52 l 1
 144.48 482.7 l 1
 182.12 437.4 l 1
 213.76 461.68 250.72 475.98 290 475.98 c 0
 330.64 475.98 367.34 463 392 439.36 c 1
 446.02 484.38 l 1
 463.52 461.8 l 1
 409.84 416.78 l 1
 429.76 389.48 439.72 349.22 433.4 308.98 c 0
 427.08 268.7 409.14 234.38 381.86 204.74 c 1
 417.94 161.64 l 1
 394.36 143.12 l 1
 360.3 184.86 l 1
 328 158.26 289.34 143.34 247.74 143.34 c 0
 205.5 143.34 168.54 160.62 145.22 187.86 c 1
 96.52 145.5 l 1
 79 168.42 l 1
137.7 313.66 m 0
 126.06 238.5 173.3 174.32 247.78 173.98 c 0
 328.38 173.64 391.44 237.48 404.1 312.3 c 0
 416.76 385.44 367.56 446.36 290.68 446.02 c 0
 214.1 445.68 149.34 386.16 137.7 313.66 c 0
EndSplineSet
EndChar

StartChar: onehalf
Encoding: 125 189 339
Width: 960
VWidth: 0
Flags: HW
LayerCount: 2
Fore
SplineSet
115 645.46 m 0
 118.04 667 l 0
 198.04 667 271.62 734 271.62 734 c 1
 303.9 734 l 1
 227.9 256 l 1
 194.94 256 l 1
 263.9 690.68 l 1
 246.9 677.68 192 645.46 115 645.46 c 0
162.98 0 m 1
 698.18 770 l 1
 732.12 770 l 1
 196.92 0 l 1
 162.98 0 l 1
574.6 0.66 m 25
 578.98 29.62 l 17
 654.98 83.62 886.62 235.28 903.96 343.66 c 0
 913.94 407.22 900.94 449.7 817.86 449.7 c 2
 642.56 449.7 l 2
 640.56 449.7 645.26 473.94 646.26 472.94 c 1
 713.26 480.94 758.6 482.66 830.6 482.66 c 3
 926.22 482.66 950.24 409.78 939.6 344.02 c 1
 919.58 212.5 683.08 63.62 645.5 33.62 c 9
 888.98 33.62 l 25
 883.6 0.66 l 25
 574.6 0.66 l 25
EndSplineSet
Ligature2: "'frac' Diagonal Fractions lookup 11 subtable" one fraction two
Ligature2: "'frac' Diagonal Fractions lookup 11 subtable" one slash two
EndChar

StartChar: threequarters
Encoding: 126 190 340
Width: 1027
VWidth: 0
Flags: HW
LayerCount: 2
Fore
SplineSet
76 265.38 m 1
 79.38 284.62 l 1
 90.26 284.62 255.06 284.96 255.06 284.96 c 2
 322.1 284.96 361.4 305.92 372.36 375 c 2
 375.7 398 l 2
 384.36 454.94 339.18 479.86 292.96 480.86 c 2
 150.64 485.2 l 2
 154.68 508.12 l 1
 293.72 512.8 l 2
 349.94 514.8 401.7 542.74 407.7 589.34 c 2
 411.36 620.58 l 2
 421.66 684.36 382.92 700.38 331.9 700.38 c 2
 141.28 700.38 l 1
 144.32 721.6 l 1
 195.74 734.34 264.66 733.34 340.66 733 c 0
 424.26 732.66 453.32 679.96 444.32 619.96 c 2
 438.32 582.98 l 2
 430.32 529.38 379.26 498.32 353.9 493.6 c 1
 375.92 485.18 417.3 453.16 409.32 399 c 2
 404.66 369.68 l 2
 393.66 298.68 359.34 251.66 259.66 252 c 0
 185.66 252 121.42 252.64 76 265.38 c 1
300.36 0 m 1
 835.56 770 l 1
 869.5 770 l 1
 334.3 0 l 1
 300.36 0 l 1
592.44 165.78 m 1
 838.26 475 l 1
 877.6 475 l 1
 649.64 185.66 l 1
 878.3 185.66 l 1
 897.3 306.66 l 1
 920.76 354.66 l 1
 938.26 354.66 l 1
 911.26 185.66 l 1
 969.92 185.66 l 1
 966.54 162.7 l 1
 905.88 151.02 l 1
 882.26 0.66 l 1
 848.96 0.66 l 1
 872.92 151.02 l 1
 600.54 151.02 l 1
 592.44 165.78 l 1
EndSplineSet
Ligature2: "'frac' Diagonal Fractions lookup 11 subtable" three fraction four
Ligature2: "'frac' Diagonal Fractions lookup 11 subtable" three slash four
EndChar

StartChar: Hbar
Encoding: 345 294 343
Width: 617
VWidth: 0
Flags: HW
LayerCount: 2
Fore
SplineSet
85 0 m 1
 168.98 530.2 l 1
 105.34 530.2 l 1
 109.38 558.8 l 1
 173.02 558.8 l 1
 201 732 l 1
 242 732 l 1
 214.02 558.8 l 1
 610.22 558.8 l 1
 638.2 732 l 1
 679.2 732 l 1
 651.22 558.8 l 1
 714.18 558.8 l 1
 710.14 530.2 l 1
 647.18 530.2 l 1
 563.2 0 l 1
 522.2 0 l 1
 575.52 333.84 l 1
 179.32 333.84 l 1
 126 0 l 1
 85 0 l 1
185.36 375.18 m 1
 581.56 375.18 l 1
 606.18 530.2 l 1
 209.98 530.2 l 1
 185.36 375.18 l 1
EndSplineSet
Substitution2: "'c2sc' Capitals to Small Capitals in Latin lookup 17 subtable" hbar.smcp
EndChar

StartChar: hbar
Encoding: 350 295 348
Width: 538
VWidth: 0
Flags: HW
LayerCount: 2
Fore
SplineSet
60 0 m 1
 158.98 623.86 l 1
 86.6 623.86 l 1
 90.64 651.46 l 1
 163.02 651.46 l 1
 184 784 l 1
 226.02 784 l 1
 205.04 651.46 l 1
 345.64 651.46 l 1
 341.6 623.86 l 1
 201 623.86 l 1
 176.02 469 l 1
 241.7 505.98 317.92 540.34 393.82 540 c 0
 499.82 540 544.82 458 530.82 370 c 2
 471.82 0 l 1
 430.82 0 l 1
 489.82 370 l 2
 501.8 447.88 463.18 499.34 387.1 499 c 0
 310.66 498.66 252.66 478.34 171.64 439.36 c 1
 102.02 0 l 1
 60 0 l 1
EndSplineSet
Substitution2: "'smcp' Lowercase to Small Capitals lookup 16-1" hbar.smcp
EndChar

StartChar: jcircumflex
Encoding: 352 309 350
Width: 154
VWidth: 0
Flags: HW
LayerCount: 2
Fore
SplineSet
26 -270 m 1
 153 531 l 1
 195.7 531 l 1
 110.7 -4 l 2
 97.7 -90 82.34 -180.64 52.6 -270 c 1
 26 -270 l 1
38.06 596.34 m 1
 185.62 727.7 l 1
 223.62 727.7 l 1
 316.86 596.34 l 1
 282.18 596.34 l 1
 202.46 700.1 l 1
 78.5 596.34 l 1
 38.06 596.34 l 1
EndSplineSet
Substitution2: "'smcp' Lowercase to Small Capitals lookup 16-1" jcircumflex.smcp
EndChar

StartChar: f_f
Encoding: 367 64256 365
Width: 749
VWidth: 0
Flags: HW
LayerCount: 2
Fore
SplineSet
92 490 m 1
 96.38 517.3 l 1
 196.4 531 l 1
 210.4 620 l 2
 219.4 675.32 239.72 776 359.72 776 c 0
 397.5 776 434.18 767.34 475.9 756.96 c 1
 471.86 731.06 l 1
 471.2 731.06 360.76 735.68 360.76 735.68 c 2
 296.44 738.32 264.02 700.34 251.4 620 c 2
 237.4 531 l 1
 566.6 531 l 1
 582.26 630 l 2
 591.26 684 609.6 786 709.8 786 c 0
 746.26 786 814.96 778 853.38 766.3 c 1
 848.68 740.4 l 1
 848.02 740.4 715.14 745.68 715.14 745.68 c 2
 649.5 748.32 633.24 691.2 623.26 630 c 2
 607.6 531 l 1
 774.72 531 l 1
 768 490 l 1
 600.2 490 l 1
 522.92 -1.32 l 1
 481.92 -1.32 l 1
 559.2 490 l 1
 230 490 l 1
 152.72 0 l 1
 111.72 0 l 1
 189 490 l 1
 92 490 l 1
EndSplineSet
Ligature2: "'dlig' Discretionary Ligatures lookup 14-1" f f
EndChar

StartChar: f_f_i
Encoding: 368 64259 366
Width: 965
VWidth: 0
Flags: HW
LayerCount: 2
Fore
SplineSet
92 490 m 1
 96.38 517.3 l 1
 196.4 531 l 1
 210.4 620 l 2
 219.4 675.32 239.72 776 359.72 776 c 0
 397.5 776 434.18 767.34 475.9 756.96 c 1
 471.86 731.06 l 1
 471.2 731.06 360.76 735.68 360.76 735.68 c 2
 296.44 738.32 264.36 700.34 251.4 620 c 2
 236.72 531 l 1
 557.06 531 l 1
 565.06 584 l 2
 584.4 705.4 660.86 786 780.52 786 c 1
 828.76 786 900.68 780.64 958.9 765.64 c 1
 954.86 739.74 l 1
 954.2 739.74 784.54 745.02 784.54 745.02 c 2
 702.06 747.66 625.04 704.54 606.06 584 c 2
 598.06 531 l 1
 963.64 522.98 l 1
 880.98 0 l 1
 839.64 0 l 1
 916.92 490 l 1
 590.66 490 l 1
 513.38 0 l 1
 472.38 0 l 1
 549.66 490 l 1
 230 490 l 1
 152.72 0 l 1
 111.72 0 l 1
 189 490 l 1
 92 490 l 1
EndSplineSet
Ligature2: "'dlig' Discretionary Ligatures lookup 14-1" f f i
EndChar

StartChar: ffl
Encoding: 369 64260 367
Width: 1094
VWidth: 0
Flags: HW
LayerCount: 2
Fore
SplineSet
92 490 m 1
 96.38 517.3 l 1
 196.4 531 l 1
 210.4 620 l 2
 219.4 675.32 239.06 776 359.06 776 c 0
 396.84 776 434.18 767.34 475.9 756.96 c 1
 471.86 731.06 l 1
 471.2 731.06 360.76 735.68 360.76 735.68 c 2
 296.44 738.32 264.36 700.34 251.4 620 c 2
 236.72 531 l 1
 554.42 531 l 1
 562.42 587.3 l 2
 579.42 695.3 636.7 785.3 754.78 786 c 1
 1007.28 786 l 1
 913.28 190.98 l 2
 892.02 57.78 936.68 49.7 969.76 42.98 c 1
 969.76 42.98 1040.18 28.58 1047.18 28.58 c 1
 1042.48 1.98 l 1
 968.34 1.98 l 2
 880.94 1.98 850.94 55.92 872.28 190.98 c 2
 959.88 745.68 l 1
 758.14 745.68 l 2
 683.58 745.68 622.4 703.88 603.42 584 c 2
 595.42 531 l 1
 742.08 531 l 1
 735.36 490 l 1
 588.02 490 l 1
 510.74 0 l 1
 469.74 0 l 1
 547.02 490 l 1
 230 490 l 1
 152.72 0 l 1
 111.72 0 l 1
 189 490 l 1
 92 490 l 1
EndSplineSet
Ligature2: "'dlig' Discretionary Ligatures lookup 14-1" f f l
EndChar

StartChar: c_t
Encoding: 370 -1 368
Width: 803
VWidth: 0
Flags: HW
LayerCount: 2
Fore
SplineSet
80.66 266.66 m 0
 119.38 503.82 201.36 530 298 530 c 0
 657.02 531.02 l 1
 692.42 678.68 l 1
 722.02 678.68 l 1
 698.02 530.68 l 1
 866.22 530.68 l 1
 860.16 490.32 l 1
 691.96 490.32 l 1
 644.02 186.7 l 2
 622.08 49.42 667.42 44.74 701.52 38.7 c 2
 701.52 38.7 770.24 25.32 775.2 25.32 c 1
 770.82 -2.3 l 1
 702.06 -2.3 l 2
 614.32 -2.3 581.68 51.98 603.02 186.7 c 2
 650.96 489 l 1
 291.28 489 l 3
 214.46 489 154.68 463.92 120.66 260.68 c 0
 89.7 74.06 140.18 34 219.04 34 c 3
 311.04 34 436.9 51.6 436.9 51.6 c 1
 432.52 22 l 17
 347.52 -1 298.72 -6.34 215.72 -6.66 c 0
 115.7 -6.32 44.34 44.54 80.66 266.66 c 0
EndSplineSet
Ligature2: "'dlig' Discretionary Ligatures lookup 14-1" c t
EndChar

StartChar: s_t
Encoding: 371 64262 369
Width: 848
VWidth: 0
Flags: HW
LayerCount: 2
Fore
SplineSet
64 4.04 m 9
 68.38 31.98 l 17
 322.58 31.98 l 18
 353.6 31.98 412.22 37.2 425.52 118.98 c 2
 433.2 168.32 l 2
 440.52 212.56 417.66 239.82 355.84 239.82 c 10
 221.04 239.82 l 2
 127.04 239.82 81.66 255.64 97.66 357.62 c 10
 105 405.28 l 18
 118.02 488.64 161 532 264 532 c 0
 696.52 532 l 1
 730.92 680 l 1
 760.52 680 l 1
 737.52 532 l 1
 905.72 532 l 1
 899 491.68 l 1
 730.8 491.68 l 1
 682.86 188.02 l 2
 661.26 50.74 705.92 46.06 740.02 40.02 c 2
 740.02 40.02 808.42 26.64 813.38 26.64 c 1
 809 -0.98 l 1
 740.24 -0.98 l 2
 652.5 -0.98 620.52 53.3 641.86 188.02 c 2
 689.8 491.68 l 1
 256.3 491.68 l 2
 179.1 491.68 154.28 454.64 146 400.66 c 10
 138.66 354.32 l 18
 125.68 274.78 165 280.82 224.02 280.82 c 2
 359.5 280.82 l 2
 439.24 280.82 485.54 240.02 474.2 168.32 c 1
 466.52 111.3 l 2
 450.84 2.3 375.16 -9.02 313.88 -9.02 c 3
 264.88 -9.02 101 0.04 64 4.04 c 9
EndSplineSet
Ligature2: "'dlig' Discretionary Ligatures lookup 14-1" s t
EndChar

StartChar: t_t
Encoding: 372 -1 370
Width: 712
VWidth: 0
Flags: HW
LayerCount: 2
Fore
SplineSet
92 491 m 1
 97.04 520.6 l 1
 187.82 532 l 1
 222.22 680 l 1
 251.82 680 l 1
 228.82 532 l 1
 558.48 532 l 1
 592.88 679.34 l 1
 622.48 679.34 l 1
 599.48 531.34 l 1
 767.68 531.34 l 1
 760.96 490.34 l 1
 592.76 490.34 l 1
 545.48 189.34 l 2
 523.54 52.06 570.24 47.04 602.64 41.34 c 2
 602.64 41.34 670.7 27.96 675.66 27.96 c 1
 671.62 0.34 l 1
 606.92 0.34 l 2
 523.26 0.34 483.14 54.62 504.48 189.34 c 2
 551.76 490.34 l 1
 222.1 491 l 1
 173.82 188.68 l 2
 151.88 51.4 198.58 46.38 230.98 40.68 c 2
 230.98 40.68 299.04 27.3 304 27.3 c 1
 299.96 -0.32 l 1
 234.6 -0.32 l 2
 150.94 -0.32 111.48 53.96 133.16 188.68 c 2
 181.1 491 l 1
 92 491 l 1
EndSplineSet
Ligature2: "'dlig' Discretionary Ligatures lookup 14-1" t t
EndChar

StartChar: f_t
Encoding: 373 -1 371
Width: 742
VWidth: 0
Flags: HW
LayerCount: 2
Fore
SplineSet
92 490 m 1
 96.38 518.62 l 1
 189.8 531 l 1
 204.8 630 l 2
 213.8 684 232.8 786 333 786 c 0
 369.46 786 438.16 782.62 476.58 770.92 c 1
 472.54 745.68 l 1
 337.68 745.68 l 2
 271.38 745.68 256.44 697.8 245.8 630 c 2
 230.8 531.34 l 1
 587.8 531.34 l 1
 622.86 680 l 1
 652.46 680 l 1
 628.8 531.34 l 1
 797 531.34 l 1
 790.28 490.34 l 1
 622.08 490.34 l 1
 575.48 188.68 l 2
 553.88 51.4 600.24 46.38 632.64 40.68 c 2
 632.64 40.68 701.7 27.3 706.66 27.3 c 1
 702.28 -0.32 l 1
 635.6 -0.32 l 2
 551.94 -0.32 513.48 53.96 534.48 188.68 c 2
 581.08 490.34 l 1
 223.4 490.34 l 1
 146.12 0 l 1
 105.12 0 l 1
 182.4 490 l 1
 92 490 l 1
EndSplineSet
Ligature2: "'dlig' Discretionary Ligatures lookup 14-1" f t
EndChar

StartChar: t_y
Encoding: 374 -1 372
Width: 887
VWidth: 0
Flags: HW
LayerCount: 2
Fore
SplineSet
92 491 m 1
 97.04 520.6 l 1
 187.82 532 l 1
 222.22 680 l 1
 251.82 680 l 1
 228.82 532 l 1
 391.44 532 l 2
 499.98 531 526.42 497.66 541.42 417.3 c 2
 597.72 119.32 l 2
 613.64 34.68 676.9 40.72 676.9 40.72 c 1
 879.18 451.7 l 2
 890.54 475.4 901.82 503.28 906.5 534.34 c 1
 937.14 534.34 l 1
 946.16 503.98 931.58 464.06 920.54 440.98 c 2
 704.48 -0.96 l 2
 677.28 -54 578.32 -263.48 477.88 -270.96 c 1
 477.88 -243.7 l 1
 552.28 -226.34 644.5 -26.1 657.08 -1.96 c 1
 634.72 -1.3 573.34 13.32 555.04 113.32 c 2
 498.4 410.04 l 2
 484.14 482.04 462.18 490.34 384.72 490.34 c 2
 222.1 490.34 l 1
 174.16 188.34 l 2
 152.22 51.06 198.92 46.04 231.32 40.34 c 2
 231.32 40.34 299.38 26.96 304.34 26.96 c 1
 300.3 -0.66 l 1
 232.96 -0.66 l 2
 149.3 -0.66 111.82 53.62 133.16 188.34 c 2
 181.1 491 l 1
 92 491 l 1
EndSplineSet
Ligature2: "'dlig' Discretionary Ligatures lookup 14-1" t y
EndChar

StartChar: f_y
Encoding: 375 -1 373
Width: 905
VWidth: 0
Flags: HW
LayerCount: 2
Fore
SplineSet
92 490 m 1
 96.38 518.62 l 1
 189.8 531 l 1
 204.8 630 l 2
 213.8 684 232.8 786 333 786 c 0
 369.46 786 438.16 782.62 476.58 770.92 c 1
 472.54 745.68 l 1
 337.68 745.68 l 2
 271.38 745.68 256.44 697.8 245.8 630 c 2
 230.8 531 l 1
 408.4 531.66 l 2
 516.94 532.32 543.72 495.96 558.72 415.94 c 2
 615.36 117.96 l 2
 631.62 33.32 698.58 38.04 698.58 38.04 c 1
 897.48 449.02 l 2
 908.5 472.72 920.44 500.6 925.12 531.66 c 1
 955.76 531.66 l 1
 964.78 501.3 950.54 461.38 939.5 438.3 c 2
 723.1 -3.64 l 2
 695.9 -56.68 597.28 -266.16 496.84 -273.64 c 1
 496.84 -246.38 l 1
 571.24 -229.02 663.46 -28.78 676.04 -4.64 c 1
 652.36 -3.32 591.66 11.96 572.34 111.96 c 2
 516.04 408.68 l 2
 501.44 480.68 479.14 490 401.68 490 c 2
 223.4 490 l 1
 146.12 0 l 1
 105.12 0 l 1
 182.4 490 l 1
 92 490 l 1
EndSplineSet
Ligature2: "'dlig' Discretionary Ligatures lookup 14-1" f y
EndChar

StartChar: kgreenlandic
Encoding: 376 312 374
Width: 471
VWidth: 0
Flags: HW
LayerCount: 2
Fore
SplineSet
60 0 m 1
 144 531 l 1
 185 531 l 1
 146.36 286.14 l 1
 254.22 286.14 l 1
 483.78 531 l 1
 537.22 531 l 1
 291.56 263.66 l 1
 442.98 0 l 1
 393.58 0 l 1
 251.58 245.14 l 1
 139.98 245.14 l 9
 101 0 l 17
 60 0 l 1
EndSplineSet
EndChar

StartChar: Tbar
Encoding: 382 358 380
Width: 586
VWidth: 0
Flags: HW
LayerCount: 2
Fore
SplineSet
139 691 m 1
 145.72 732 l 1
 647.12 732 l 1
 640.4 691 l 1
 407.2 691 l 1
 365.94 430.8 l 1
 492.54 430.8 l 1
 488.5 403.2 l 1
 361.9 403.2 l 1
 297.92 0 l 1
 256.92 0 l 1
 320.9 403.2 l 1
 194.3 403.2 l 1
 198.34 430.8 l 1
 324.94 430.8 l 1
 366.2 691 l 1
 139 691 l 1
EndSplineSet
Substitution2: "'c2sc' Capitals to Small Capitals in Latin lookup 17 subtable" tbar.smcp
EndChar

StartChar: gcommaaccent
Encoding: 387 291 385
Width: 526
VWidth: 0
Flags: HW
LayerCount: 2
Fore
SplineSet
38 -248 m 1
 42.04 -222.1 l 1
 278.92 -232 l 2
 330.54 -234.64 402.58 -197.04 417.2 -104 c 2
 438.2 29 l 1
 370.2 3 281.08 -9.66 236.08 -9.66 c 3
 80.7 -9.66 67 117 92 275 c 0
 119 443 195.38 537 315.96 537 c 3
 421.96 537 510.86 524.6 556.86 520.6 c 1
 458.2 -104 l 2
 438.2 -228 349.9 -280 272.2 -272 c 2
 38 -248 l 1
133 269.98 m 0
 111.12 129.68 122.4 31 237.72 31 c 3
 311.72 31 357.24 41.6 443.24 62.6 c 1
 512.48 492.7 l 2
 319.26 496 l 2
 206.32 497.98 151.22 383.62 133 269.98 c 0
355.44 611.06 m 2
 368.76 703.28 l 2
 377.48 756.28 423.52 745.56 423.52 745.56 c 1
 421.16 732.4 l 0
 403.4 732.74 400.4 720.34 399.06 713.64 c 2
 394.4 682.06 l 1
 401.1 682.06 l 2
 409.48 682.06 415.5 677.7 414.16 667.32 c 2
 405.84 611.06 l 2
 404.031 600.358 397.8 594.98 388.08 594.98 c 2
 367.16 594.98 l 2
 356.44 594.98 354.1 601.68 355.44 611.06 c 2
EndSplineSet
AlternateSubs2: "'salt' Access All Alternates in Latin lookup 4-1" gcommaaccent.salt
Substitution2: "'smcp' Lowercase to Small Capitals lookup 16-1" gcommaaccent.smcp
EndChar

StartChar: gcommaaccent.salt
Encoding: 388 -1 386
Width: 507
VWidth: 0
Flags: HW
LayerCount: 2
Fore
SplineSet
35.5 -114.68 m 0
 80.5 114 l 0
 88.14 166.5 120.04 192.74 162.78 196.04 c 1
 121.46 221.4 103.84 291 111.84 344 c 0
 131.84 474 203.84 534.34 310.84 533 c 2
 411.22 531.66 l 2
 479.88 531 564.84 485 546.84 344 c 0
 536.84 267 492.18 165.16 353.48 165.16 c 2
 206.48 165.16 l 2
 152.86 165.16 129.84 153 124.84 121 c 0
 120.84 95 119.38 76.1 154.24 71.78 c 2
 374.54 43.48 l 2
 442.54 34.48 512.84 -4 499.84 -83 c 2
 494.84 -116 l 2
 484.5 -183.36 466.52 -270 319.52 -270 c 2
 186.46 -270 l 2
 84.46 -270 16.5 -210.68 35.5 -114.68 c 0
76.84 -116 m 2
 59.52 -200.26 125.72 -227.98 180.86 -227.98 c 2
 326.9 -227.98 l 2
 419.56 -227.98 444.2 -177.52 453.84 -116 c 2
 458.18 -88 l 2
 467.16 -31.76 432.52 -4.14 351.82 6.5 c 2
 108.48 38.16 l 1
 76.84 -116 l 2
152.84 344 m 0
 143.52 288.4 164.38 206.5 241.38 206.5 c 2
 366.8 206.5 l 2
 472.16 206.5 499.84 306 505.84 344 c 0
 519.46 430.02 481.1 492 407.1 492 c 2
 302.8 492 l 2
 220.8 492 170.42 444.18 152.84 344 c 0
344.66 597.86 m 2
 357.66 690.08 l 2
 366.114 743.122 412.08 732.36 412.08 732.36 c 1
 410.06 719.2 l 0
 392.3 719.54 389.62 707.14 388.28 700.44 c 2
 383.96 668.86 l 1
 390.66 668.86 l 2
 399.04 668.86 405.189 664.482 403.72 654.12 c 2
 395.72 597.86 l 2
 393.997 587.146 387.36 581.78 377.64 581.78 c 2
 356.72 581.78 l 2
 346 581.78 343.366 588.473 344.66 597.86 c 2
EndSplineSet
EndChar

StartChar: tbar
Encoding: 389 359 387
Width: 352
VWidth: 0
Flags: HW
LayerCount: 2
Fore
SplineSet
70.1 301 m 1
 74.48 328.6 l 1
 155.48 328.6 l 1
 181.1 491 l 1
 92 491 l 1
 97.04 520.6 l 1
 187.82 532 l 1
 222.22 680 l 1
 251.82 680 l 1
 228.82 532 l 1
 397.02 532 l 1
 390.3 491 l 1
 222.1 491 l 1
 196.48 328.6 l 1
 314.68 328.6 l 1
 310.3 301 l 1
 192.1 301 l 1
 174.82 190 l 2
 152.88 53.38 193.64 49.02 231.98 42 c 2
 231.98 42 300.38 28.62 305.34 28.62 c 1
 300.96 1 l 1
 230.32 1 l 2
 151.94 1 111.82 49.34 133.82 190 c 2
 151.1 301 l 1
 70.1 301 l 1
EndSplineSet
AlternateSubs2: "'salt' Access All Alternates in Latin lookup 4-1" tbar.salt
Substitution2: "'smcp' Lowercase to Small Capitals lookup 16-1" tbar.smcp
EndChar

StartChar: Eng
Encoding: 390 330 388
Width: 634
VWidth: 0
Flags: HW
LayerCount: 2
Fore
SplineSet
80 0 m 1
 196 732 l 1
 236.98 732 l 1
 537.76 78.6 l 1
 641 732 l 1
 682 732 l 1
 566.34 1.36 l 1
 553 -84 l 2
 529 -236 462 -257 344 -257 c 1
 349.04 -225.74 l 1
 427.86 -213.7 490.38 -220.36 512.68 -79.9 c 2
 525.34 2.04 l 1
 225.24 653.4 l 1
 122 0 l 1
 80 0 l 1
EndSplineSet
Substitution2: "'c2sc' Capitals to Small Capitals in Latin lookup 17 subtable" eng.smcp
EndChar

StartChar: eng
Encoding: 391 331 389
Width: 554
VWidth: 0
Flags: HW
LayerCount: 2
Fore
SplineSet
60 0 m 1
 144 531 l 1
 169.6 531 l 1
 175 469 l 1
 242 504 308.6 540 389.6 540 c 3
 495.6 540 547.2 458 533.2 370 c 2
 474.2 0 l 1
 459.86 -90 l 1
 436.46 -220.06 337.86 -242.06 278.1 -252.82 c 1
 264 -230 l 1
 330.78 -213.6 402.54 -180.64 418.86 -90.7 c 1
 433.2 0 l 1
 492.2 370 l 2
 502.86 439.3 459.62 499 382.88 499 c 3
 300.24 499 241.74 471.74 170.62 437.38 c 1
 101 0 l 1
 60 0 l 1
EndSplineSet
Substitution2: "'smcp' Lowercase to Small Capitals lookup 16-1" eng.smcp
EndChar

StartChar: exclam.smcp
Encoding: 412 -1 410
Width: 252
VWidth: 0
Flags: HW
LayerCount: 2
Fore
SplineSet
84.34 15.74 m 2
 94.66 76.04 l 2
 96 86.42 102.7 92.46 113.42 92.46 c 2
 139.38 92.46 l 2
 149.76 92.46 153.78 85.42 152.44 76.04 c 2
 142.12 15.74 l 2
 140.511 5.40125 134.08 0 124.7 0 c 2
 98.08 0 l 2
 88.7 0 82.8446 6.38514 84.34 15.74 c 2
118.98 166.34 m 1
 177.3 570 l 1
 222.08 570 l 1
 152.4 166.34 l 1
 118.98 166.34 l 1
EndSplineSet
EndChar

StartChar: quotedbl.smcp
Encoding: 413 -1 411
Width: 318
VWidth: 0
Flags: HW
LayerCount: 2
Fore
SplineSet
121.44 406.96 m 1
 134.08 540.96 l 1
 145.08 607.96 l 1
 186.74 607.96 l 1
 175.74 540.96 l 1
 147.38 406.96 l 1
 121.44 406.96 l 1
233.34 406.96 m 1
 245.98 540.96 l 1
 256.98 607.96 l 1
 298.64 607.96 l 1
 287.64 540.96 l 1
 259.28 406.96 l 1
 233.34 406.96 l 1
EndSplineSet
EndChar

StartChar: numbersign.smcp
Encoding: 414 -1 412
Width: 556
VWidth: 0
Flags: HW
LayerCount: 2
Fore
SplineSet
47 186.54 m 1
 55.08 211.14 l 1
 189.3 211.14 l 1
 237.22 356.2 l 1
 99.68 356.2 l 1
 107.42 380.8 l 1
 245.3 380.8 l 1
 307.26 570 l 1
 332.86 570 l 1
 270.9 380.8 l 1
 420.64 380.8 l 1
 482.26 570 l 1
 507.86 570 l 1
 446.24 380.8 l 1
 599.42 380.8 l 1
 591.68 356.2 l 1
 438.16 356.2 l 1
 391.24 211.14 l 1
 547.08 211.14 l 1
 539 186.54 l 1
 383.16 186.54 l 1
 321.86 -1 l 1
 296.26 -1 l 1
 357.22 186.54 l 1
 207.82 186.54 l 1
 145.86 -1 l 1
 120.26 -1 l 1
 181.88 186.54 l 1
 47 186.54 l 1
215.24 211.14 m 1
 365.64 211.14 l 1
 412.22 356.2 l 1
 262.82 356.2 l 1
 215.24 211.14 l 1
EndSplineSet
EndChar

StartChar: dollar.smcp
Encoding: 415 -1 413
Width: 521
VWidth: 0
Flags: HW
LayerCount: 2
Fore
SplineSet
69 11 m 1
 73.38 38.62 l 1
 103.38 38.62 222.38 38.96 292.38 38.96 c 0
 339.88 38.96 414.7 53.52 427.68 135.04 c 2
 433.68 173.04 l 2
 443 230.32 403.48 265.5 335.64 265.5 c 2
 255.68 265.5 l 2
 132.6 265.5 101.34 331.32 112.32 401.86 c 2
 117.32 432.86 l 1
 138.32 566.2 237.34 574.66 327.52 575 c 1
 338.18 640 l 1
 371.82 640 l 1
 360.82 573.66 l 1
 397.58 572.3 481.4 566.6 517.66 561.62 c 1
 512.62 533 l 1
 305.62 533 l 2
 207.74 533 169.98 501.52 158.32 428.24 c 2
 153.32 397.24 l 1
 142.34 327.4 194.46 305.48 259.36 305.48 c 2
 341.7 305.48 l 2
 445.32 305.48 485.36 236.42 475.02 170.4 c 2
 469.02 132.4 l 2
 450.68 16.36 357.22 -5.02 269.48 -4.36 c 1
 258.82 -69 l 1
 225.52 -69 l 1
 236.18 -3 l 1
 194.14 0.68 97.24 6.36 69 11 c 1
EndSplineSet
EndChar

StartChar: percent.smcp
Encoding: 416 -1 414
Width: 813
VWidth: 0
Flags: HW
LayerCount: 2
Fore
SplineSet
89.32 386.66 m 2
 100 456.46 l 2
 113 540.78 143.28 579.48 247.68 579.48 c 2
 297.74 579.48 l 2
 391.66 579.48 418.74 539.54 405.4 452.5 c 2
 394.72 382.7 l 18
 381.38 294.98 347.74 259.68 245.72 259.68 c 2
 195.66 259.68 l 2
 105.48 259.68 76.66 302 89.32 386.66 c 2
121.32 384.68 m 2
 109.7 311.26 133.92 291.68 201.38 291.68 c 2
 250.78 291.68 l 2
 320.3 291.68 351.1 309.62 362.72 384.68 c 10
 373.4 454.48 l 2
 384.04 522.62 368.82 547.48 293.02 547.48 c 2
 243.62 547.48 l 2
 171.76 547.48 143.62 528.52 132 454.48 c 2
 121.32 384.68 l 2
200.12 0 m 1
 630.84 570 l 1
 668.84 570 l 1
 238.12 0 l 1
 200.12 0 l 1
469.9 127.98 m 2
 480.58 197.78 l 2
 493.58 282.1 525.18 320.8 629.58 320.8 c 2
 678.98 320.8 l 2
 772.9 320.8 799.98 282.18 785.98 193.16 c 2
 775.3 123.36 l 18
 762.3 35.64 729.64 1 627.62 1 c 2
 576.24 1 l 2
 486.06 1 457.24 43.32 469.9 127.98 c 2
501.9 126 m 2
 490.28 52.58 514.16 33 581.62 33 c 2
 631.02 33 l 2
 700.54 33 731.68 50.94 743.3 126 c 10
 753.98 195.8 l 2
 764.62 263.94 749.4 288.8 673.6 288.8 c 2
 624.2 288.8 l 2
 552.34 288.8 524.2 269.84 512.58 195.8 c 2
 501.9 126 l 2
EndSplineSet
EndChar

StartChar: ampersand.smcp
Encoding: 417 -1 415
Width: 561
VWidth: 0
Flags: HW
LayerCount: 2
Fore
SplineSet
79.7 65.02 m 1
 32.34 145.06 56.96 226.08 142.96 289.42 c 2
 217.96 344.76 l 1
 186.68 398.66 l 2
 133.98 490.04 194.42 559.72 259.08 569 c 0
 305.44 574 359.6 574.66 470.36 559.94 c 1
 465.98 534 l 1
 307.98 534 l 2
 208.32 534 190.74 472.6 223.98 415.76 c 2
 383.44 144.06 l 1
 499.86 242.86 l 1
 512 227.04 l 1
 439.52 140.04 l 1
 404.3 108.46 l 1
 469.72 0 l 1
 423.34 0 l 1
 373.38 83.28 l 1
 310.44 32.64 l 1
 239.46 -23.32 129.4 -22.66 79.7 65.02 c 1
115.98 86.2 m 0
 148.54 30.08 222.28 13.96 284.56 64.56 c 1
 351.54 120.22 l 1
 238.46 308.14 l 1
 168.12 257.8 l 18
 92.18 203.16 83.76 141.64 115.98 86.2 c 0
EndSplineSet
EndChar

StartChar: quotesingle.smcp
Encoding: 418 -1 416
Width: 206
VWidth: 0
Flags: HW
LayerCount: 2
Fore
SplineSet
121.44 406.3 m 1
 134.08 540.3 l 1
 145.08 607.3 l 1
 186.74 607.3 l 1
 175.74 540.3 l 1
 147.38 406.3 l 1
 121.44 406.3 l 1
EndSplineSet
EndChar

StartChar: asterisk.smcp
Encoding: 419 -1 417
Width: 467
VWidth: 0
Flags: HW
LayerCount: 2
Fore
SplineSet
114 437.04 m 1
 117.36 459.88 l 1
 260.7 472.38 l 1
 256 431.38 l 1
 114 437.04 l 1
162.94 264.58 m 1
 214.22 398.92 l 1
 254.52 390.5 l 1
 182.76 257.86 l 1
 162.94 264.58 l 1
265.92 342.42 m 1
 293.82 379.02 l 1
 395.42 292.96 l 1
 379.98 274.82 l 1
 265.92 342.42 l 1
269.94 574.84 m 1
 293.12 582.92 l 1
 343.52 461.62 l 1
 302.2 444.16 l 1
 269.94 574.84 l 1
320.62 412.68 m 1
 447.66 492.96 l 1
 457.04 473.14 l 1
 343.78 380.76 l 1
 320.62 412.68 l 1
EndSplineSet
EndChar

StartChar: zero.smcp
Encoding: 420 -1 418
Width: 563
VWidth: 0
Flags: W
HStem: 0 41<167.477 416.117> 529 41<241.699 487.533>
DStem2: 95 164.64 136 162 0.157912 0.987453<-67.3577 328.708> 477.2 162 518.2 159.36 0.157912 0.987453<-81.3344 325.839>
LayerCount: 2
Fore
SplineSet
95 164.64 m 10
 134.34 410.64 l 2
 152.34 523.66 232.24 570 332 570 c 2
 416.2 570 l 2
 558.98 570 567.24 463.9 557.54 405.36 c 2
 518.2 159.36 l 2
 499.2 40.36 428.58 0 326.52 0 c 2
 242.32 0 l 2
 151.32 0 76 44.64 95 164.64 c 10
136 162 m 2
 120.34 63.74 182.56 41 247.72 41 c 10
 331.92 41 l 18
 432.88 41 467.54 100.08 477.2 162 c 2
 516.54 408 l 2
 528.84 484.8 500.32 529 411.14 529 c 2
 325.62 529 l 2
 241.34 529 187.62 485.68 175.34 408 c 2
 136 162 l 2
EndSplineSet
EndChar

StartChar: one.smcp
Encoding: 421 -1 419
Width: 359
VWidth: 0
Flags: W
HStem: 0 21G<208.38 252.398> 0 21G<208.38 252.398> 452.46 27.92<113.36 177.922>
VStem: 108 227.38
DStem2: 208.38 0 249.38 0 0.149189 0.988809<6.11674 524.129>
LayerCount: 2
Fore
SplineSet
108 452.46 m 0xb0
 113.36 480.38 l 3
 208.26 480.38 296.38 570 296.38 570 c 1
 335.38 570 l 1
 249.38 0 l 1
 208.38 0 l 1
 288.98 517.9 l 1
 262.42 492.3 204 452.46 108 452.46 c 0xb0
EndSplineSet
EndChar

StartChar: two.smcp
Encoding: 422 -1 420
Width: 513
VWidth: 0
Flags: W
HStem: 0 41<140.74 449.4> 530 41<145.095 432.592>
LayerCount: 2
Fore
SplineSet
46 0 m 25
 52.38 38.96 l 17
 169.92 96.2 450.36 244.94 472.7 384.68 c 1
 486.68 471.54 460.38 531.32 338.64 530 c 1
 305.64 530 123.28 529 123.28 529 c 2
 127.66 553.6 l 1
 225.2 570 246.54 571 351.4 571 c 3
 491.74 571 530.34 487.88 514.04 379.3 c 1
 491.38 231.98 248.66 93.98 140.74 41 c 9
 456.12 41 l 25
 449.4 0 l 25
 46 0 l 25
EndSplineSet
EndChar

StartChar: three.smcp
Encoding: 423 -1 421
Width: 516
VWidth: 0
Flags: W
HStem: -5 41<84.2916 365.117> 10.06 25.94<41.04 136.551> 267.5 32<131.02 375.346> 532 41<181.405 435.108> 532 25.6<118.98 210.408>
DStem2: 408.4 137.04 451.4 133.74 0.162566 0.986698<-77.7544 90.2373 195.751 364.53>
LayerCount: 2
Fore
SplineSet
37 10.06 m 1x60
 41.04 36 l 1x60
 285.64 36 l 2
 349.08 36 395.76 55.22 408.4 137.04 c 2
 413.06 167 l 2
 425.04 240.9 370.54 261.5 329.86 262.5 c 2
 125.96 267.5 l 2
 131.02 299.5 l 1
 336.58 303.5 l 2
 382.66 304.5 440.08 324.12 451.06 395 c 2
 456.72 430.32 l 2
 467.4 494.28 440.4 532 370.52 532 c 2xb0
 114.6 532 l 1
 118.98 557.6 l 1x28
 172.18 574.34 290.94 573 387.72 573 c 1
 468.62 573 511.06 513.04 497.72 427.02 c 2
 492.06 390.38 l 2
 481.08 316.22 432.74 289.06 399.9 280.96 c 1
 426.92 270.86 467.04 231.94 456.06 163.7 c 2
 451.4 133.74 l 2
 435.4 34.08 388.78 -5.34 291.06 -5 c 0xb0
 202.06 -4.66 76.26 -5.36 37 10.06 c 1x60
EndSplineSet
EndChar

StartChar: four.smcp
Encoding: 424 -1 422
Width: 532
VWidth: 0
Flags: W
HStem: 157.14 42.36<108.6 396.5 444.22 486.993> 170.2 29.3<480.347 529.84>
DStem2: 47 184.9 108.6 199.5 0.585037 0.811007<47.879 474.842> 372.2 2 413.2 2 0.156633 0.987657<6.42195 157.031 206.343 436.655>
LayerCount: 2
Fore
SplineSet
47 184.9 m 1x80
 324.8 570 l 1
 373.2 570 l 1
 108.6 199.5 l 1x80
 403.22 199.5 l 1x40
 432.2 381 l 1
 463.38 456 l 1
 485.2 456 l 1
 444.22 199.5 l 1x80
 534.22 199.5 l 1
 529.84 170.2 l 1x40
 437.5 157.14 l 1
 413.2 2 l 1
 372.2 2 l 1
 396.5 157.14 l 1
 65.1 157.14 l 1
 47 184.9 l 1x80
EndSplineSet
EndChar

StartChar: five.smcp
Encoding: 425 -1 423
Width: 565
VWidth: 0
Flags: W
HStem: -1 43.36<112.681 411.32> 15.74 26.62<83.38 172.032> 303.8 41<207.914 454.45> 529 41<217.92 537.62>
DStem2: 110.98 212.3 147.98 212.3 0.160587 0.987022<5.94171 58.4026 90.4725 261.635> 462.68 152.02 503.34 146.72 0.149342 0.988786<-72.3849 122.089>
LayerCount: 2
Fore
SplineSet
79 15.74 m 1x70
 83.38 42.36 l 1x70
 328.4 42.36 l 2
 410.6 42.36 451.72 82.94 462.68 152.02 c 2
 470.36 201.12 l 2
 478.66 255.22 477.42 303.8 376.24 303.8 c 0
 276.54 303.8 l 2
 218.4 303.8 156.98 266.3 147.98 212.3 c 1
 110.98 212.3 l 1
 184.66 570 l 25
 543.68 570 l 1
 537.62 529 l 1
 217.92 529 l 25
 168.4 294.62 l 1
 188.06 317.92 230.88 342.76 280.98 344.12 c 1
 292.88 345.82 349.02 344.8 382.96 344.8 c 0
 500.96 344.8 523.34 278.36 511.36 199.82 c 2
 503.34 146.72 l 2
 485.34 33.72 415.86 0 321.34 -1 c 0xb0
 222 -2 124.34 2.64 79 15.74 c 1x70
EndSplineSet
EndChar

StartChar: six.smcp
Encoding: 426 -1 424
Width: 553
VWidth: 0
Flags: W
HStem: -0.34 42.36<174.682 422.738> 285.16 41<192.163 463.922> 534.3 42.36<247.259 514.385> 534.3 31.32<353.428 546.66>
DStem2: 459.72 130.66 499.72 122.7 0.155063 0.987905<-65.0795 136.157>
LayerCount: 2
Fore
SplineSet
110.32 304.62 m 0xe0
 144.3 525.3 234.2 576 308.32 576.66 c 0xe0
 387.32 577.32 473.68 576.66 551.38 565.62 c 1
 546.66 534.3 l 1xd0
 301.92 534.3 l 1
 202.24 534.3 163 374.06 153.68 316.14 c 1
 220.68 324.14 338.42 325.82 396.42 326.16 c 0
 494.94 326.84 525.06 281.06 514.06 214.06 c 2
 499.72 122.7 l 2
 485.38 30.7 425.88 -0.34 344.72 -0.34 c 2
 227.42 -0.34 l 2
 142.42 -0.34 71.68 52.96 110.32 304.62 c 0xe0
148.96 285.16 m 1
 132.4 178.16 127.24 42.02 228.7 42.02 c 2
 351.78 42.02 l 2
 395.36 42.02 448.1 57.6 459.72 130.66 c 2
 473.06 216.04 l 2
 481.7 270.56 452.8 285.16 390.36 285.16 c 2
 148.96 285.16 l 1
EndSplineSet
EndChar

StartChar: seven.smcp
Encoding: 427 -1 425
Width: 487
VWidth: 0
Flags: W
HStem: 0 21G<191.68 248.842> 0 21G<191.68 248.842> 529 41<114.72 468.3>
DStem2: 191.68 0 238.38 0 0.463527 0.886083<21.6467 596.959>
LayerCount: 2
Fore
SplineSet
108 529 m 1xa0
 114.72 570 l 1
 503.72 570 l 1
 520.08 538.5 l 1
 238.38 0 l 1
 191.68 0 l 1
 468.3 529 l 1
 108 529 l 1xa0
EndSplineSet
EndChar

StartChar: eight.smcp
Encoding: 428 -1 426
Width: 571
VWidth: 0
Flags: W
HStem: 0 41.34<151.495 436.289> 268.5 42<196.279 465.485> 533.66 41.34<216.702 512.192>
DStem2: 95.32 135.94 135.32 131.3 0.156798 0.987631<-58.9729 114.944 215.739 390.217> 474.72 131.3 516.72 130.66 0.159982 0.98712<-63.7424 105.429 210.124 377.796>
LayerCount: 2
Fore
SplineSet
95.32 135.94 m 2
 102.36 182.84 l 2
 114.66 262.62 171.18 281.6 203.22 283.62 c 1
 152.92 298.64 129 350.32 137.64 405.18 c 2
 142.66 438.28 l 2
 159.66 544.28 206.58 575 300.66 575 c 2
 460.06 575 l 2
 540.34 575 578.38 522.9 564.06 433 c 2
 559.04 399.9 l 2
 549.44 341.32 508.36 302.06 462.9 294.02 c 1
 506.86 285.96 532.72 230.7 523.76 175.58 c 2
 516.72 130.66 l 2
 500.38 27.28 438.78 0 368.06 0 c 2
 207.68 0 l 2
 85.84 0 88.64 91.54 95.32 135.94 c 2
135.32 131.3 m 2
 126.02 71.52 148.26 41.34 217.8 41.34 c 2
 371.38 41.34 l 2
 425.18 41.34 465.42 72.48 474.72 131.3 c 2
 481.76 174.52 l 2
 494.04 252.84 444.62 268.5 402.7 268.5 c 2
 253.3 268.5 l 2
 212.68 268.5 154.98 254.2 143.02 177.82 c 2
 135.32 131.3 l 2
178.3 401.84 m 2
 166.34 326.08 219.16 310.5 260.02 310.5 c 2
 409.42 310.5 l 2
 473.68 310.5 511.4 352.72 518.7 401.84 c 2
 523.72 433.64 l 2
 535.36 506.16 513.1 533.66 449.94 533.66 c 2
 297.34 533.66 l 2
 228.86 533.66 196.96 520.8 183.32 433.64 c 2
 178.3 401.84 l 2
EndSplineSet
EndChar

StartChar: nine.smcp
Encoding: 429 -1 427
Width: 542
VWidth: 0
Flags: W
HStem: -4.96 42.36<117.061 387.831> 6.08 31.32<84.72 275.036> 245.54 41<167.733 439.557> 529.68 42.36<208.806 456.772>
DStem2: 117.32 358.3 158.32 355.66 0.158413 0.987373<-45.409 156.008>
LayerCount: 2
Fore
SplineSet
80 6.08 m 1x70
 84.72 37.4 l 1x70
 328.8 37.4 l 1
 433.1 37.4 468.72 197.64 478.04 255.56 c 1
 411.04 247.56 293.3 245.88 235.3 245.54 c 0
 136.78 244.86 106.32 291.3 117.32 358.3 c 2
 131.66 447.68 l 2
 146.66 539.68 205.5 572.04 286.66 572.04 c 2
 403.96 572.04 l 2
 488.96 572.04 560.36 516.1 521.06 264.44 c 0
 485.76 41.78 397.52 -4.96 324.06 -4.96 c 0xb0
 245.06 -4.96 157.7 -4.96 80 6.08 c 1x70
158.32 355.66 m 2
 149.68 301.14 178.58 286.54 241.02 286.54 c 2
 482.42 286.54 l 1
 498.98 393.54 505.8 529.68 404.34 529.68 c 2
 279.94 529.68 l 2
 236.36 529.68 183.28 514.1 171.66 441.04 c 2
 158.32 355.66 l 2
EndSplineSet
EndChar

StartChar: question.smcp
Encoding: 430 -1 428
Width: 467
VWidth: 0
Flags: HW
LayerCount: 2
Fore
SplineSet
99 528 m 2
 103.38 557.62 l 1
 182.04 566.96 219.8 571.02 303.48 569.66 c 1
 442.56 569.66 481.52 516.18 466.9 415.94 c 2
 459.92 368.34 l 2
 441.94 255.46 343.78 226.88 237.2 240.9 c 1
 237.2 240.22 224.88 166.7 225.22 165.34 c 1
 182.22 165.34 l 1
 199.58 277.2 l 1
 214.54 276.86 264.88 276.52 279.84 277.2 c 0
 341.26 277.88 406.3 293.26 418.92 371.64 c 2
 425.9 419.24 l 2
 439.16 506.52 392.2 528 289.5 528 c 2
 99 528 l 2
149.82 15.74 m 2
 159.48 76.04 l 2
 160.82 86.42 167.52 92.46 178.24 92.46 c 2
 204.18 92.46 l 2
 215.58 92.46 218.94 86.1 217.26 76.04 c 2
 207.6 15.74 l 2
 205.733 4.36771 198.22 0 188.84 0 c 2
 163.56 0 l 2
 154.18 0 148.397 6.37289 149.82 15.74 c 2
EndSplineSet
EndChar

StartChar: at.smcp
Encoding: 431 -1 429
Width: 890
VWidth: 0
Flags: HW
LayerCount: 2
Fore
SplineSet
71 49.34 m 2
 152 561.34 l 2
 167 653.34 219 739.34 357 739.34 c 2
 732 739.34 l 2
 843 739.34 889 674.34 872 561.34 c 2
 819 207.34 l 2
 813.32 168.26 794 43.34 650 43.34 c 2
 612.5 43.34 l 1
 606 103.34 l 1
 575 69.34 490 37.34 417 36.34 c 0
 306 34.34 231 88.34 265 315.34 c 0
 299 536.34 406 579.72 480 584.34 c 0
 556.28 588.96 656 571.34 707 522.34 c 1
 642.72 83.68 l 1
 690.72 83.68 760.38 92.02 778 207.34 c 2
 831 561.34 l 2
 848.32 677.92 797.36 698 729.64 698 c 2
 352.92 698 l 2
 241.42 698 203.28 626.66 193 561.34 c 2
 112 49.34 l 2
 97.72 -40 140.04 -97.66 226.04 -97.66 c 2
 610.72 -97.66 l 1
 606.68 -122.88 l 1
 556.68 -132.88 442 -138.66 316 -138.66 c 2
 218 -138.66 l 2
 114 -138.66 54 -57.66 71 49.34 c 2
303.66 294.34 m 0
 281.04 113.7 333.72 78.34 411.72 77.34 c 0
 466.72 76.34 543.7 88.34 608.7 137.34 c 1
 664.98 511.18 l 1
 599.04 541.04 544.12 544.34 486.94 543.02 c 0
 431.64 541.7 331.28 516.3 303.66 294.34 c 0
EndSplineSet
EndChar

StartChar: a.smcp
Encoding: 432 -1 430
Width: 573
VWidth: 0
Flags: HW
LayerCount: 2
Fore
SplineSet
41.6 0 m 1
 369.88 570 l 1
 410.88 570 l 1
 542.8 0 l 1
 500.46 0 l 1
 459.84 171.8 l 1
 187.5 171.8 l 1
 89.66 0 l 1
 41.6 0 l 1
210.36 212.8 m 1
 451.46 212.8 l 1
 383.3 516.52 l 1
 210.36 212.8 l 1
EndSplineSet
EndChar

StartChar: b.smcp
Encoding: 433 -1 431
Width: 527
VWidth: 0
Flags: HW
LayerCount: 2
Fore
SplineSet
80 0 m 1
 170 571 l 1
 411.82 571 l 2
 535.82 571 555.2 485 544.2 418 c 0
 529.9 327.52 472.56 301.02 435.8 291.66 c 1
 457.94 288.92 521.18 244.92 506.54 154.74 c 0
 492.86 67.02 450.2 0 324.2 0 c 2
 80 0 l 1
127.72 42 m 1
 330.92 42 l 2
 380.44 42 450.62 56.04 465.54 157.38 c 0
 475.16 227.56 432.84 273.18 367.84 273.18 c 2
 367.84 273.18 176.88 272.5 164.64 273.18 c 1
 127.72 42 l 1
170.7 314.18 m 1
 373.9 314.18 l 2
 437.9 314.18 491.88 344.78 503.86 421.3 c 0
 518.16 511.78 464.68 530 409.14 530 c 2
 205.28 530 l 1
 170.7 314.18 l 1
EndSplineSet
EndChar

StartChar: c.smcp
Encoding: 434 -1 432
Width: 520
VWidth: 0
Flags: HW
LayerCount: 2
Fore
SplineSet
101.34 305.08 m 0
 124.34 450.08 181 578 351 578 c 0
 394 578 511.46 568.3 560.46 556.3 c 1
 556.08 527 l 1
 541.08 530 409.28 537 344.28 537 c 3
 228.42 537 168.28 456 143 295 c 0
 117.08 132.5 142.14 37.6797 265.72 37 c 1
 338.72 39 479.52 47 479.52 47 c 2
 475.14 18.3799 l 1
 415.14 7.37988 336 -4 259 -4 c 3
 78 -4 79.3398 167.08 101.34 305.08 c 0
EndSplineSet
EndChar

StartChar: d.smcp
Encoding: 435 -1 433
Width: 609
VWidth: 0
Flags: HW
LayerCount: 2
Fore
SplineSet
80 0 m 1
 171 572 l 1
 398.86 572 l 0
 562.32 570 594.82 443.16 571.86 274.62 c 0
 532.8 -2.76 367.2 0 307.2 0 c 0
 286.2 0 137 0 80 0 c 1
127.72 41 m 1
 313.92 41 l 2
 455.34 41 511.88 149.24 530.86 283 c 1
 557.5 465.02 503.86 531 391.48 531 c 2
 205.28 531 l 1
 127.72 41 l 1
EndSplineSet
EndChar

StartChar: e.smcp
Encoding: 436 -1 434
Width: 517
VWidth: 0
Flags: HW
LayerCount: 2
Fore
SplineSet
91.34 83 m 2
 154.34 481 l 2
 164 541.64 206.7 571 270.7 571 c 1
 551.74 560.98 l 1
 547.02 531 l 1
 268.62 531 l 2
 212.88 531 199.32 506.82 194.66 476.22 c 1
 167.7 306.5 l 1
 479.1 299.82 l 1
 474.38 269.84 l 1
 160.98 263.5 l 1
 134.36 91.46 l 2
 126.72 42.66 162.84 39 177.9 39 c 2
 469.46 39 l 1
 464.74 10.02 l 1
 164.98 -2 l 1
 114.98 -2 83.34 31 91.34 83 c 2
EndSplineSet
EndChar

StartChar: f.smcp
Encoding: 437 -1 435
Width: 518
VWidth: 0
Flags: HW
LayerCount: 2
Fore
SplineSet
80 0 m 1
 156 481 l 2
 165.66 541.64 206.7 571 270.7 571 c 1
 553.4 560.98 l 1
 548.68 531 l 1
 270.28 531 l 2
 214.54 531 201.32 505.8 196.32 476.22 c 1
 169.36 305.48 l 1
 480.42 298.8 l 1
 476.04 268.82 l 1
 162.64 262.48 l 1
 121 0 l 1
 80 0 l 1
EndSplineSet
EndChar

StartChar: g.smcp
Encoding: 438 -1 436
Width: 577
VWidth: 0
Flags: HW
LayerCount: 2
Fore
SplineSet
106.6 297.78 m 0
 136.92 481.78 194.26 579 366.26 579 c 0
 409.26 579 514.92 568.3 576.86 554 c 1
 572.14 523.68 l 1
 511.14 529.68 448.58 538 360.2 538 c 3
 234.38 538 178.9 479.18 148.26 288 c 0
 125.7 145 162.98 33.66 279.98 33.66 c 0
 360.98 33.66 451.9 74.6 476.9 91.6 c 9
 505.14 270 l 25
 320.54 270 l 25
 324.58 295.9 l 17
 387.7 304.26 404.86 311 485.86 311 c 0
 506.86 311 527.86 310 551.86 308 c 9
 503.52 0 l 17
 475.24 0 l 0
 471.2 50.6 l 1
 413.2 16.6 333.92 -7 273.92 -7 c 0
 66.92 -8 97.94 245.14 106.6 297.78 c 0
EndSplineSet
EndChar

StartChar: h.smcp
Encoding: 439 -1 437
Width: 595
VWidth: 0
Flags: HW
LayerCount: 2
Fore
SplineSet
79 -1 m 1
 169 570 l 1
 210 570 l 1
 167.36 295.5 l 1
 524.56 295.5 l 1
 567.2 570 l 1
 608.2 570 l 1
 518.2 -1 l 1
 477.2 -1 l 1
 517.84 254.5 l 1
 160.64 254.5 l 1
 120 -1 l 1
 79 -1 l 1
EndSplineSet
EndChar

StartChar: i.smcp
Encoding: 440 -1 438
Width: 198
VWidth: 0
Flags: HW
LayerCount: 2
Fore
SplineSet
80 0 m 1
 170 570 l 1
 211 570 l 1
 121 0 l 1
 80 0 l 1
EndSplineSet
EndChar

